<svg xmlns="http://www.w3.org/2000/svg" xmlns:xlink="http://www.w3.org/1999/xlink" width="264" height="280" viewBox="0 0 264 280"><defs><clipPath id="a"><path d="M0,244v-9a72,72,0,0,1,72-72h4V144.611a56.038,56.038,0,0,1-31.694-44.73A12,12,0,0,1,34,88V74A12,12,0,0,1,44,62.166V56a56,56,0,0,1,112,0v6.166A12,12,0,0,1,166,74V88a12,12,0,0,1-10.305,11.881A56.038,56.038,0,0,1,124,144.611V163h4a72,72,0,0,1,72,72v9Z" fill="#d0c6ac"/></clipPath><clipPath id="b"><path d="M200,80.949H0V72A71.94,71.94,0,0,1,72,0h1.192A23.494,23.494,0,0,0,73,3c0,13.785,12.112,25,27,25s27-11.215,27-25a23.5,23.5,0,0,0-.192-3H128a71.94,71.94,0,0,1,72,72v8.948Z" transform="translate(32 29.052)" fill="#e6e6e6"/></clipPath><clipPath id="c"><rect width="264" height="280" fill="none"/></clipPath><clipPath id="d"><path d="M112.68,28.949c5.406-4.95,6.708-14.987,3.638-21.5-3.768-8-11.416-9-18.745-5.481C90.664,5.284,84.515,6.388,76.95,4.782,69.692,3.241,62.806.523,55.3.076A40.645,40.645,0,0,0,22.6,13.129a35.751,35.751,0,0,0-4.115,5.805A18.506,18.506,0,0,0,16,24.192c-.2.893.17,3.1-.275,3.83-.481.79-2.3,1.515-3.069,2.1a25.016,25.016,0,0,0-4.18,4.047A29.186,29.186,0,0,0,3.1,44.743c-4.1,13.245-4.451,29,.853,42,.707,1.734,2.9,5.352,4.186,1.638.255-.734-.335-3.194-.333-3.935,0-2.72,1.506-20.729,8.047-30.817,2.129-3.284,11.973-15.581,13.983-15.679,1.065,1.693,11.88,12.509,39.943,11.241,12.662-.572,22.4-6.261,24.737-8.727C95.549,46,107.513,54.284,109.336,57.692c5.266,9.846,6.434,30.3,8.445,30.265s3.453-5.238,3.867-6.23c3.072-7.375,3.595-16.632,3.267-24.559C124.488,46.966,120.277,35.942,112.68,28.949Z" transform="translate(71 10)" fill="#28354b"/></clipPath></defs><g transform="translate(32 36)"><path d="M0,244v-9a72,72,0,0,1,72-72h4V144.611a56.038,56.038,0,0,1-31.694-44.73A12,12,0,0,1,34,88V74A12,12,0,0,1,44,62.166V56a56,56,0,0,1,112,0v6.166A12,12,0,0,1,166,74V88a12,12,0,0,1-10.305,11.881A56.038,56.038,0,0,1,124,144.611V163h4a72,72,0,0,1,72,72v9Z" fill="#d0c6ac"/><g clip-path="url(#a)"><g transform="translate(-32)"><rect width="264" height="244" fill="rgba(0,0,0,0)"/><rect width="244" height="244" fill="#d08b5b"/></g><path d="M56,79A55.825,55.825,0,0,1,16.4,62.6,55.825,55.825,0,0,1,0,23V15.477a56,56,0,0,0,112-.451V23A56.063,56.063,0,0,1,77.8,74.6,55.65,55.65,0,0,1,56,79Z" transform="translate(44 79)" fill="rgba(0,0,0,0.1)"/></g></g><g transform="translate(0 170)"><path d="M200,80.949H0V72A71.94,71.94,0,0,1,72,0h1.192A23.494,23.494,0,0,0,73,3c0,13.785,12.112,25,27,25s27-11.215,27-25a23.5,23.5,0,0,0-.192-3H128a71.94,71.94,0,0,1,72,72v8.948Z" transform="translate(32 29.052)" fill="#e6e6e6"/><g clip-path="url(#b)"><rect width="264" height="110" fill="rgba(0,0,0,0)"/><rect width="264" height="110" fill="#3c4f5c"/></g><path d="M11.309,37.12h0a27.3,27.3,0,0,1-8.258-8.287,19.15,19.15,0,0,1-.338-20.19A26.392,26.392,0,0,1,10.1.631C10.4.418,10.7.205,11,0V15.305c0,5.589,3.768,10.868,10.078,14.119L21,29.486l1,3.151-4.578-.331L11.309,37.12Zm46.921-.364h0l-5.649-4.45L48,32.637l1-3.152-.077-.061C55.233,26.173,59,20.9,59,15.305V.708a26.313,26.313,0,0,1,7.288,7.935A19.13,19.13,0,0,1,66.1,28.585a26.886,26.886,0,0,1-7.873,8.171Z" transform="translate(97 21.571)" fill="#f2f2f2"/></g><g transform="translate(76 82)"><g transform="translate(2 52)"><path d="M0,0A14,14,0,0,0,14,14h0A14,14,0,0,0,28,0" transform="translate(40 15)" fill="rgba(0,0,0,0.7)"/></g><g transform="translate(28 40)"><path d="M0,0C0,4.418,5.373,8,12,8h0c6.627,0,12-3.582,12-8" transform="translate(16 8)" fill="rgba(0,0,0,0.16)"/></g><g transform="translate(0 8)"><circle cx="6" cy="6" r="6" transform="translate(24 16)" fill="rgba(0,0,0,0.6)"/><circle cx="6" cy="6" r="6" transform="translate(76 16)" fill="rgba(0,0,0,0.6)"/></g><g transform="translate(12 6)"><path d="M3.63,11.08c3.915-5.509,14.648-8.6,23.893-6.327A2,2,0,1,0,28.477.868C17.741-1.768,5.312,1.809.37,8.763A2,2,0,0,0,3.63,11.08Z" transform="translate(0 0.078)" fill="rgba(0,0,0,0.6)"/><path d="M-3.63,11.08c-3.915-5.509-14.648-8.6-23.893-6.327a2,2,0,0,1-2.419-1.465A2,2,0,0,1-28.477.868C-17.741-1.768-5.312,1.809-.37,8.763a2,2,0,0,1-.472,2.789A2,2,0,0,1-3.63,11.08Z" transform="translate(88 0.078)" fill="rgba(0,0,0,0.6)"/></g></g><rect width="264" height="280" fill="none"/><g clip-path="url(#c)"><g transform="translate(-1)"><path d="M112.68,28.949c5.406-4.95,6.708-14.987,3.638-21.5-3.768-8-11.416-9-18.745-5.481C90.664,5.284,84.515,6.388,76.95,4.782,69.692,3.241,62.806.523,55.3.076A40.645,40.645,0,0,0,22.6,13.129a35.751,35.751,0,0,0-4.115,5.805A18.506,18.506,0,0,0,16,24.192c-.2.893.17,3.1-.275,3.83-.481.79-2.3,1.515-3.069,2.1a25.016,25.016,0,0,0-4.18,4.047A29.186,29.186,0,0,0,3.1,44.743c-4.1,13.245-4.451,29,.853,42,.707,1.734,2.9,5.352,4.186,1.638.255-.734-.335-3.194-.333-3.935,0-2.72,1.506-20.729,8.047-30.817,2.129-3.284,11.973-15.581,13.983-15.679,1.065,1.693,11.88,12.509,39.943,11.241,12.662-.572,22.4-6.261,24.737-8.727C95.549,46,107.513,54.284,109.336,57.692c5.266,9.846,6.434,30.3,8.445,30.265s3.453-5.238,3.867-6.23c3.072-7.375,3.595-16.632,3.267-24.559C124.488,46.966,120.277,35.942,112.68,28.949Z" transform="translate(71 10)" fill="#28354b"/><g clip-path="url(#d)"><g transform="translate(1)"><rect width="264" height="280" fill="rgba(0,0,0,0)"/><rect width="264" height="280" fill="#724133"/></g></g><g transform="translate(62 85)"><g transform="translate(6 7)"><path d="M25,41H22.242C8.315,41,0,33.337,0,20.5,0,10.127,1.817,0,23.53,0h2.94C48.183,0,50,10.127,50,20.5,50,32.57,39.72,41,25,41ZM23.386,6C4,6,4,12.841,4,21.5,4,28.572,7.117,37,21.971,37H25c12.364,0,21-6.373,21-15.5C46,12.841,46,6,26.615,6Z" transform="translate(9)" fill="#252c2f"/><path d="M25,41H22.242C8.315,41,0,33.337,0,20.5,0,10.127,1.817,0,23.53,0h2.94C48.183,0,50,10.127,50,20.5,50,32.57,39.72,41,25,41ZM23.386,6C4,6,4,12.841,4,21.5,4,28.572,7.117,37,21.971,37H25c12.364,0,21-6.373,21-15.5C46,12.841,46,6,26.615,6Z" transform="translate(71)" fill="#252c2f"/><path d="M2.955,5.772C3.646,5.1,11.21,0,32.5,0,50.351,0,54.13,1.853,59.85,4.652l.419.207a17.013,17.013,0,0,0,4.81.907A17,17,0,0,0,69.642,4.9C76.17,1.722,82.561,0,97.5,0c21.29,0,28.854,5.1,29.545,5.772A2.918,2.918,0,0,1,130,8.657v2.886a2.918,2.918,0,0,1-2.955,2.886s-6.9,0-6.9,2.886-1.962-4.176-1.962-5.772V8.732A52.781,52.781,0,0,0,97.5,4.786c-11.842,0-17.739,2.1-22.8,4.185l.057.136,0,1.986-2.217,5.35L69.8,15.361a13.034,13.034,0,0,0-1.5-.451,13.87,13.87,0,0,0-5.992-.276,7.915,7.915,0,0,0-1.891.632L57.77,16.558,55.127,11.4,55.244,9.1l.081-.195C50.962,6.874,46.939,4.786,32.5,4.786A52.791,52.791,0,0,0,11.818,8.731v2.812c0,1.6-2.955,8.657-2.955,5.772s-5.909-2.886-5.909-2.886A2.92,2.92,0,0,1,0,11.543V8.657A2.92,2.92,0,0,1,2.955,5.772Z" fill="#252c2f"/></g></g></g></g></svg>