<svg xmlns="http://www.w3.org/2000/svg" xmlns:xlink="http://www.w3.org/1999/xlink" width="264" height="280" viewBox="0 0 264 280"><defs><clipPath id="a"><path d="M0,244v-9a72,72,0,0,1,72-72h4V144.611a56.038,56.038,0,0,1-31.694-44.73A12,12,0,0,1,34,88V74A12,12,0,0,1,44,62.166V56a56,56,0,0,1,112,0v6.166A12,12,0,0,1,166,74V88a12,12,0,0,1-10.305,11.881A56.038,56.038,0,0,1,124,144.611V163h4a72,72,0,0,1,72,72v9Z" fill="#d0c6ac"/></clipPath><clipPath id="b"><path d="M200,78H0V69.052A72.05,72.05,0,0,1,51.534,0,18.064,18.064,0,0,0,51,4.348c0,7.874,5.149,15.277,14.5,20.845s21.78,8.634,35,8.634,25.652-3.066,35-8.634S150,12.222,150,4.348A18.045,18.045,0,0,0,149.544.33,71.927,71.927,0,0,1,200,69.052V78Z" transform="translate(32 32)" fill="#e6e6e6"/></clipPath><clipPath id="c"><path d="M.019,2.609C1.429,12.231,12.081,20,25.019,20c12.968,0,23.646-7.817,25-18.261C50.12,1.34,49.794,0,47.845,0H2.193C.4,0-.111,1.24.019,2.609Z" transform="translate(28.981 13)" fill="rgba(0,0,0,0.7)"/></clipPath><clipPath id="d"><rect width="264" height="280" fill="none"/></clipPath><clipPath id="e"><path d="M1.268,95.7A33.456,33.456,0,0,1,.023,85.481,67.676,67.676,0,0,1,6.357,59.648c7.66-16,16.588-26.81,31.68-30.618q1.423-.359,2.9-.693A15.043,15.043,0,0,1,36,17.5C36,7.835,46.3,0,59,0S82,7.835,82,17.5a15.025,15.025,0,0,1-4.884,10.783,65.515,65.515,0,0,1,16.193,6.724c20.187,11.7,23.874,38.105,24.592,48.153a45.088,45.088,0,0,1-1.15,13.279c-.588,2.549-1.66,2.613-2.132-.237-1.242-7.493.628-15.986-3.437-22.9C107.749,67.461,96.235,40.136,59,41.671S17.188,60.521,10.787,68.848c-2.586,3.365-4.276,7.689-5.6,11.677a34.528,34.528,0,0,0-1.651,8.59,40.344,40.344,0,0,0-.112,4.722c.059,1.2.667,2.747.5,3.871C3.784,98.644,3.545,99,3.264,99,2.53,99,1.511,96.573,1.268,95.7Z" transform="translate(74)" fill="#28354b"/></clipPath></defs><g transform="translate(32 36)"><path d="M0,244v-9a72,72,0,0,1,72-72h4V144.611a56.038,56.038,0,0,1-31.694-44.73A12,12,0,0,1,34,88V74A12,12,0,0,1,44,62.166V56a56,56,0,0,1,112,0v6.166A12,12,0,0,1,166,74V88a12,12,0,0,1-10.305,11.881A56.038,56.038,0,0,1,124,144.611V163h4a72,72,0,0,1,72,72v9Z" fill="#d0c6ac"/><g clip-path="url(#a)"><g transform="translate(-32)"><rect width="264" height="244" fill="rgba(0,0,0,0)"/><rect width="244" height="244" fill="#d08b5b"/></g><path d="M56,79A55.825,55.825,0,0,1,16.4,62.6,55.825,55.825,0,0,1,0,23V15.477a56,56,0,0,0,112-.451V23A56.063,56.063,0,0,1,77.8,74.6,55.65,55.65,0,0,1,56,79Z" transform="translate(44 79)" fill="rgba(0,0,0,0.1)"/></g></g><g transform="translate(0 170)"><path d="M200,78H0V69.052A72.05,72.05,0,0,1,51.534,0,18.064,18.064,0,0,0,51,4.348c0,7.874,5.149,15.277,14.5,20.845s21.78,8.634,35,8.634,25.652-3.066,35-8.634S150,12.222,150,4.348A18.045,18.045,0,0,0,149.544.33,71.927,71.927,0,0,1,200,69.052V78Z" transform="translate(32 32)" fill="#e6e6e6"/><g clip-path="url(#b)"><rect width="264" height="110" fill="rgba(0,0,0,0)"/><rect width="264" height="110" fill="#fff"/></g></g><g transform="translate(76 82)"><g transform="translate(2 52)"><path d="M.019,2.609C1.429,12.231,12.081,20,25.019,20c12.968,0,23.646-7.817,25-18.261C50.12,1.34,49.794,0,47.845,0H2.193C.4,0-.111,1.24.019,2.609Z" transform="translate(28.981 13)" fill="rgba(0,0,0,0.7)"/><g clip-path="url(#c)"><rect width="31" height="16" rx="5" transform="translate(39 2)" fill="#fff"/></g><path d="M0,12.5V2.92a.922.922,0,0,1,.564-.849C1.58.851,3.855,0,6.5,0a9.45,9.45,0,0,1,5,1.263A9.451,9.451,0,0,1,16.5,0c2.645,0,4.921.85,5.936,2.071A.92.92,0,0,1,23,2.92V12.5a11.5,11.5,0,1,1-23,0Z" transform="translate(43 20)" fill="#ff4f6d"/></g><g transform="translate(28 40)"><path d="M0,0C0,4.418,5.373,8,12,8h0c6.627,0,12-3.582,12-8" transform="translate(16 8)" fill="rgba(0,0,0,0.16)"/></g><g transform="translate(0 8)"><circle cx="12" cy="12" r="12" transform="translate(70 10)" fill="#fff"/><circle cx="6" cy="6" r="6" transform="translate(76 16)" fill="rgba(0,0,0,0.7)"/><path d="M.16,6.447A11.947,11.947,0,0,1,11,0,11.953,11.953,0,0,1,21.815,6.407c.551,1.122-.233,2.04-1.025,1.36A15.047,15.047,0,0,0,11,4.344a15.126,15.126,0,0,0-9.56,3.228C.547,8.3-.38,7.558.16,6.447Z" transform="translate(16 19)" fill="rgba(0,0,0,0.6)"/></g><g transform="translate(12 6)"><path d="M3.63,11.08c3.915-5.509,14.648-8.6,23.893-6.327A2,2,0,1,0,28.477.868C17.741-1.768,5.312,1.809.37,8.763A2,2,0,0,0,3.63,11.08Z" transform="translate(0 0.078)" fill="rgba(0,0,0,0.6)"/><path d="M-3.63,11.08c-3.915-5.509-14.648-8.6-23.893-6.327a2,2,0,0,1-2.419-1.465A2,2,0,0,1-28.477.868C-17.741-1.768-5.312,1.809-.37,8.763a2,2,0,0,1-.472,2.789A2,2,0,0,1-3.63,11.08Z" transform="translate(88 0.078)" fill="rgba(0,0,0,0.6)"/></g></g><rect width="264" height="280" fill="none"/><g clip-path="url(#d)"><g transform="translate(-1)"><path d="M1.268,95.7A33.456,33.456,0,0,1,.023,85.481,67.676,67.676,0,0,1,6.357,59.648c7.66-16,16.588-26.81,31.68-30.618q1.423-.359,2.9-.693A15.043,15.043,0,0,1,36,17.5C36,7.835,46.3,0,59,0S82,7.835,82,17.5a15.025,15.025,0,0,1-4.884,10.783,65.515,65.515,0,0,1,16.193,6.724c20.187,11.7,23.874,38.105,24.592,48.153a45.088,45.088,0,0,1-1.15,13.279c-.588,2.549-1.66,2.613-2.132-.237-1.242-7.493.628-15.986-3.437-22.9C107.749,67.461,96.235,40.136,59,41.671S17.188,60.521,10.787,68.848c-2.586,3.365-4.276,7.689-5.6,11.677a34.528,34.528,0,0,0-1.651,8.59,40.344,40.344,0,0,0-.112,4.722c.059,1.2.667,2.747.5,3.871C3.784,98.644,3.545,99,3.264,99,2.53,99,1.511,96.573,1.268,95.7Z" transform="translate(74)" fill="#28354b"/><g clip-path="url(#e)"><g transform="translate(1)"><rect width="264" height="280" fill="rgba(0,0,0,0)"/><rect width="264" height="280" fill="#724133"/></g></g></g></g></svg>