<svg xmlns="http://www.w3.org/2000/svg" xmlns:xlink="http://www.w3.org/1999/xlink" width="264" height="280" viewBox="0 0 264 280"><defs><clipPath id="a"><path d="M0,244v-9a72,72,0,0,1,72-72h4V144.611a56.038,56.038,0,0,1-31.694-44.73A12,12,0,0,1,34,88V74A12,12,0,0,1,44,62.166V56a56,56,0,0,1,112,0v6.166A12,12,0,0,1,166,74V88a12,12,0,0,1-10.305,11.881A56.038,56.038,0,0,1,124,144.611V163h4a72,72,0,0,1,72,72v9Z" fill="#d0c6ac"/></clipPath><clipPath id="b"><path d="M200,80.8H0V71.852A71.951,71.951,0,0,1,67.393,0,14.156,14.156,0,0,0,67,3.3c0,5.743,3.485,11.142,9.812,15.2s14.74,6.3,23.689,6.3,17.361-2.236,23.688-6.3S134,9.044,134,3.3a14.154,14.154,0,0,0-.376-3.232A72.007,72.007,0,0,1,200,71.852V80.8Z" transform="translate(32 29.199)" fill="#e6e6e6"/></clipPath><clipPath id="c"><path d="M.019,2.609C1.429,12.231,12.081,20,25.019,20c12.968,0,23.646-7.817,25-18.261C50.12,1.34,49.794,0,47.845,0H2.193C.4,0-.111,1.24.019,2.609Z" transform="translate(28.981 13)" fill="rgba(0,0,0,0.7)"/></clipPath><clipPath id="d"><rect width="264" height="280" fill="none"/></clipPath><clipPath id="e"><path d="M142.408,191.112c-.812-.313-1.622-.669-2.408-1.057v-9.444a56.188,56.188,0,0,0,31.791-45.744A12.071,12.071,0,0,0,182,123V110a12.011,12.011,0,0,0-1.324-5.5c-2.7-.8-5.676-3.053-8.655-6.328l-.021,0v-.019c-6.845-7.538-13.712-20.484-17.333-33.709a259.685,259.685,0,0,1-38.313,2.649,258.175,258.175,0,0,1-38.984-2.752C73.755,77.6,66.866,90.6,60,98.156v.011l-.012,0c-2.984,3.281-5.962,5.533-8.666,6.333A12.006,12.006,0,0,0,50,110v13a12.071,12.071,0,0,0,10.209,11.867A56.188,56.188,0,0,0,92,180.611v9.443c-.807.4-1.617.754-2.408,1.058a27.936,27.936,0,0,1-20.936-.3,30.66,30.66,0,0,1-9.213-6.052A40.466,40.466,0,0,1,55,185a41.821,41.821,0,0,1-24.946-8.384,51.14,51.14,0,0,1-16.675-21.733,27.419,27.419,0,0,1-7.544-9.8A31.283,31.283,0,0,1,3,132a32.118,32.118,0,0,1,.426-5.224,64.815,64.815,0,0,1-.768-39.162,59.829,59.829,0,0,1,7.388-15.89C10.015,71.164,10,70.583,10,70a30.9,30.9,0,0,1,3.757-14.9A26.121,26.121,0,0,1,23.53,44.958a52.914,52.914,0,0,1,16.361-21.7A43.643,43.643,0,0,1,64.3,14.057,22.893,22.893,0,0,1,81.5,6a21.523,21.523,0,0,1,2.811.183,84.3,84.3,0,0,1,63.377,0A21.568,21.568,0,0,1,150.5,6a22.9,22.9,0,0,1,17.2,8.057,43.648,43.648,0,0,1,24.412,9.205,52.91,52.91,0,0,1,16.361,21.7A26.121,26.121,0,0,1,218.244,55.1,30.9,30.9,0,0,1,222,70c0,.588-.015,1.168-.046,1.725a59.763,59.763,0,0,1,7.388,15.89,64.809,64.809,0,0,1-.769,39.163A32.016,32.016,0,0,1,229,132a31.29,31.29,0,0,1-2.835,13.086,27.43,27.43,0,0,1-7.543,9.8,51.14,51.14,0,0,1-16.675,21.733,41.249,41.249,0,0,1-29.389,8.141,30.66,30.66,0,0,1-9.213,6.052,27.936,27.936,0,0,1-20.936.3Z" fill="#314756"/></clipPath></defs><g transform="translate(32 36)"><path d="M0,244v-9a72,72,0,0,1,72-72h4V144.611a56.038,56.038,0,0,1-31.694-44.73A12,12,0,0,1,34,88V74A12,12,0,0,1,44,62.166V56a56,56,0,0,1,112,0v6.166A12,12,0,0,1,166,74V88a12,12,0,0,1-10.305,11.881A56.038,56.038,0,0,1,124,144.611V163h4a72,72,0,0,1,72,72v9Z" fill="#d0c6ac"/><g clip-path="url(#a)"><g transform="translate(-32)"><rect width="264" height="244" fill="rgba(0,0,0,0)"/><rect width="244" height="244" fill="#614335"/></g><path d="M56,79A55.825,55.825,0,0,1,16.4,62.6,55.825,55.825,0,0,1,0,23V15.477a56,56,0,0,0,112-.451V23A56.063,56.063,0,0,1,77.8,74.6,55.65,55.65,0,0,1,56,79Z" transform="translate(44 79)" fill="rgba(0,0,0,0.1)"/></g></g><g transform="translate(0 170)"><path d="M200,80.8H0V71.852A71.951,71.951,0,0,1,67.393,0,14.156,14.156,0,0,0,67,3.3c0,5.743,3.485,11.142,9.812,15.2s14.74,6.3,23.689,6.3,17.361-2.236,23.688-6.3S134,9.044,134,3.3a14.154,14.154,0,0,0-.376-3.232A72.007,72.007,0,0,1,200,71.852V80.8Z" transform="translate(32 29.199)" fill="#e6e6e6"/><g clip-path="url(#b)"><rect width="264" height="110" fill="rgba(0,0,0,0)"/><rect width="264" height="110" fill="#65c9ff"/><g transform="translate(77 58)"><text transform="translate(55.5 33)" fill="#fff" font-size="28" font-family="SegoeUI, Segoe UI" letter-spacing="-0.016em"><tspan x="-31.717" y="0">Hola!</tspan></text></g></g></g><g transform="translate(76 82)"><g transform="translate(2 52)"><path d="M.019,2.609C1.429,12.231,12.081,20,25.019,20c12.968,0,23.646-7.817,25-18.261C50.12,1.34,49.794,0,47.845,0H2.193C.4,0-.111,1.24.019,2.609Z" transform="translate(28.981 13)" fill="rgba(0,0,0,0.7)"/><g clip-path="url(#c)"><rect width="31" height="16" rx="5" transform="translate(39 2)" fill="#fff"/></g><path d="M0,12.5V2.92a.922.922,0,0,1,.564-.849C1.58.851,3.855,0,6.5,0a9.45,9.45,0,0,1,5,1.263A9.451,9.451,0,0,1,16.5,0c2.645,0,4.921.85,5.936,2.071A.92.92,0,0,1,23,2.92V12.5a11.5,11.5,0,1,1-23,0Z" transform="translate(43 20)" fill="#ff4f6d"/></g><g transform="translate(28 40)"><path d="M0,0C0,4.418,5.373,8,12,8h0c6.627,0,12-3.582,12-8" transform="translate(16 8)" fill="rgba(0,0,0,0.16)"/></g><g transform="translate(0 8)"><circle cx="6" cy="6" r="6" transform="translate(24 16)" fill="rgba(0,0,0,0.6)"/><circle cx="6" cy="6" r="6" transform="translate(76 16)" fill="rgba(0,0,0,0.6)"/></g><g transform="translate(12 6)"><path d="M3.63,11.08c3.915-5.509,14.648-8.6,23.893-6.327A2,2,0,1,0,28.477.868C17.741-1.768,5.312,1.809.37,8.763A2,2,0,0,0,3.63,11.08Z" transform="translate(0 0.078)" fill="rgba(0,0,0,0.6)"/><path d="M-3.63,11.08c-3.915-5.509-14.648-8.6-23.893-6.327a2,2,0,0,1-2.419-1.465A2,2,0,0,1-28.477.868C-17.741-1.768-5.312,1.809-.37,8.763a2,2,0,0,1-.472,2.789A2,2,0,0,1-3.63,11.08Z" transform="translate(88 0.078)" fill="rgba(0,0,0,0.6)"/></g></g><rect width="264" height="280" fill="none"/><g clip-path="url(#d)"><g transform="translate(-1)"><path d="M0,54.893A65.943,65.943,0,0,1,29.343,0a53.418,53.418,0,0,1,1.046,8.286A264.922,264.922,0,0,1,66.353,5.98a266.482,266.482,0,0,1,35.271,2.21,53.338,53.338,0,0,1,1.04-8.185A65.936,65.936,0,0,1,132,54.893V75.669c-9.021-1.07-21.871-20.386-27.333-40.338a259.706,259.706,0,0,1-38.314,2.649A258.18,258.18,0,0,1,27.37,35.227C21.922,55.223,9.037,74.61,0,75.67Z" transform="translate(67 34.107)" fill="rgba(0,0,0,0.16)"/><g transform="translate(17)"><path d="M142.408,191.112c-.812-.313-1.622-.669-2.408-1.057v-9.444a56.188,56.188,0,0,0,31.791-45.744A12.071,12.071,0,0,0,182,123V110a12.011,12.011,0,0,0-1.324-5.5c-2.7-.8-5.676-3.053-8.655-6.328l-.021,0v-.019c-6.845-7.538-13.712-20.484-17.333-33.709a259.685,259.685,0,0,1-38.313,2.649,258.175,258.175,0,0,1-38.984-2.752C73.755,77.6,66.866,90.6,60,98.156v.011l-.012,0c-2.984,3.281-5.962,5.533-8.666,6.333A12.006,12.006,0,0,0,50,110v13a12.071,12.071,0,0,0,10.209,11.867A56.188,56.188,0,0,0,92,180.611v9.443c-.807.4-1.617.754-2.408,1.058a27.936,27.936,0,0,1-20.936-.3,30.66,30.66,0,0,1-9.213-6.052A40.466,40.466,0,0,1,55,185a41.821,41.821,0,0,1-24.946-8.384,51.14,51.14,0,0,1-16.675-21.733,27.419,27.419,0,0,1-7.544-9.8A31.283,31.283,0,0,1,3,132a32.118,32.118,0,0,1,.426-5.224,64.815,64.815,0,0,1-.768-39.162,59.829,59.829,0,0,1,7.388-15.89C10.015,71.164,10,70.583,10,70a30.9,30.9,0,0,1,3.757-14.9A26.121,26.121,0,0,1,23.53,44.958a52.914,52.914,0,0,1,16.361-21.7A43.643,43.643,0,0,1,64.3,14.057,22.893,22.893,0,0,1,81.5,6a21.523,21.523,0,0,1,2.811.183,84.3,84.3,0,0,1,63.377,0A21.568,21.568,0,0,1,150.5,6a22.9,22.9,0,0,1,17.2,8.057,43.648,43.648,0,0,1,24.412,9.205,52.91,52.91,0,0,1,16.361,21.7A26.121,26.121,0,0,1,218.244,55.1,30.9,30.9,0,0,1,222,70c0,.588-.015,1.168-.046,1.725a59.763,59.763,0,0,1,7.388,15.89,64.809,64.809,0,0,1-.769,39.163A32.016,32.016,0,0,1,229,132a31.29,31.29,0,0,1-2.835,13.086,27.43,27.43,0,0,1-7.543,9.8,51.14,51.14,0,0,1-16.675,21.733,41.249,41.249,0,0,1-29.389,8.141,30.66,30.66,0,0,1-9.213,6.052,27.936,27.936,0,0,1-20.936.3Z" fill="#314756"/><g clip-path="url(#e)"><g transform="translate(-16)"><rect width="264" height="280" fill="rgba(0,0,0,0)"/><rect width="264" height="280" fill="#2c1b18"/></g></g></g></g></g></svg>