<svg xmlns="http://www.w3.org/2000/svg" xmlns:xlink="http://www.w3.org/1999/xlink" width="264" height="280" viewBox="0 0 264 280"><defs><clipPath id="a"><path d="M0,244v-9a72,72,0,0,1,72-72h4V144.611a56.038,56.038,0,0,1-31.694-44.73A12,12,0,0,1,34,88V74A12,12,0,0,1,44,62.166V56a56,56,0,0,1,112,0v6.166A12,12,0,0,1,166,74V88a12,12,0,0,1-10.305,11.881A56.038,56.038,0,0,1,124,144.611V163h4a72,72,0,0,1,72,72v9Z" fill="#d0c6ac"/></clipPath><clipPath id="b"><path d="M200,80.8H0V71.852A71.951,71.951,0,0,1,67.393,0,14.156,14.156,0,0,0,67,3.3c0,5.743,3.485,11.142,9.812,15.2s14.74,6.3,23.689,6.3,17.361-2.236,23.688-6.3S134,9.044,134,3.3a14.154,14.154,0,0,0-.376-3.232A72.007,72.007,0,0,1,200,71.852V80.8Z" transform="translate(32 29.199)" fill="#e6e6e6"/></clipPath><clipPath id="c"><path d="M.008,2.128A19,19,0,0,0,18.89,19,19,19,0,0,0,37.782,2.04,2.1,2.1,0,0,0,35.933,0H1.977A2.132,2.132,0,0,0,.008,2.128Z" transform="translate(35.11 13)" fill="rgba(0,0,0,0.7)"/></clipPath><clipPath id="d"><rect width="264" height="280" fill="none"/></clipPath><clipPath id="e"><path d="M60.5,120a46.529,46.529,0,0,1-13.823-2.038,29.976,29.976,0,0,1-10.311-5.418,28.82,28.82,0,0,1-8.556-2.152,22.621,22.621,0,0,1-7.083-4.655,16.177,16.177,0,0,1-2.564-3.7,15.34,15.34,0,0,0-2.345-3.421c-.35-.35-.7-.69-1.031-1.018a26.456,26.456,0,0,1-4.4-5.151A47.645,47.645,0,0,1,6.032,81.141a87.2,87.2,0,0,1-2.46-11.949,33.414,33.414,0,0,1,.084-5.268C3.823,61.258,4,58.5,3.519,56.7c-.834-3.141-1.5-5.935-2.049-8.541A67.367,67.367,0,0,1,.138,29.985,132.546,132.546,0,0,1,2.275,15c.162-.889.329-1.808.49-2.715.05-.284.143-.873.26-1.619C3.569,7.2,4.7,0,5.265,0c.2,8.026.841,16.4,2.066,27.139q.053.461.105.922c.271,2.362.55,4.8.739,7.213.062.8.062,1.636.061,2.525a18.909,18.909,0,0,0,.337,4.446c.652,2.605,3.931,5.18,6.725,6.165a6.2,6.2,0,0,0,2.066.359c3.481,0,6.683-2.973,9.78-5.848a28.043,28.043,0,0,1,5.9-4.631,32.913,32.913,0,0,1,14.209-3.044c3.681,0,8.981.569,13.333,3.282a20.012,20.012,0,0,1,6.144-2.5,30.582,30.582,0,0,1,7.049-.781,32.852,32.852,0,0,1,14.186,3.044,28.041,28.041,0,0,1,5.9,4.631c3.1,2.875,6.3,5.848,9.781,5.848a6.2,6.2,0,0,0,2.066-.359c2.793-.984,6.071-3.56,6.725-6.165a18.911,18.911,0,0,0,.336-4.449c0-.887,0-1.726.061-2.522.189-2.407.468-4.847.739-7.206l0-.017q.052-.456.1-.912c1.223-10.733,1.86-19.1,2.065-27.139.565,0,1.7,7.2,2.239,10.665.117.748.21,1.337.26,1.621.162.913.329,1.83.491,2.718a132.694,132.694,0,0,1,2.138,14.981,67.439,67.439,0,0,1-1.332,18.178c-.546,2.607-1.216,5.4-2.049,8.541-.478,1.8-.3,4.555-.138,7.221a33.412,33.412,0,0,1,.084,5.267,87.121,87.121,0,0,1-2.459,11.949,47.663,47.663,0,0,1-4.351,11.309,26.475,26.475,0,0,1-4.4,5.147c-.335.329-.682.669-1.034,1.022a15.338,15.338,0,0,0-2.347,3.423,16.18,16.18,0,0,1-2.563,3.695,22.628,22.628,0,0,1-7.084,4.655,28.822,28.822,0,0,1-8.556,2.152,29.977,29.977,0,0,1-10.311,5.418A46.529,46.529,0,0,1,60.5,120Zm0-73.219a8.956,8.956,0,0,1-1.743,1.309c-1.111.656-4.559,1.135-8.208,1.643l-.02,0c-4.03.562-8.2,1.142-9.349,2a10.824,10.824,0,0,0-3.647,8.413,14.477,14.477,0,0,0,3.343,7.483,15.218,15.218,0,0,0,10.451,5.547,12.808,12.808,0,0,1,18.347,0,15.215,15.215,0,0,0,10.449-5.547,14.489,14.489,0,0,0,3.344-7.483,10.83,10.83,0,0,0-3.647-8.413c-1.152-.862-5.321-1.442-9.352-2l-.018,0c-3.649-.507-7.1-.987-8.208-1.643A8.966,8.966,0,0,1,60.5,46.781Z" transform="translate(24 26)" fill="#5e7aa9"/></clipPath><clipPath id="f"><path d="M-128.747,14.709c5.141-3.832,11.219-7.117,17.559-8.378,6.447-1.282,10.358-1.594,16.7-.073,1.633.391,2.184.78,3.621-.148,1.211-.782,9.662-9.49,35.42-4.657,26.035,4.885,33.769,44.075,43.426,45.566,3.48.537,7.782-.385,7.916-2.527A27.526,27.526,0,0,1-.772,65.566c-1.447,6.086-4.5,11.8-9.989,15.137A28.706,28.706,0,0,1-27.482,84.29a22.4,22.4,0,0,1-7.032-1.766c-2.759-1.209-4.957-3.391-7.664-4.543A53.849,53.849,0,0,0-33,84.4a22.6,22.6,0,0,0,5.113,2.024c1.235.336,3.761,1.481,4.956,1.182a36.313,36.313,0,0,1-22.32-3.163,51.673,51.673,0,0,1-9.191-5.477c-2.833-2.13-6.094-4.306-8.311-7.109.93,1.2-.7-.587-.912-.806q-.912-.93-1.787-1.9c-1-1.1-2-2.228-2.931-3.391a73.954,73.954,0,0,1-5.507-7.8c-1.677-2.756-8.359-13.873-10.375-16.49,1.905,5.708,3.98,11.418,6.408,16.925-4.714-1.47-9.284-5.544-12.3-9.341a29.462,29.462,0,0,1-6.108-14.666c-3.825,10.416-12.785,18.63-22.032,24.295,2-3.73,5.056-6.885,7.052-10.678-9.191,9.329-24.568,13.893-28.6,27.574-1.032-4.757-4.353-8.581-5.347-13.433a72.619,72.619,0,0,1-1.721-16.616C-146.508,33.291-138.274,21.811-128.747,14.709Z" transform="translate(216.93 23.147)" fill="#28354b"/></clipPath></defs><g transform="translate(32 36)"><path d="M0,244v-9a72,72,0,0,1,72-72h4V144.611a56.038,56.038,0,0,1-31.694-44.73A12,12,0,0,1,34,88V74A12,12,0,0,1,44,62.166V56a56,56,0,0,1,112,0v6.166A12,12,0,0,1,166,74V88a12,12,0,0,1-10.305,11.881A56.038,56.038,0,0,1,124,144.611V163h4a72,72,0,0,1,72,72v9Z" fill="#d0c6ac"/><g clip-path="url(#a)"><g transform="translate(-32)"><rect width="264" height="244" fill="rgba(0,0,0,0)"/><rect width="244" height="244" fill="#edb98a"/></g><path d="M56,79A55.825,55.825,0,0,1,16.4,62.6,55.825,55.825,0,0,1,0,23V15.477a56,56,0,0,0,112-.451V23A56.063,56.063,0,0,1,77.8,74.6,55.65,55.65,0,0,1,56,79Z" transform="translate(44 79)" fill="rgba(0,0,0,0.1)"/></g></g><g transform="translate(0 170)"><path d="M200,80.8H0V71.852A71.951,71.951,0,0,1,67.393,0,14.156,14.156,0,0,0,67,3.3c0,5.743,3.485,11.142,9.812,15.2s14.74,6.3,23.689,6.3,17.361-2.236,23.688-6.3S134,9.044,134,3.3a14.154,14.154,0,0,0-.376-3.232A72.007,72.007,0,0,1,200,71.852V80.8Z" transform="translate(32 29.199)" fill="#e6e6e6"/><g clip-path="url(#b)"><rect width="264" height="110" fill="rgba(0,0,0,0)"/><rect width="264" height="110" fill="#262e33"/><g transform="translate(77 58)"><g transform="translate(17)"><path d="M4.531,23.535h0a4.652,4.652,0,0,1-1.265-.18A4.112,4.112,0,0,1,.68,21.326,7.56,7.56,0,0,1,.4,15.684a10.234,10.234,0,0,1,1.726-2.933c.579-.71,1.709-1.9,2.763-1.9.608,0,1.1.4,1.47,1.176a4.845,4.845,0,0,1-.15,3.68A8.192,8.192,0,0,1,2.652,20.1a2.025,2.025,0,0,0,1.7,1.2c1.914,0,4.086-3.386,4.67-4.8A6.9,6.9,0,0,0,9.392,13c-.027-.362-.055-.736-.07-1.144a37.507,37.507,0,0,1,.235-5.287c.015-.144.031-.327.049-.539a22.713,22.713,0,0,1,.551-3.714C10.567.778,11.177,0,11.97,0h.045a1.069,1.069,0,0,1,.8.391c.963,1.129.554,4.462.334,6.253-.053.429-.094.767-.108.988a31.76,31.76,0,0,1-.734,5.437c-.023.1-.048.2-.073.3-.312,1.29-.7,2.9.6,3.895a1.889,1.889,0,0,0,1.16.336,2.653,2.653,0,0,0,2.143-.978c.282-.443.086-1.587-.1-2.694a10.116,10.116,0,0,1-.226-2,13.627,13.627,0,0,1,1.069-3.769c.543-1.238,1.426-2.713,2.546-2.713A1.821,1.821,0,0,1,20.7,6.1c1.939,1.975-.345,8.062-1.35,9.937a2.655,2.655,0,0,0,.566.064c1.124,0,2.063-.813,2.79-2.416a20.463,20.463,0,0,0,1.187-4.07c.037-.174.071-.334.1-.479.058-.265.1-.643.144-1.08.129-1.221.3-2.893,1.073-3.33a1.467,1.467,0,0,1,.716-.217c.994,0,1.418,1.457,1.46,2.436l0-.012C28.05,5.653,29.423,3,31.049,2.7a2.332,2.332,0,0,1,.425-.04c2.019,0,2.79,2.891,3.028,4.135A12.652,12.652,0,0,1,39.161.81,1.972,1.972,0,0,1,40.326.35a2.848,2.848,0,0,1,.7.118,5.1,5.1,0,0,0,.813.154c.1.009.194.013.3.013.167,0,.317-.012.455-.024l.04,0c.118-.01.228-.02.328-.02.444,0,.7.189.961,1.261a9.8,9.8,0,0,1,.159,2.182c0,1.934.006,3.934,2.482,4.3A2.985,2.985,0,0,0,47,8.363a3.97,3.97,0,0,0,2.643-1.286c.072-.066.177-.157.3-.263.741-.648,2.276-1.993,2.276-2.54a4.449,4.449,0,0,1-.79,3.976,5.877,5.877,0,0,1-4.579,2.192,4.807,4.807,0,0,1-3.555-1.491,5.012,5.012,0,0,1-1.89,2.262,4.962,4.962,0,0,1-2.673.906c-1.6,0-2.533-1.1-2.555-3.01-.034.131-.076.322-.129.563-.292,1.326-.9,4.086-1.889,4.086-.343,0-.707-.335-1.082-.995a7.18,7.18,0,0,1-.6-3.383C32.441,7.872,32.4,6.312,31.384,5.2c-2.218,1.955-3.088,4.994-3.6,7.422-.037.175-.066.382-.1.6-.123.87-.275,1.952-1.052,2.269a1.315,1.315,0,0,1-.491.108.825.825,0,0,1-.607-.257,2.535,2.535,0,0,1-.5-1.7,6.859,6.859,0,0,1-2.393,3.509,7.006,7.006,0,0,1-3.939,1.036l-.172,0c-.139,0-.259-.005-.377-.016l-.072-.007c-.05,0-.089-.009-.123-.009-.113,0-.167.043-.394.225-.1.082-.243.195-.442.345a5.772,5.772,0,0,1-1.892.948,4.967,4.967,0,0,1-1.347.191,3.64,3.64,0,0,1-3.2-1.7C9.585,20.766,7.387,23.535,4.531,23.535Zm-.339-9.8a6.215,6.215,0,0,0-1.905,4.039l.383-.614.011-.018A8.934,8.934,0,0,0,4.192,13.736ZM19.03,8.787a8.005,8.005,0,0,0-1,4.946,19.681,19.681,0,0,0,.9-3.595C18.988,9.679,19.02,9.225,19.03,8.787ZM41.4,2.955l-.183.1a3.312,3.312,0,0,0-2.08,2.233c-.128.337-1.232,3.313-.685,4.209a1.025,1.025,0,0,0,.823.6c1.131,0,2.283-2.819,2.407-3.555a10.042,10.042,0,0,0-.144-2.482V4.056L41.53,4c-.049-.343-.1-.707-.13-1.049Z" transform="translate(23.622 1.023)" fill="#fff"/><path d="M42.731,0C39.1,0,35.126,1.026,31.6,1.817A97.993,97.993,0,0,0,21.1,4.788C17.231,6.126,13.29,7.341,9.512,8.909,6.236,10.269,2,11.262,0,14.325c0,.009,2.1-.088,2.273-.117a12.467,12.467,0,0,0,2.917-.956c1.747-.746,3.482-1.519,5.223-2.276,3.9-1.7,7.98-3.1,11.989-4.554A101.285,101.285,0,0,1,34.656,2.8c3.391-.766,7.182-.913,10.3-2.273-.118.044-.041.014.229-.091C45.111.471,42.968,0,42.731,0" transform="translate(26.703 15.349)" fill="#fff"/><path d="M22.117,20.825c-2.269-1-5.478-.558-7.835-.239-2.144.29-5.5.935-6.834,1.107-1.106.141-4.405,1.041-5.009-.2-.649-1.331,2.719-5.4,3.456-6.363,3.315-4.321,7.3-9.12,12.08-11.923-.44,1.951-.825,3.918-1.227,5.876-.165.807-.949,5.164.486,5.507.59.141,1.772-2.783,1.87-3.044a37.357,37.357,0,0,0,1.391-7C20.712,3.238,21.7.5,19.8.047c-1.629-.389-3.836,1.727-4.923,2.618a63.765,63.765,0,0,0-8.787,9.221,49.844,49.844,0,0,0-3.714,5c-.9,1.45-3.089,4.49-2.145,6.282,1.7,3.221,9.84.4,12.431-.032a20.927,20.927,0,0,1,6.228-.377c2.162.3,2.057,1.271,1.338,3.2-1.478,3.96-4.776,7.361-7.724,10.32-1.3,1.3-6.381,7.419-7.66,4.092-.87-2.261-.1-5.035.9-7.114.469-.974,1.089-1.862,1.578-2.825a26.375,26.375,0,0,1,.947-2.473C4.4,29.3,2.153,34.538,1.938,38.24c-.1,1.741.136,4.324,1.8,5.369s3.226-.227,4.549-1.185a63.831,63.831,0,0,0,9.865-9.335c1.626-1.824,8.453-10.286,3.965-12.263" transform="translate(0 0)" fill="#fff"/></g></g></g></g><g transform="translate(76 82)"><g transform="translate(2 52)"><path d="M.008,2.128A19,19,0,0,0,18.89,19,19,19,0,0,0,37.782,2.04,2.1,2.1,0,0,0,35.933,0H1.977A2.132,2.132,0,0,0,.008,2.128Z" transform="translate(35.11 13)" fill="rgba(0,0,0,0.7)"/><g clip-path="url(#c)"><rect width="31" height="16" rx="5" transform="translate(39 2)" fill="#fff"/><g transform="translate(38 24)"><circle cx="11" cy="11" r="11" fill="#ff4f6d"/><circle cx="11" cy="11" r="11" transform="translate(10)" fill="#ff4f6d"/></g></g></g><g transform="translate(28 40)"><path d="M0,0C0,4.418,5.373,8,12,8h0c6.627,0,12-3.582,12-8" transform="translate(16 8)" fill="rgba(0,0,0,0.16)"/></g><g transform="translate(0 8)"><circle cx="6" cy="6" r="6" transform="translate(24 16)" fill="rgba(0,0,0,0.6)"/><circle cx="6" cy="6" r="6" transform="translate(76 16)" fill="rgba(0,0,0,0.6)"/></g><g transform="translate(12 6)"><path d="M3.63,11.08c3.915-5.509,14.648-8.6,23.893-6.327A2,2,0,1,0,28.477.868C17.741-1.768,5.312,1.809.37,8.763A2,2,0,0,0,3.63,11.08Z" transform="translate(0 0.078)" fill="rgba(0,0,0,0.6)"/><path d="M-3.63,11.08c-3.915-5.509-14.648-8.6-23.893-6.327a2,2,0,0,1-2.419-1.465A2,2,0,0,1-28.477.868C-17.741-1.768-5.312,1.809-.37,8.763a2,2,0,0,1-.472,2.789A2,2,0,0,1-3.63,11.08Z" transform="translate(88 0.078)" fill="rgba(0,0,0,0.6)"/></g></g><rect width="264" height="280" fill="none"/><g clip-path="url(#d)"><g transform="translate(-1)"><g transform="translate(49 72)"><path d="M60.5,120a46.529,46.529,0,0,1-13.823-2.038,29.976,29.976,0,0,1-10.311-5.418,28.82,28.82,0,0,1-8.556-2.152,22.621,22.621,0,0,1-7.083-4.655,16.177,16.177,0,0,1-2.564-3.7,15.34,15.34,0,0,0-2.345-3.421c-.35-.35-.7-.69-1.031-1.018a26.456,26.456,0,0,1-4.4-5.151A47.645,47.645,0,0,1,6.032,81.141a87.2,87.2,0,0,1-2.46-11.949,33.414,33.414,0,0,1,.084-5.268C3.823,61.258,4,58.5,3.519,56.7c-.834-3.141-1.5-5.935-2.049-8.541A67.367,67.367,0,0,1,.138,29.985,132.546,132.546,0,0,1,2.275,15c.162-.889.329-1.808.49-2.715.05-.284.143-.873.26-1.619C3.569,7.2,4.7,0,5.265,0c.2,8.026.841,16.4,2.066,27.139q.053.461.105.922c.271,2.362.55,4.8.739,7.213.062.8.062,1.636.061,2.525a18.909,18.909,0,0,0,.337,4.446c.652,2.605,3.931,5.18,6.725,6.165a6.2,6.2,0,0,0,2.066.359c3.481,0,6.683-2.973,9.78-5.848a28.043,28.043,0,0,1,5.9-4.631,32.913,32.913,0,0,1,14.209-3.044c3.681,0,8.981.569,13.333,3.282a20.012,20.012,0,0,1,6.144-2.5,30.582,30.582,0,0,1,7.049-.781,32.852,32.852,0,0,1,14.186,3.044,28.041,28.041,0,0,1,5.9,4.631c3.1,2.875,6.3,5.848,9.781,5.848a6.2,6.2,0,0,0,2.066-.359c2.793-.984,6.071-3.56,6.725-6.165a18.911,18.911,0,0,0,.336-4.449c0-.887,0-1.726.061-2.522.189-2.407.468-4.847.739-7.206l0-.017q.052-.456.1-.912c1.223-10.733,1.86-19.1,2.065-27.139.565,0,1.7,7.2,2.239,10.665.117.748.21,1.337.26,1.621.162.913.329,1.83.491,2.718a132.694,132.694,0,0,1,2.138,14.981,67.439,67.439,0,0,1-1.332,18.178c-.546,2.607-1.216,5.4-2.049,8.541-.478,1.8-.3,4.555-.138,7.221a33.412,33.412,0,0,1,.084,5.267,87.121,87.121,0,0,1-2.459,11.949,47.663,47.663,0,0,1-4.351,11.309,26.475,26.475,0,0,1-4.4,5.147c-.335.329-.682.669-1.034,1.022a15.338,15.338,0,0,0-2.347,3.423,16.18,16.18,0,0,1-2.563,3.695,22.628,22.628,0,0,1-7.084,4.655,28.822,28.822,0,0,1-8.556,2.152,29.977,29.977,0,0,1-10.311,5.418A46.529,46.529,0,0,1,60.5,120Zm0-73.219a8.956,8.956,0,0,1-1.743,1.309c-1.111.656-4.559,1.135-8.208,1.643l-.02,0c-4.03.562-8.2,1.142-9.349,2a10.824,10.824,0,0,0-3.647,8.413,14.477,14.477,0,0,0,3.343,7.483,15.218,15.218,0,0,0,10.451,5.547,12.808,12.808,0,0,1,18.347,0,15.215,15.215,0,0,0,10.449-5.547,14.489,14.489,0,0,0,3.344-7.483,10.83,10.83,0,0,0-3.647-8.413c-1.152-.862-5.321-1.442-9.352-2l-.018,0c-3.649-.507-7.1-.987-8.208-1.643A8.966,8.966,0,0,1,60.5,46.781Z" transform="translate(24 26)" fill="#5e7aa9"/><g clip-path="url(#e)"><rect width="168" height="152" fill="rgba(0,0,0,0)"/><rect width="168" height="152" fill="#724133"/></g></g><g transform="translate(62 86)"><g transform="translate(6 7)"><path d="M25,41H22.242C8.315,41,0,33.337,0,20.5,0,10.127,1.817,0,23.53,0h2.94C48.183,0,50,10.127,50,20.5,50,32.57,39.72,41,25,41ZM23.386,6C4,6,4,12.841,4,21.5,4,28.572,7.117,37,21.971,37H25c12.364,0,21-6.373,21-15.5C46,12.841,46,6,26.615,6Z" transform="translate(9)" fill="#252c2f"/><path d="M25,41H22.242C8.315,41,0,33.337,0,20.5,0,10.127,1.817,0,23.53,0h2.94C48.183,0,50,10.127,50,20.5,50,32.57,39.72,41,25,41ZM23.386,6C4,6,4,12.841,4,21.5,4,28.572,7.117,37,21.971,37H25c12.364,0,21-6.373,21-15.5C46,12.841,46,6,26.615,6Z" transform="translate(71)" fill="#252c2f"/><path d="M2.955,5.772C3.646,5.1,11.21,0,32.5,0,50.351,0,54.13,1.853,59.85,4.652l.419.207a17.013,17.013,0,0,0,4.81.907A17,17,0,0,0,69.642,4.9C76.17,1.722,82.561,0,97.5,0c21.29,0,28.854,5.1,29.545,5.772A2.918,2.918,0,0,1,130,8.657v2.886a2.918,2.918,0,0,1-2.955,2.886s-6.9,0-6.9,2.886-1.962-4.176-1.962-5.772V8.732A52.781,52.781,0,0,0,97.5,4.786c-11.842,0-17.739,2.1-22.8,4.185l.057.136,0,1.986-2.217,5.35L69.8,15.361a13.034,13.034,0,0,0-1.5-.451,13.87,13.87,0,0,0-5.992-.276,7.915,7.915,0,0,0-1.891.632L57.77,16.558,55.127,11.4,55.244,9.1l.081-.195C50.962,6.874,46.939,4.786,32.5,4.786A52.791,52.791,0,0,0,11.818,8.731v2.812c0,1.6-2.955,8.657-2.955,5.772s-5.909-2.886-5.909-2.886A2.92,2.92,0,0,1,0,11.543V8.657A2.92,2.92,0,0,1,2.955,5.772Z" fill="#252c2f"/></g></g><path d="M-128.747,14.709c5.141-3.832,11.219-7.117,17.559-8.378,6.447-1.282,10.358-1.594,16.7-.073,1.633.391,2.184.78,3.621-.148,1.211-.782,9.662-9.49,35.42-4.657,26.035,4.885,33.769,44.075,43.426,45.566,3.48.537,7.782-.385,7.916-2.527A27.526,27.526,0,0,1-.772,65.566c-1.447,6.086-4.5,11.8-9.989,15.137A28.706,28.706,0,0,1-27.482,84.29a22.4,22.4,0,0,1-7.032-1.766c-2.759-1.209-4.957-3.391-7.664-4.543A53.849,53.849,0,0,0-33,84.4a22.6,22.6,0,0,0,5.113,2.024c1.235.336,3.761,1.481,4.956,1.182a36.313,36.313,0,0,1-22.32-3.163,51.673,51.673,0,0,1-9.191-5.477c-2.833-2.13-6.094-4.306-8.311-7.109.93,1.2-.7-.587-.912-.806q-.912-.93-1.787-1.9c-1-1.1-2-2.228-2.931-3.391a73.954,73.954,0,0,1-5.507-7.8c-1.677-2.756-8.359-13.873-10.375-16.49,1.905,5.708,3.98,11.418,6.408,16.925-4.714-1.47-9.284-5.544-12.3-9.341a29.462,29.462,0,0,1-6.108-14.666c-3.825,10.416-12.785,18.63-22.032,24.295,2-3.73,5.056-6.885,7.052-10.678-9.191,9.329-24.568,13.893-28.6,27.574-1.032-4.757-4.353-8.581-5.347-13.433a72.619,72.619,0,0,1-1.721-16.616C-146.508,33.291-138.274,21.811-128.747,14.709Z" transform="translate(216.93 23.147)" fill="#28354b"/><g clip-path="url(#f)"><g transform="translate(1)"><rect width="264" height="280" fill="rgba(0,0,0,0)"/><rect width="264" height="280" fill="#4a312c"/></g></g></g></g></svg>