<svg xmlns="http://www.w3.org/2000/svg" xmlns:xlink="http://www.w3.org/1999/xlink" width="264" height="280" viewBox="0 0 264 280"><defs><clipPath id="a"><path d="M0,244v-9a72,72,0,0,1,72-72h4V144.611a56.038,56.038,0,0,1-31.694-44.73A12,12,0,0,1,34,88V74A12,12,0,0,1,44,62.166V56a56,56,0,0,1,112,0v6.166A12,12,0,0,1,166,74V88a12,12,0,0,1-10.305,11.881A56.038,56.038,0,0,1,124,144.611V163h4a72,72,0,0,1,72,72v9Z" fill="#d0c6ac"/></clipPath><clipPath id="b"><path d="M200,80.8H0V71.852A71.951,71.951,0,0,1,67.393,0,14.156,14.156,0,0,0,67,3.3c0,5.743,3.485,11.142,9.812,15.2s14.74,6.3,23.689,6.3,17.361-2.236,23.688-6.3S134,9.044,134,3.3a14.154,14.154,0,0,0-.376-3.232A72.007,72.007,0,0,1,200,71.852V80.8Z" transform="translate(32 29.199)" fill="#e6e6e6"/></clipPath><clipPath id="c"><rect width="264" height="280" fill="none"/></clipPath><clipPath id="d"><path d="M0,197.608V74a74,74,0,0,1,148,0V197.608A71.708,71.708,0,0,0,102,181H98V162.611a56.031,56.031,0,0,0,31.792-45.744A12,12,0,0,0,140,105V92a12,12,0,0,0-6.493-10.664q-1.166-.424-2.329-.91a11.92,11.92,0,0,0-1.179-.26v-.249c-12.776-5.683-25.122-16.847-33.89-32.033A86.932,86.932,0,0,1,89.066,32.4C80.431,42.941,67.745,53.6,52.341,62.5A149.978,149.978,0,0,1,24,75.266v61.98a56.23,56.23,0,0,0,26,25.365V181H46a71.958,71.958,0,0,0-22,3.423V230A28.007,28.007,0,0,1,0,257.717Z" fill="#944f23"/></clipPath><clipPath id="e"><path d="M34.046,13.689A6.041,6.041,0,0,1,32,11.839a6.042,6.042,0,0,1-2.049,1.85C24,16.908,17.938,16.115,13.075,15.32a31.7,31.7,0,0,0-6.2-.69c-2.417.145-5.536,1.786-6.661.049C-1.023,12.767,3.068,2.22,12.722.464,19.731-.81,29.5.6,32,3.938,34.5.6,44.264-.81,51.274.464c9.654,1.756,13.745,12.3,12.506,14.215-1.125,1.736-4.243.1-6.661-.049a31.7,31.7,0,0,0-6.2.69,43.66,43.66,0,0,1-7.087.707A20.1,20.1,0,0,1,34.046,13.689Z" transform="translate(52 63)" fill="#28354b"/></clipPath></defs><g transform="translate(32 36)"><path d="M0,244v-9a72,72,0,0,1,72-72h4V144.611a56.038,56.038,0,0,1-31.694-44.73A12,12,0,0,1,34,88V74A12,12,0,0,1,44,62.166V56a56,56,0,0,1,112,0v6.166A12,12,0,0,1,166,74V88a12,12,0,0,1-10.305,11.881A56.038,56.038,0,0,1,124,144.611V163h4a72,72,0,0,1,72,72v9Z" fill="#d0c6ac"/><g clip-path="url(#a)"><g transform="translate(-32)"><rect width="264" height="244" fill="rgba(0,0,0,0)"/><rect width="244" height="244" fill="#edb98a"/></g><path d="M56,79A55.825,55.825,0,0,1,16.4,62.6,55.825,55.825,0,0,1,0,23V15.477a56,56,0,0,0,112-.451V23A56.063,56.063,0,0,1,77.8,74.6,55.65,55.65,0,0,1,56,79Z" transform="translate(44 79)" fill="rgba(0,0,0,0.1)"/></g></g><g transform="translate(0 170)"><path d="M200,80.8H0V71.852A71.951,71.951,0,0,1,67.393,0,14.156,14.156,0,0,0,67,3.3c0,5.743,3.485,11.142,9.812,15.2s14.74,6.3,23.689,6.3,17.361-2.236,23.688-6.3S134,9.044,134,3.3a14.154,14.154,0,0,0-.376-3.232A72.007,72.007,0,0,1,200,71.852V80.8Z" transform="translate(32 29.199)" fill="#e6e6e6"/><g clip-path="url(#b)"><rect width="264" height="110" fill="rgba(0,0,0,0)"/><rect width="264" height="110" fill="#262e33"/><g transform="translate(77 58)"><g transform="translate(0 6)"><path d="M10.272,20.249a6.084,6.084,0,0,0,5.18-6.787c-.464-2.725-1.745-.343-2.976.853-1.335,1.3-2.449,2.574-4.536,2.054-3.607-.9-4.858-5.4-3.84-8.48a5.941,5.941,0,0,1,3.479-3.7c1.852-.746,3.2.09,4.748,1.094.288.187,1.729,1.369,1.994,1.249.462-.21.115-2.429.045-2.724A4.806,4.806,0,0,0,11.748.574c-3.333-1.635-7.514.489-9.639,3.055-4.885,5.9-.921,18.164,8.163,16.621" transform="translate(0 3.882)" fill="#fff"/><path d="M6.929,20.383a6.244,6.244,0,0,1-4.588-1.908A8.063,8.063,0,0,1,.248,14.021,35.976,35.976,0,0,1,.119,6.787V6.78C.209,5.307.375,2.566,1.662,1.46a.8.8,0,0,1,.5-.235c.475,0,.714.8.924,1.51.037.126.073.244.109.358A13.112,13.112,0,0,1,3.564,7.7c-.012.32-.024.651-.031.979-.031,1.429-.127,5.78,1.5,7.444a2.154,2.154,0,0,0,1.591.674,3.255,3.255,0,0,0,.908-.141c3.353-.981,3.922-8.48,4.109-10.944.005-.07.011-.145.016-.222.108-1.481.308-4.239,1.5-5.219A.96.96,0,0,1,13.738,0c.466,0,.7.647.956,1.332.057.155.116.315.177.467,1.34,3.294.407,7.286-.663,11.093a14.515,14.515,0,0,1-2.257,4.955A6.071,6.071,0,0,1,7.2,20.378C7.11,20.381,7.018,20.383,6.929,20.383Z" transform="translate(18.441 3.882)" fill="#fff"/><path d="M.9,20.746a5.251,5.251,0,0,0,1.02,1.679c.944.661-.055.708.8-.059.813-.729,1.13-2.718,1.254-3.671.385-2.96-.12-6.108-.087-9.092,1.023,2.218,1.584,4.584,2.385,6.874.554,1.582,1.4,4.8,3.654,4.753,2.443-.055,2.569-3.145,2.895-4.819A69.731,69.731,0,0,1,14.5,9.374c.092,3.91-1.427,11,2.108,13.92.014.013,1.432-4.15,1.466-4.406a44.22,44.22,0,0,0,.108-5.148c.051-3.6.717-8-.3-11.506C17.551,1.1,16.9-.03,15.471,0c-1.825.04-2.233,1.986-2.7,3.3A114.005,114.005,0,0,0,9.416,14.24C8.867,12.559,4.077-2.182.627,3.338c-.555.889-.315,2.218-.338,3.2C.245,8.413.134,10.29.093,12.169c-.062,2.843-.41,5.907.807,8.577" transform="translate(36.882 0)" fill="#fff"/><path d="M2.292,23.294H2.246C1.51,23.259.861,21.8.68,21.348-.357,18.782.013,15.269.339,12.17c.08-.76.156-1.478.206-2.147.12-1.584.768-6.914,4.09-9.006A7.243,7.243,0,0,1,8.453,0a7.265,7.265,0,0,1,4.3,1.319,3.237,3.237,0,0,1,1.38,2.637A6.831,6.831,0,0,1,11.5,8.808a6.124,6.124,0,0,1,3.812,4.15,6.228,6.228,0,0,1-1.233,5.6,10.588,10.588,0,0,1-7.845,3.706,6.784,6.784,0,0,1-3.062-.676c-.026.128-.044.27-.064.42C3.033,22.609,2.944,23.294,2.292,23.294ZM7.6,12.03a4.9,4.9,0,0,0-2.945.724c-.92.733-.932,2.671-.943,4.381,0,.577-.007,1.174-.053,1.637,0,0,.016.007.038.007a38.122,38.122,0,0,0,6.476-1.673,3.572,3.572,0,0,0,1.75-2.829A2.2,2.2,0,0,0,10.594,12.5,9.118,9.118,0,0,0,7.6,12.03ZM9.132,3.96a17.731,17.731,0,0,0-3.753.684l-.007,0-.079.021c-.254.065-.438.113-.537.131l-.936.173a10.655,10.655,0,0,1,.643,3.566c.185-.087.449-.2.75-.333,1.7-.742,4.878-2.122,5.067-3.542a.5.5,0,0,0-.109-.417A1.388,1.388,0,0,0,9.132,3.96Z" transform="translate(57.265 2.912)" fill="#fff"/><path d="M.345,11.989a32.406,32.406,0,0,0,.332,6.305,10.377,10.377,0,0,0,.76,2.162c.611,1.215.31,1.051,1.032.359,2.172-2.082,1.208-8.574,1.156-11.248a24.632,24.632,0,0,0-.512-6.283C2.95,2.723,1.99-.063,1.457,0,.641.1.081,3.931.034,4.694c-.148,2.4.226,4.9.31,7.3" transform="translate(75.706 3.882)" fill="#fff"/><path d="M15.424,22.323c-1.216,0-2.538-4.279-2.9-5.778a15.461,15.461,0,0,1-5.74,1.087c-.331,0-.659-.011-.974-.033-.112-.008-.351-.057-.627-.114A7.329,7.329,0,0,0,4.1,17.309a.277.277,0,0,0-.115.017c-.094.047-.158.229-.221.4a1.02,1.02,0,0,1-.168.35,6.9,6.9,0,0,0-.874,1.089,5.028,5.028,0,0,1-1.354,1.473,2.517,2.517,0,0,1-.929.475c-.208,0-.236-.254-.3-.811-.018-.168-.039-.358-.069-.577a9.506,9.506,0,0,1,.246-3.653,33.3,33.3,0,0,1,2.033-5.221c.274-.6.556-1.222.816-1.828.156-.363.344-.894.562-1.508C4.733,4.707,6.4,0,8.9,0a2.848,2.848,0,0,1,1.819.8c1.381,1.18,1.976,3.128,2.5,4.847l.1.322.053.173c.816,2.647,1.66,5.384,2.373,8.106l.1.364a13.486,13.486,0,0,1,.646,4.174c-.033.581-.412,3.456-.992,3.537A.532.532,0,0,1,15.424,22.323ZM8.922,5.045C8.4,6.118,7.9,7.208,7.429,8.285c-.767,1.743-1.549,3.893-2.238,5.79a14.2,14.2,0,0,1,4.111-.6c.352,0,.69.014,1.005.041.477.04.964.1,1.447.193-.2-.664-.391-1.36-.578-2.033A41.471,41.471,0,0,0,8.922,5.045Z" transform="translate(84.441 2.912)" fill="#fff"/><path d="M3.508,2.462C3.244,1.258,2.693-.83,1.666.349.275,1.946.575,5.522.554,7.526.539,8.978-1,19.589,1.111,19.41a17.937,17.937,0,0,1,.981-1.922A12.357,12.357,0,0,0,3.42,12.765c.365-3.236.783-7.111.088-10.3" transform="translate(105.794 0.971)" fill="#fff"/><path d="M5.282,1.007C3.042-1.721-1.03,1.665.24,4.381c1.729,3.7,7.332-.561,5.042-3.374" transform="translate(102.882 23.294)" fill="#fff"/><path d="M87.134.4c-2.892-.738-6.3-.24-9.249-.151C74.8.338,71.725.51,68.644.6,62.077.8,55.52.695,48.952.641,36.5.538,24.017,1.33,11.57.809,8.9.7,6.024.1,3.371.6,2.644.739.362,1.143.043,1.866c-.336.76,1.4,1.555,2.331,1.955,2.422,1.044,5.329.858,7.9.964,2.93.121,5.886.058,8.818-.014,12.076-.3,24.089-1.343,36.181-1.165,6.975.1,13.937.038,20.912,0,3.319-.018,7,.526,10.272-.062.552-.1,3.763-.855,3.808-1.836C90.285,1.256,87.459.481,87.134.4" transform="translate(7.765 28.147)" fill="#fff"/></g></g></g></g><g transform="translate(76 82)"><g transform="translate(2 52)"><path d="M0,2c0,5.372,6.158,9,14,9S28,7.372,28,2a2.036,2.036,0,0,0-2-2,1.97,1.97,0,0,0-2,2c-1.242,2.938-4.317,4.716-10,5C8.317,6.716,5.242,4.938,4,2A1.97,1.97,0,0,0,2,0,2.036,2.036,0,0,0,0,2Z" transform="translate(40 14)" fill="rgba(0,0,0,0.6)"/></g><g transform="translate(28 40)"><path d="M0,0C0,4.418,5.373,8,12,8h0c6.627,0,12-3.582,12-8" transform="translate(16 8)" fill="rgba(0,0,0,0.16)"/></g><g transform="translate(0 8)"><path d="M.16,6.447A11.947,11.947,0,0,1,11,0,11.953,11.953,0,0,1,21.815,6.407c.551,1.122-.233,2.04-1.025,1.36A15.047,15.047,0,0,0,11,4.344a15.126,15.126,0,0,0-9.56,3.228C.547,8.3-.38,7.558.16,6.447Z" transform="translate(16 16)" fill="rgba(0,0,0,0.6)"/><path d="M.16,6.447A11.947,11.947,0,0,1,11,0,11.953,11.953,0,0,1,21.815,6.407c.551,1.122-.233,2.04-1.025,1.36A15.047,15.047,0,0,0,11,4.344a15.126,15.126,0,0,0-9.56,3.228C.547,8.3-.38,7.558.16,6.447Z" transform="translate(74 16)" fill="rgba(0,0,0,0.6)"/></g><g transform="translate(12 6)"><path d="M3.63,11.08c3.915-5.509,14.648-8.6,23.893-6.327A2,2,0,1,0,28.477.868C17.741-1.768,5.312,1.809.37,8.763A2,2,0,0,0,3.63,11.08Z" transform="translate(0 0.078)" fill="rgba(0,0,0,0.6)"/><path d="M-3.63,11.08c-3.915-5.509-14.648-8.6-23.893-6.327a2,2,0,0,1-2.419-1.465A2,2,0,0,1-28.477.868C-17.741-1.768-5.312,1.809-.37,8.763a2,2,0,0,1-.472,2.789A2,2,0,0,1-3.63,11.08Z" transform="translate(88 0.078)" fill="rgba(0,0,0,0.6)"/></g></g><rect width="264" height="280" fill="none"/><g clip-path="url(#c)"><g transform="translate(-1)"><g transform="translate(59 18)"><path d="M0,197.608V74a74,74,0,0,1,148,0V197.608A71.708,71.708,0,0,0,102,181H98V162.611a56.031,56.031,0,0,0,31.792-45.744A12,12,0,0,0,140,105V92a12,12,0,0,0-6.493-10.664q-1.166-.424-2.329-.91a11.92,11.92,0,0,0-1.179-.26v-.249c-12.776-5.683-25.122-16.847-33.89-32.033A86.932,86.932,0,0,1,89.066,32.4C80.431,42.941,67.745,53.6,52.341,62.5A149.978,149.978,0,0,1,24,75.266v61.98a56.23,56.23,0,0,0,26,25.365V181H46a71.958,71.958,0,0,0-22,3.423V230A28.007,28.007,0,0,1,0,257.717Z" fill="#944f23"/><g clip-path="url(#d)"><g transform="translate(-58 -18)"><rect width="264" height="280" fill="rgba(0,0,0,0)"/><rect width="264" height="280" fill="#a55728"/></g></g></g><path d="M126.326,197.608h0v0a72.1,72.1,0,0,0-46-16.606h-4V162.611a56.185,56.185,0,0,0,31.791-45.744A12.064,12.064,0,0,0,118.326,105V92a11.967,11.967,0,0,0-6.493-10.664,44.523,44.523,0,0,0,14.493,2.813Zm-124-13.184V137.246a56.412,56.412,0,0,0,26,25.365V181h-4a71.972,71.972,0,0,0-22,3.423Zm107.164-104c-.382-.1-.774-.19-1.164-.256v-.249c.37.165.761.334,1.165.5Z" transform="translate(80.674 18)" fill="rgba(0,0,0,0.24)"/><g transform="translate(49 72)"><path d="M34.046,13.689A6.041,6.041,0,0,1,32,11.839a6.042,6.042,0,0,1-2.049,1.85C24,16.908,17.938,16.115,13.075,15.32a31.7,31.7,0,0,0-6.2-.69c-2.417.145-5.536,1.786-6.661.049C-1.023,12.767,3.068,2.22,12.722.464,19.731-.81,29.5.6,32,3.938,34.5.6,44.264-.81,51.274.464c9.654,1.756,13.745,12.3,12.506,14.215-1.125,1.736-4.243.1-6.661-.049a31.7,31.7,0,0,0-6.2.69,43.66,43.66,0,0,1-7.087.707A20.1,20.1,0,0,1,34.046,13.689Z" transform="translate(52 63)" fill="#28354b"/><g clip-path="url(#e)"><rect width="168" height="152" fill="rgba(0,0,0,0)"/><rect width="168" height="152" fill="#a55728"/></g></g></g></g></svg>