<svg xmlns="http://www.w3.org/2000/svg" xmlns:xlink="http://www.w3.org/1999/xlink" width="264" height="280" viewBox="0 0 264 280"><defs><clipPath id="a"><path d="M0,244v-9a72,72,0,0,1,72-72h4V144.611a56.038,56.038,0,0,1-31.694-44.73A12,12,0,0,1,34,88V74A12,12,0,0,1,44,62.166V56a56,56,0,0,1,112,0v6.166A12,12,0,0,1,166,74V88a12,12,0,0,1-10.305,11.881A56.038,56.038,0,0,1,124,144.611V163h4a72,72,0,0,1,72,72v9Z" fill="#d0c6ac"/></clipPath><clipPath id="b"><path d="M200,78H0V69.052A72.05,72.05,0,0,1,51.534,0,18.064,18.064,0,0,0,51,4.348c0,7.874,5.149,15.277,14.5,20.845s21.78,8.634,35,8.634,25.652-3.066,35-8.634S150,12.222,150,4.348A18.045,18.045,0,0,0,149.544.33,71.927,71.927,0,0,1,200,69.052V78Z" transform="translate(32 32)" fill="#e6e6e6"/></clipPath><clipPath id="c"><rect width="264" height="280" fill="none"/></clipPath></defs><g transform="translate(32 36)"><path d="M0,244v-9a72,72,0,0,1,72-72h4V144.611a56.038,56.038,0,0,1-31.694-44.73A12,12,0,0,1,34,88V74A12,12,0,0,1,44,62.166V56a56,56,0,0,1,112,0v6.166A12,12,0,0,1,166,74V88a12,12,0,0,1-10.305,11.881A56.038,56.038,0,0,1,124,144.611V163h4a72,72,0,0,1,72,72v9Z" fill="#d0c6ac"/><g clip-path="url(#a)"><g transform="translate(-32)"><rect width="264" height="244" fill="rgba(0,0,0,0)"/><rect width="244" height="244" fill="#ffdbb4"/></g><path d="M56,79A55.825,55.825,0,0,1,16.4,62.6,55.825,55.825,0,0,1,0,23V15.477a56,56,0,0,0,112-.451V23A56.063,56.063,0,0,1,77.8,74.6,55.65,55.65,0,0,1,56,79Z" transform="translate(44 79)" fill="rgba(0,0,0,0.1)"/></g></g><g transform="translate(0 170)"><path d="M200,78H0V69.052A72.05,72.05,0,0,1,51.534,0,18.064,18.064,0,0,0,51,4.348c0,7.874,5.149,15.277,14.5,20.845s21.78,8.634,35,8.634,25.652-3.066,35-8.634S150,12.222,150,4.348A18.045,18.045,0,0,0,149.544.33,71.927,71.927,0,0,1,200,69.052V78Z" transform="translate(32 32)" fill="#e6e6e6"/><g clip-path="url(#b)"><rect width="264" height="110" fill="rgba(0,0,0,0)"/><rect width="264" height="110" fill="#262e33"/></g></g><g transform="translate(76 82)"><g transform="translate(2 52)"><g transform="translate(28 6)" opacity="0.6"><path d="M36.314,13.514A15.79,15.79,0,0,1,26,17.04a15.79,15.79,0,0,1-10.313-3.526C14.213,17.847,9.714,21,4.392,21A12.98,12.98,0,0,1,0,20.244l.176,0c6.331,0,11.8-4.9,11.8-10.569A11.178,11.178,0,0,0,6.294,0c5.5.8,9.725,5,9.9,10.107A17.612,17.612,0,0,0,26,12.906a17.612,17.612,0,0,0,9.809-2.8C35.982,5,40.208.8,45.707,0a11.177,11.177,0,0,0-5.687,9.677c0,5.668,5.474,10.569,11.8,10.569l.176,0A12.985,12.985,0,0,1,47.607,21C42.286,21,37.787,17.847,36.314,13.514Z" fill="rgba(0,0,0,0.6)"/></g><circle cx="9" cy="9" r="9" transform="translate(8 6)" fill="rgba(255,70,70,0.2)"/><circle cx="9" cy="9" r="9" transform="translate(82 6)" fill="rgba(255,70,70,0.2)"/></g><g transform="translate(28 40)"><path d="M0,0C0,4.418,5.373,8,12,8h0c6.627,0,12-3.582,12-8" transform="translate(16 8)" fill="rgba(0,0,0,0.16)"/></g><g transform="translate(0 8)"><circle cx="6" cy="6" r="6" transform="translate(24 16)" fill="rgba(0,0,0,0.6)"/><circle cx="6" cy="6" r="6" transform="translate(76 16)" fill="rgba(0,0,0,0.6)"/></g><g transform="translate(12 6)"><path d="M3.63,11.08c3.915-5.509,14.648-8.6,23.893-6.327A2,2,0,1,0,28.477.868C17.741-1.768,5.312,1.809.37,8.763A2,2,0,0,0,3.63,11.08Z" transform="translate(0 0.078)" fill="rgba(0,0,0,0.6)"/><path d="M-3.63,11.08c-3.915-5.509-14.648-8.6-23.893-6.327a2,2,0,0,1-2.419-1.465A2,2,0,0,1-28.477.868C-17.741-1.768-5.312,1.809-.37,8.763a2,2,0,0,1-.472,2.789A2,2,0,0,1-3.63,11.08Z" transform="translate(88 0.078)" fill="rgba(0,0,0,0.6)"/></g></g><rect width="264" height="280" fill="none"/><g clip-path="url(#c)"><g transform="translate(-1)"><g transform="translate(57 12)"><path d="M100,172.813v-4.2a56.187,56.187,0,0,0,31.792-45.743,12.026,12.026,0,0,0,8.861-6.335,16.509,16.509,0,0,1,.082,19.824,16.575,16.575,0,0,1-3.657,3.582,16.378,16.378,0,0,1-4.631,2.308A16.622,16.622,0,0,1,133,146.5a16.5,16.5,0,0,1-15.312,16.457A16.485,16.485,0,0,1,102.5,173,16.788,16.788,0,0,1,100,172.813Zm-65.688-9.855a16.516,16.516,0,0,1-14.758-20.712,16.4,16.4,0,0,1-4.63-2.308,16.6,16.6,0,0,1-3.658-3.582,16.511,16.511,0,0,1,.083-19.824,12.026,12.026,0,0,0,8.861,6.335A56.187,56.187,0,0,0,52,168.611v4.2a16.979,16.979,0,0,1-2.5.187A16.484,16.484,0,0,1,34.312,162.958ZM10.105,96.394A16.535,16.535,0,0,1,6.689,80.768a16.66,16.66,0,0,1-4.866-5.722,16.521,16.521,0,0,1,.734-16.372A16.529,16.529,0,0,1,9.2,52.7,16.512,16.512,0,0,1,20.227,30.559,21.015,21.015,0,0,1,20,27.5,20.513,20.513,0,0,1,47.953,8.4,20.473,20.473,0,0,1,64.5,0,20.384,20.384,0,0,1,76,3.527,20.522,20.522,0,0,1,96.923,2.29,20.684,20.684,0,0,1,104.047,8.4,20.506,20.506,0,0,1,132,27.5a20.831,20.831,0,0,1-.227,3.058,16.6,16.6,0,0,1,8.753,5.814A16.516,16.516,0,0,1,142.4,53.6a16.491,16.491,0,0,1,2.464,25.863,16.454,16.454,0,0,1-2.966,16.925A12.1,12.1,0,0,0,132,86.169v-.232l-.084.064C129.014,38.852,83.447,55.743,76,29.336,68.556,55.747,22.986,38.851,20.083,86L20,85.937v.232a12.092,12.092,0,0,0-9.893,10.224v0Z" fill="#1f3540"/></g><g transform="translate(67)"><g transform="translate(105.219 67.101) rotate(20)" opacity="0.9"><path d="M.089-10S-1.572,0,9.478,0C16.7,0,21.755-5.714,21.755-5.714s-5.417-8.571-13.722-8.571C1.533-14.286.089-10,.089-10Z" transform="translate(3.522)" fill="#5dd362"/><path d="M25.261-.789S19.844-9.36,11.539-9.36c-4.333,0-6.428,1.929-7.367,3.214a9.873,9.873,0,0,1-2.817-3.5.632.632,0,0,0-.65-.429A.438.438,0,0,0,.416-10a.706.706,0,0,0-.361.929C.128-8.86,1.933-4.932,7.422-2.36,15.366,1.783,25.261-.789,25.261-.789Z" transform="translate(0.017 -4.926)" fill="#42bc53"/></g><g transform="translate(102.115 8) rotate(60)"><path d="M14.053,12c0-6.1-6-12-6-12s-7.3,4.3-8,13,5.8,10.7,5.8,10.7S14.053,20.8,14.053,12Z" transform="translate(0.947)" fill="#5dd362"/><path d="M2.64,29a.367.367,0,0,0,.3-.1,1.04,1.04,0,0,0,.6-1.3,23.61,23.61,0,0,1-1.1-4.4A12.22,12.22,0,0,0,9.64,12c0-6.1-6-12-6-12s-.4,1.1-1,3h0c-.2.5-5.2,13.6-.9,25.3A.961.961,0,0,0,2.64,29Z" transform="translate(5.36)" fill="#42bc53"/></g><g transform="translate(20.5 73.49) rotate(-120)"><path d="M14.053,12c0-6.1-6-12-6-12s-7.3,4.3-8,13,5.8,10.7,5.8,10.7S14.053,20.8,14.053,12Z" transform="translate(0.947)" fill="#5dd362"/><path d="M2.64,29a.367.367,0,0,0,.3-.1,1.04,1.04,0,0,0,.6-1.3,23.61,23.61,0,0,1-1.1-4.4A12.22,12.22,0,0,0,9.64,12c0-6.1-6-12-6-12s-.4,1.1-1,3h0c-.2.5-5.2,13.6-.9,25.3A.961.961,0,0,0,2.64,29Z" transform="translate(5.36)" fill="#42bc53"/></g><g transform="translate(26 29) rotate(180)"><path d="M-23.9,20.935a5.168,5.168,0,0,1-1-3.853,5.165,5.165,0,0,1,2.019-3.429,4.261,4.261,0,0,1,1.142-.568,4.252,4.252,0,0,1-1.161-.527,5.206,5.206,0,0,1-1.277-7.242,5.206,5.206,0,0,1,7.242-1.277,4.259,4.259,0,0,1,.893.911A4.244,4.244,0,0,1-15.9,3.682,5.164,5.164,0,0,1-13.365.611,5.169,5.169,0,0,1-9.4.229,5.207,5.207,0,0,1-5.95,6.722a4.226,4.226,0,0,1-.583,1.124A4.214,4.214,0,0,1-5.291,7.6,5.206,5.206,0,0,1,0,12.706a5.177,5.177,0,0,1-.937,3.066A5.2,5.2,0,0,1-5.11,18a4.229,4.229,0,0,1-1.249-.206,4.229,4.229,0,0,1,.621,1.1,5.2,5.2,0,0,1-.662,4.68A5.171,5.171,0,0,1-8.962,25.5a5.206,5.206,0,0,1-6.609-3.224,4.227,4.227,0,0,1-.19-1.252,4.223,4.223,0,0,1-.857.932,5.167,5.167,0,0,1-3.853,1A5.163,5.163,0,0,1-23.9,20.935Z" transform="translate(0.523 -0.021) rotate(-180)" fill="#4acad3"/><path d="M-4.874,12.563a1.455,1.455,0,0,0,.471-.079,1.431,1.431,0,0,0,.827-.733,1.438,1.438,0,0,0,.068-1.1A20.926,20.926,0,0,0-6.154,7.4s0,0,0,.007,0,.017,0,.037a19.357,19.357,0,0,0-.081,4.144A1.445,1.445,0,0,0-4.874,12.563Zm-5.717-1.749a1.431,1.431,0,0,0,.868-.291A21,21,0,0,0-7.453,7h0l-.042.008a19.421,19.421,0,0,0-3.965,1.2,1.436,1.436,0,0,0-.561.953,1.434,1.434,0,0,0,.276,1.07A1.433,1.433,0,0,0-10.591,10.814Zm9.16-3.15h.012A1.447,1.447,0,0,0,0,6.195,1.451,1.451,0,0,0-1.443,4.776H-1.47A21,21,0,0,0-5.375,6.289l.008,0,.013.005.02.009A19.437,19.437,0,0,0-1.431,7.664ZM-7.479,5.646h0l-.016-.031A19.525,19.525,0,0,0-9.868,2.208a1.434,1.434,0,0,0-.827-.261,1.447,1.447,0,0,0-1.184.616,1.448,1.448,0,0,0,.355,2.012A20.938,20.938,0,0,0-7.481,5.645h0ZM-6.192,5.2h0A20.09,20.09,0,0,0-3.662,1.867a1.436,1.436,0,0,0-.106-1.1,1.436,1.436,0,0,0-.852-.7A1.457,1.457,0,0,0-5.043,0,1.438,1.438,0,0,0-6.424,1.022,20.791,20.791,0,0,0-6.192,5.2Z" transform="translate(7.516 -6.773) rotate(-180)" fill="#fff"/></g><g transform="translate(20 16)"><path d="M30.1,32.67l.259-2.314,2.314-.259a7.12,7.12,0,0,0,6.054-4.811A7.23,7.23,0,0,0,36.182,17l-1.874-1.38.932-2.134A7.143,7.143,0,0,0,33.719,5.43a7.145,7.145,0,0,0-8.062-1.522l-2.133.933-1.38-1.875A7.236,7.236,0,0,0,13.861.42,7.119,7.119,0,0,0,9.052,6.474L8.793,8.788l-2.314.259a7.121,7.121,0,0,0-6.055,4.81,7.191,7.191,0,0,0,1.669,7.528h0a7.7,7.7,0,0,0,.877.752l1.875,1.38-.933,2.134a7.147,7.147,0,0,0,1.523,8.062A7.147,7.147,0,0,0,13.5,35.237l2.134-.933,1.38,1.875a7.232,7.232,0,0,0,8.283,2.547A7.121,7.121,0,0,0,30.1,32.67Z" transform="translate(0.423 0.428)" fill="#fdb599"/><path d="M9.886,12.195A1.44,1.44,0,0,1,7.1,12.94C6.9,12.173,7,7,7,7S4.512,11.533,3.949,12.1a1.44,1.44,0,0,1-2.036-2.036C2.475,9.5,7,7,7,7s-5.168.106-5.936-.1a1.44,1.44,0,0,1,.746-2.782C2.581,4.328,7,7,7,7S4.328,2.581,4.122,1.813A1.44,1.44,0,0,1,6.9,1.068C7.11,1.836,7,7,7,7S9.5,2.475,10.059,1.913A1.44,1.44,0,0,1,12.1,3.949C11.533,4.512,7,7,7,7s5.169-.106,5.936.1a1.44,1.44,0,0,1-.746,2.782C11.427,9.68,7,7,7,7S9.679,11.426,9.886,12.195Z" transform="translate(12.996 12.996)" fill="#fff"/></g><g transform="translate(89 26)"><path d="M34.014,29.792a7.4,7.4,0,0,0-1.456-10.363,6.063,6.063,0,0,0-1.625-.808,6.051,6.051,0,0,0,1.652-.75A7.4,7.4,0,0,0,24.1,5.747a6.06,6.06,0,0,0-1.271,1.3,6.039,6.039,0,0,0-.2-1.8A7.4,7.4,0,0,0,8.468,9.567a6.013,6.013,0,0,0,.829,1.6,6,6,0,0,0-1.767-.355,7.4,7.4,0,0,0-.258,14.8,6.018,6.018,0,0,0,1.777-.293,6.018,6.018,0,0,0-.883,1.57A7.4,7.4,0,1,0,22.158,31.7a6.016,6.016,0,0,0,.271-1.782,6.01,6.01,0,0,0,1.22,1.326,7.4,7.4,0,0,0,10.365-1.456Z" transform="translate(0.744 0.03)" fill="#f7d30c"/><path d="M6.936,17.878a2.057,2.057,0,0,1-1.944-2.725c.367-1.065,3.732-4.586,3.766-4.621,0,0,0,0,0,.007s0,.017,0,.037c.109,1.151.439,4.979.117,5.915A2.056,2.056,0,0,1,6.936,17.878Zm8.136-2.489a2.037,2.037,0,0,1-1.236-.414c-.9-.675-3.207-4.965-3.23-5.009h0a.347.347,0,0,1,.043.008c1.128.252,4.871,1.122,5.66,1.717a2.056,2.056,0,0,1-1.239,3.7ZM2.037,10.907H2.02A2.059,2.059,0,0,1,0,8.816,2.066,2.066,0,0,1,2.054,6.8h.038c1.11.02,5.516,2.132,5.558,2.153l-.041.02C6.556,9.424,3.047,10.907,2.037,10.907Zm8.6-2.872h0l.016-.03c.59-1,2.576-4.3,3.388-4.864A2.056,2.056,0,1,1,16.4,6.51c-.91.638-5.562,1.49-5.76,1.525ZM8.812,7.4h0c-.133-.15-3.271-3.677-3.6-4.747A2.058,2.058,0,0,1,6.576.09a2.092,2.092,0,0,1,.6-.09A2.043,2.043,0,0,1,9.142,1.455c.325,1.06-.3,5.749-.33,5.948Z" transform="translate(10.696 9.638)" fill="#fff"/></g><g transform="translate(48)"><path d="M53.761,31.427c1.825-6.983-5.994-12.415-8.953-14.185.514-2.934,1.673-12.561-4.468-16.116-6.1-3.534-13.793,2.2-16.116,4.148-.2-.125-.436-.268-.7-.423C20.455,3.076,12.753-.5,7.473,4.617c-5.645,5.468-2.313,14-1.045,16.7C4.269,23.325-1.956,29.906.61,36.9a8.552,8.552,0,0,0,3.882,4.538C8.523,43.776,14.1,43.4,16.215,43.15c.993,1.88,3.83,6.712,7.888,9.061a9.1,9.1,0,0,0,5.071,1.325c6.905-.358,9.916-10,10.67-12.913C42.7,40.227,51.929,38.425,53.761,31.427Z" transform="translate(0.377 0.12)" fill="#ff7398"/><path d="M9.343,9.107s3.685,8.188.353,8.711-1.46-8.592-1.46-8.592S1.124,15.233.086,12.254s7.7-4.048,7.7-4.048S-.2,3.513,2.393,1.37,8.609,7.461,8.609,7.461,10.554-1.458,13.43.207,9.573,8.019,9.573,8.019s8.877-.99,8.369,2.352S9.343,9.107,9.343,9.107Z" transform="translate(18.422 16.496)" fill="#fff"/></g></g><g transform="translate(182 129)"><rect width="2" height="39" rx="1" transform="translate(9)" fill="#e6e6e6"/><path d="M20,17H10.57L17,0H6L0,21H8.636L4,40Z" transform="translate(0 20)" fill="#9177ff"/></g></g></g></svg>