<svg xmlns="http://www.w3.org/2000/svg" xmlns:xlink="http://www.w3.org/1999/xlink" width="264" height="280" viewBox="0 0 264 280"><defs><clipPath id="a"><path d="M0,244v-9a72,72,0,0,1,72-72h4V144.611a56.038,56.038,0,0,1-31.694-44.73A12,12,0,0,1,34,88V74A12,12,0,0,1,44,62.166V56a56,56,0,0,1,112,0v6.166A12,12,0,0,1,166,74V88a12,12,0,0,1-10.305,11.881A56.038,56.038,0,0,1,124,144.611V163h4a72,72,0,0,1,72,72v9Z" fill="#d0c6ac"/></clipPath><clipPath id="b"><path d="M200,78H0V69.052A72.05,72.05,0,0,1,51.534,0,18.064,18.064,0,0,0,51,4.348c0,7.874,5.149,15.277,14.5,20.845s21.78,8.634,35,8.634,25.652-3.066,35-8.634S150,12.222,150,4.348A18.045,18.045,0,0,0,149.544.33,71.927,71.927,0,0,1,200,69.052V78Z" transform="translate(32 32)" fill="#e6e6e6"/></clipPath><clipPath id="c"><path d="M.019,2.609C1.429,12.231,12.081,20,25.019,20c12.968,0,23.646-7.817,25-18.261C50.12,1.34,49.794,0,47.845,0H2.193C.4,0-.111,1.24.019,2.609Z" transform="translate(28.981 13)" fill="rgba(0,0,0,0.7)"/></clipPath><clipPath id="d"><rect width="264" height="280" fill="none"/></clipPath><clipPath id="e"><path d="M7.285,259C8.217,235.229,0,221.936,0,195.446S13.637,130.427,13.284,121c.019-.566.04-1.266.061-2.085q-.061-1.452-.061-2.915V68a68.48,68.48,0,0,1,1-11.686l0-.315.039.071A67.984,67.984,0,0,1,129.368,19.917,67.784,67.784,0,0,1,149.284,68V98.575c.593,6.452,1.575,16.232,2.457,20.779,1.377,7.1,5.693,4.761,5.693,14.866s-4.328,13.5-4.347,22.485,15.4,16.131,15.4,27.537-7.074,65.233-77.622,65.233c-16.228,0-29-6.626-39.051-16.833C53.336,245.79,54.284,259,54.284,259Zm19-172.5v23a54.561,54.561,0,0,0,54.5,54.5h1a54.562,54.562,0,0,0,54.5-54.5v-23A54.562,54.562,0,0,0,81.784,32h-1A54.561,54.561,0,0,0,26.285,86.5Z" transform="translate(51.716 21)" fill="#3b6bad"/></clipPath></defs><g transform="translate(32 36)"><path d="M0,244v-9a72,72,0,0,1,72-72h4V144.611a56.038,56.038,0,0,1-31.694-44.73A12,12,0,0,1,34,88V74A12,12,0,0,1,44,62.166V56a56,56,0,0,1,112,0v6.166A12,12,0,0,1,166,74V88a12,12,0,0,1-10.305,11.881A56.038,56.038,0,0,1,124,144.611V163h4a72,72,0,0,1,72,72v9Z" fill="#d0c6ac"/><g clip-path="url(#a)"><g transform="translate(-32)"><rect width="264" height="244" fill="rgba(0,0,0,0)"/><rect width="244" height="244" fill="#edb98a"/></g><path d="M56,79A55.825,55.825,0,0,1,16.4,62.6,55.825,55.825,0,0,1,0,23V15.477a56,56,0,0,0,112-.451V23A56.063,56.063,0,0,1,77.8,74.6,55.65,55.65,0,0,1,56,79Z" transform="translate(44 79)" fill="rgba(0,0,0,0.1)"/></g></g><g transform="translate(0 170)"><path d="M200,78H0V69.052A72.05,72.05,0,0,1,51.534,0,18.064,18.064,0,0,0,51,4.348c0,7.874,5.149,15.277,14.5,20.845s21.78,8.634,35,8.634,25.652-3.066,35-8.634S150,12.222,150,4.348A18.045,18.045,0,0,0,149.544.33,71.927,71.927,0,0,1,200,69.052V78Z" transform="translate(32 32)" fill="#e6e6e6"/><g clip-path="url(#b)"><rect width="264" height="110" fill="rgba(0,0,0,0)"/><rect width="264" height="110" fill="#e6e6e6"/></g></g><g transform="translate(76 82)"><g transform="translate(2 52)"><path d="M.019,2.609C1.429,12.231,12.081,20,25.019,20c12.968,0,23.646-7.817,25-18.261C50.12,1.34,49.794,0,47.845,0H2.193C.4,0-.111,1.24.019,2.609Z" transform="translate(28.981 13)" fill="rgba(0,0,0,0.7)"/><g clip-path="url(#c)"><rect width="31" height="16" rx="5" transform="translate(39 2)" fill="#fff"/></g><path d="M0,12.5V2.92a.922.922,0,0,1,.564-.849C1.58.851,3.855,0,6.5,0a9.45,9.45,0,0,1,5,1.263A9.451,9.451,0,0,1,16.5,0c2.645,0,4.921.85,5.936,2.071A.92.92,0,0,1,23,2.92V12.5a11.5,11.5,0,1,1-23,0Z" transform="translate(43 20)" fill="#ff4f6d"/></g><g transform="translate(28 40)"><path d="M0,0C0,4.418,5.373,8,12,8h0c6.627,0,12-3.582,12-8" transform="translate(16 8)" fill="rgba(0,0,0,0.16)"/></g><g transform="translate(0 8)"><circle cx="6" cy="6" r="6" transform="translate(24 16)" fill="rgba(0,0,0,0.6)"/><circle cx="6" cy="6" r="6" transform="translate(76 16)" fill="rgba(0,0,0,0.6)"/></g><g transform="translate(12 6)"><path d="M3.63,11.08c3.915-5.509,14.648-8.6,23.893-6.327A2,2,0,1,0,28.477.868C17.741-1.768,5.312,1.809.37,8.763A2,2,0,0,0,3.63,11.08Z" transform="translate(0 0.078)" fill="rgba(0,0,0,0.6)"/><path d="M-3.63,11.08c-3.915-5.509-14.648-8.6-23.893-6.327a2,2,0,0,1-2.419-1.465A2,2,0,0,1-28.477.868C-17.741-1.768-5.312,1.809-.37,8.763a2,2,0,0,1-.472,2.789A2,2,0,0,1-3.63,11.08Z" transform="translate(88 0.078)" fill="rgba(0,0,0,0.6)"/></g></g><rect width="264" height="280" fill="none"/><g clip-path="url(#d)"><g transform="translate(-1)"><path d="M7.285,259C8.217,235.229,0,221.936,0,195.446S13.637,130.427,13.284,121c.019-.566.04-1.266.061-2.085q-.061-1.452-.061-2.915V68a68.48,68.48,0,0,1,1-11.686l0-.315.039.071A67.984,67.984,0,0,1,129.368,19.917,67.784,67.784,0,0,1,149.284,68V98.575c.593,6.452,1.575,16.232,2.457,20.779,1.377,7.1,5.693,4.761,5.693,14.866s-4.328,13.5-4.347,22.485,15.4,16.131,15.4,27.537-7.074,65.233-77.622,65.233c-16.228,0-29-6.626-39.051-16.833C53.336,245.79,54.284,259,54.284,259Zm19-172.5v23a54.561,54.561,0,0,0,54.5,54.5h1a54.562,54.562,0,0,0,54.5-54.5v-23A54.562,54.562,0,0,0,81.784,32h-1A54.561,54.561,0,0,0,26.285,86.5Z" transform="translate(51.716 21)" fill="#3b6bad"/><g clip-path="url(#e)"><g transform="translate(1)"><rect width="264" height="280" fill="rgba(0,0,0,0)"/><rect width="264" height="280" fill="#25557c"/></g><path d="M122.926,72.959h0A61,61,0,0,0,1.075,72.951,61.378,61.378,0,0,1,0,61.5,61.06,61.06,0,0,1,18.16,18.013a62.275,62.275,0,0,1,87.681,0,61.241,61.241,0,0,1,17.085,54.946Z" transform="translate(71 32)" fill="rgba(255,255,255,0.5)"/><path d="M74.4,145.3h0a35.877,35.877,0,0,1-15.95-3.341,20.477,20.477,0,0,1-5.611-4.044,15.617,15.617,0,0,1-3.471-5.508c-.122-.334-.231-.671-.326-1,4.1,2.827,10.134,4.322,17.459,4.322A70.235,70.235,0,0,0,90.1,131.257a70.132,70.132,0,0,0,21.043-11.821c5.564-4.688,9.2-9.69,10.514-14.464.148.335.281.664.4.98a16.372,16.372,0,0,1,.334,9.8,27.206,27.206,0,0,1-5.184,9.994,44.943,44.943,0,0,1-9.8,9.031,59.42,59.42,0,0,1-13.5,6.919A57.854,57.854,0,0,1,74.4,145.3ZM64.1,115.529h0c-7.162,0-13.5-1.139-18.314-3.295-4.925-2.2-7.87-5.305-8.518-8.974-.045-.256-.079-.518-.1-.779,4.3,3.307,12.455,5.2,22.371,5.2h.005A91.77,91.77,0,0,0,75.4,106.241,84.834,84.834,0,0,0,97.36,99.417c6.119-2.969,10.507-6.354,12.69-9.788.069.257.126.515.171.767a10.458,10.458,0,0,1-1.661,7.339,24.74,24.74,0,0,1-6.834,6.959c-6.3,4.53-15.142,7.971-24.886,9.689A73.634,73.634,0,0,1,64.1,115.529ZM57.5,88.485h-3A54.455,54.455,0,0,1,0,33.985v-23A54.928,54.928,0,0,1,1.071.181C1.024,1.1,1,2.04,1,2.985v23a54.562,54.562,0,0,0,54.5,54.5h1a54.562,54.562,0,0,0,54.5-54.5v-23c0-.933-.024-1.876-.071-2.8A54.931,54.931,0,0,1,112,10.985v23a54.454,54.454,0,0,1-54.5,54.5Z" transform="translate(77 104.515)" fill="rgba(0,0,0,0.16)" opacity="0.9"/></g></g></g></svg>