<svg xmlns="http://www.w3.org/2000/svg" xmlns:xlink="http://www.w3.org/1999/xlink" width="264" height="280" viewBox="0 0 264 280"><defs><clipPath id="a"><path d="M0,244v-9a72,72,0,0,1,72-72h4V144.611a56.038,56.038,0,0,1-31.694-44.73A12,12,0,0,1,34,88V74A12,12,0,0,1,44,62.166V56a56,56,0,0,1,112,0v6.166A12,12,0,0,1,166,74V88a12,12,0,0,1-10.305,11.881A56.038,56.038,0,0,1,124,144.611V163h4a72,72,0,0,1,72,72v9Z" fill="#d0c6ac"/></clipPath><clipPath id="b"><path d="M200,80.949H0V72A71.94,71.94,0,0,1,72,0h1.192A23.494,23.494,0,0,0,73,3c0,13.785,12.112,25,27,25s27-11.215,27-25a23.5,23.5,0,0,0-.192-3H128a71.94,71.94,0,0,1,72,72v8.948Z" transform="translate(32 29.052)" fill="#e6e6e6"/></clipPath><clipPath id="c"><rect width="264" height="280" fill="none"/></clipPath><clipPath id="d"><path d="M58.472,99c-4.479,0-8.566-1.007-10.666-2.629a44.28,44.28,0,0,1-5.048-2.23,105.145,105.145,0,0,0-11.042-4.62,105.823,105.823,0,0,1-10.556-4.39,34.72,34.72,0,0,1-9.268-6.544C7.9,74.54,5.062,69.026,3.213,61.731a126.084,126.084,0,0,1-2.8-19.088q-.048-.512-.1-1.016C-.3,34.994.1,28.632.533,21.9l0-.031q.044-.684.087-1.37c.013-.206.037-.65.069-1.265C.944,14.472,1.712,0,2.58,0,4.851,9.446,6.323,19.182,7.746,28.6c.7,4.616,1.419,9.389,2.226,14.073.489,2.837,1.034,5.742,1.666,8.879.028.139.056.366.089.628.117.94.294,2.36.762,2.587a1.152,1.152,0,0,0,.506.11c1.652,0,4.255-2.959,5.505-4.382.219-.249.408-.464.543-.607l.283-.3a49.012,49.012,0,0,1,7.751-7.147,42.894,42.894,0,0,1,20.878-7.319c.539-.043,1.1-.064,1.664-.064A17.235,17.235,0,0,1,58.3,37.111a17.23,17.23,0,0,1,8.681-2.057c.566,0,1.126.022,1.664.064a42.894,42.894,0,0,1,20.878,7.319,49.013,49.013,0,0,1,7.751,7.147l.283.3c.134.143.323.357.541.605,1.253,1.424,3.855,4.384,5.507,4.384a1.152,1.152,0,0,0,.506-.11c.469-.226.645-1.646.762-2.586.033-.263.061-.49.089-.629.632-3.137,1.177-6.041,1.666-8.879.807-4.683,1.528-9.456,2.226-14.072,1.423-9.417,2.895-19.153,5.166-28.6.868,0,1.636,14.472,1.889,19.227.033.616.056,1.061.069,1.268q.044.7.089,1.4c.43,6.736.836,13.1.213,19.729q-.047.5-.1,1.016a126.082,126.082,0,0,1-2.8,19.088c-1.849,7.3-4.688,12.809-8.679,16.856a34.71,34.71,0,0,1-9.266,6.542,105.776,105.776,0,0,1-10.552,4.388,105.043,105.043,0,0,0-11.048,4.623,46.068,46.068,0,0,1-4.422,2C67.449,97.877,63.151,99,58.472,99ZM46.886,49.23c-2.528,0-5.168.445-7.345,3.673a16.825,16.825,0,0,0-2.586,7.528,11.667,11.667,0,0,0,1.574,7.7,5,5,0,0,0,4.423,2.494,22.091,22.091,0,0,0,5.186-.983,45.509,45.509,0,0,1,10.661-1.8c.332-.011.668-.017,1-.017a34.023,34.023,0,0,1,9.048,1.32c.471.126.923.251,1.36.373a19.342,19.342,0,0,0,4.771.947,4.637,4.637,0,0,0,4.091-2.334,11.668,11.668,0,0,0,1.575-7.7A16.822,16.822,0,0,0,78.056,52.9c-2.178-3.228-4.818-3.673-7.347-3.673-.823,0-1.657.051-2.54.1l-.069,0c-.834.051-1.78.108-2.743.108a18.648,18.648,0,0,1-2.071-.106A12.385,12.385,0,0,1,58.8,48a12.387,12.387,0,0,1-4.488,1.34,18.659,18.659,0,0,1-2.072.106c-.963,0-1.909-.057-2.744-.108l-.069,0C48.543,49.28,47.709,49.23,46.886,49.23Z" transform="translate(0 0)" fill="#252e32"/></clipPath><clipPath id="e"><path d="M83.971,55.817C60.51,69.415,22.861,82.109,29,138c0,0-29.066-7.5-29-46.676C.08,44.149,52.074,0,82,0q1,0,1.991.088Q84.987,0,86,0c29.851,0,81.919,44.149,82,91.324C168.066,129.54,139,138,139,138,145.115,82.109,107.4,69.415,83.971,55.817Z" transform="translate(0)" fill="#124c74"/></clipPath></defs><g transform="translate(32 36)"><path d="M0,244v-9a72,72,0,0,1,72-72h4V144.611a56.038,56.038,0,0,1-31.694-44.73A12,12,0,0,1,34,88V74A12,12,0,0,1,44,62.166V56a56,56,0,0,1,112,0v6.166A12,12,0,0,1,166,74V88a12,12,0,0,1-10.305,11.881A56.038,56.038,0,0,1,124,144.611V163h4a72,72,0,0,1,72,72v9Z" fill="#d0c6ac"/><g clip-path="url(#a)"><g transform="translate(-32)"><rect width="264" height="244" fill="rgba(0,0,0,0)"/><rect width="244" height="244" fill="#d08b5b"/></g><path d="M56,79A55.825,55.825,0,0,1,16.4,62.6,55.825,55.825,0,0,1,0,23V15.477a56,56,0,0,0,112-.451V23A56.063,56.063,0,0,1,77.8,74.6,55.65,55.65,0,0,1,56,79Z" transform="translate(44 79)" fill="rgba(0,0,0,0.1)"/></g></g><g transform="translate(0 170)"><path d="M200,80.949H0V72A71.94,71.94,0,0,1,72,0h1.192A23.494,23.494,0,0,0,73,3c0,13.785,12.112,25,27,25s27-11.215,27-25a23.5,23.5,0,0,0-.192-3H128a71.94,71.94,0,0,1,72,72v8.948Z" transform="translate(32 29.052)" fill="#e6e6e6"/><g clip-path="url(#b)"><rect width="264" height="110" fill="rgba(0,0,0,0)"/><rect width="264" height="110" fill="#262e33"/></g><g transform="translate(32 28)"><path d="M200,80.878H131.638A155.6,155.6,0,0,0,137,39.378,157.808,157.808,0,0,0,132.228.051,71.94,71.94,0,0,1,200,71.93v8.947Zm-130.638,0H0V71.93A71.938,71.938,0,0,1,68.785,0,157.748,157.748,0,0,0,64,39.378a155.6,155.6,0,0,0,5.361,41.5Z" transform="translate(0 1.122)" fill="#3a4c5a"/><path d="M0,9,9.556,1.833a4,4,0,0,1,4.856.043L21,7Z" transform="translate(149 49)" fill="#e6e6e6"/><path d="M25,0c-6,29,5,82,5,82H14L0,46l6-9L0,31,19,1A24.864,24.864,0,0,1,25,0Z" transform="translate(44 0)" fill="#2f4351"/><path d="M-25,0c6,29-5,82-5,82h16L0,46l-6-9,6-6L-19,1A24.864,24.864,0,0,0-25,0Z" transform="translate(156 0)" fill="#2f4351"/></g><path d="M11.479,37.018h0A27.485,27.485,0,0,1,3.1,28.729,19.285,19.285,0,0,1,0,18.349,19.182,19.182,0,0,1,2.75,8.536a26.542,26.542,0,0,1,7.5-8.013C10.5.348,10.748.171,11,0V15.338c0,5.589,3.768,10.868,10.078,14.119L21,29.518l1,3.151-4.579-.331-5.94,4.679Zm47.041,0h0l-5.939-4.679L48,32.669l1-3.151.02.014-.1-.077C55.233,26.205,59,20.928,59,15.338V0c.276.188.521.36.749.524a26.542,26.542,0,0,1,7.5,8.013A19.182,19.182,0,0,1,70,18.349a19.285,19.285,0,0,1-3.1,10.38,27.506,27.506,0,0,1-8.383,8.288Z" transform="translate(97 21.539)" fill="#f2f2f2"/></g><g transform="translate(76 82)"><g transform="translate(2 52)"><path d="M0,0A14,14,0,0,0,14,14h0A14,14,0,0,0,28,0" transform="translate(40 15)" fill="rgba(0,0,0,0.7)"/></g><g transform="translate(28 40)"><path d="M0,0C0,4.418,5.373,8,12,8h0c6.627,0,12-3.582,12-8" transform="translate(16 8)" fill="rgba(0,0,0,0.16)"/></g><g transform="translate(0 8)"><path d="M.16-6.447A11.947,11.947,0,0,0,11,0,11.953,11.953,0,0,0,21.815-6.407c.551-1.122-.233-2.04-1.025-1.36A15.047,15.047,0,0,1,11-4.344a15.126,15.126,0,0,1-9.56-3.228C.547-8.3-.38-7.558.16-6.447Z" transform="translate(16 34)" fill="rgba(0,0,0,0.6)"/><path d="M.16-6.447A11.947,11.947,0,0,0,11,0,11.953,11.953,0,0,0,21.815-6.407c.551-1.122-.233-2.04-1.025-1.36A15.047,15.047,0,0,1,11-4.344a15.126,15.126,0,0,1-9.56-3.228C.547-8.3-.38-7.558.16-6.447Z" transform="translate(74 34)" fill="rgba(0,0,0,0.6)"/></g><g transform="translate(12 6)"><path d="M3.63,11.08c3.915-5.509,14.648-8.6,23.893-6.327A2,2,0,1,0,28.477.868C17.741-1.768,5.312,1.809.37,8.763A2,2,0,0,0,3.63,11.08Z" transform="translate(0 0.078)" fill="rgba(0,0,0,0.6)"/><path d="M-3.63,11.08c-3.915-5.509-14.648-8.6-23.893-6.327a2,2,0,0,1-2.419-1.465A2,2,0,0,1-28.477.868C-17.741-1.768-5.312,1.809-.37,8.763a2,2,0,0,1-.472,2.789A2,2,0,0,1-3.63,11.08Z" transform="translate(88 0.078)" fill="rgba(0,0,0,0.6)"/></g></g><rect width="264" height="280" fill="none"/><g clip-path="url(#c)"><g transform="translate(-1)"><g transform="translate(50 72)"><rect width="166" height="152" fill="rgba(0,0,0,0)"/><path d="M58.472,99c-4.479,0-8.566-1.007-10.666-2.629a44.28,44.28,0,0,1-5.048-2.23,105.145,105.145,0,0,0-11.042-4.62,105.823,105.823,0,0,1-10.556-4.39,34.72,34.72,0,0,1-9.268-6.544C7.9,74.54,5.062,69.026,3.213,61.731a126.084,126.084,0,0,1-2.8-19.088q-.048-.512-.1-1.016C-.3,34.994.1,28.632.533,21.9l0-.031q.044-.684.087-1.37c.013-.206.037-.65.069-1.265C.944,14.472,1.712,0,2.58,0,4.851,9.446,6.323,19.182,7.746,28.6c.7,4.616,1.419,9.389,2.226,14.073.489,2.837,1.034,5.742,1.666,8.879.028.139.056.366.089.628.117.94.294,2.36.762,2.587a1.152,1.152,0,0,0,.506.11c1.652,0,4.255-2.959,5.505-4.382.219-.249.408-.464.543-.607l.283-.3a49.012,49.012,0,0,1,7.751-7.147,42.894,42.894,0,0,1,20.878-7.319c.539-.043,1.1-.064,1.664-.064A17.235,17.235,0,0,1,58.3,37.111a17.23,17.23,0,0,1,8.681-2.057c.566,0,1.126.022,1.664.064a42.894,42.894,0,0,1,20.878,7.319,49.013,49.013,0,0,1,7.751,7.147l.283.3c.134.143.323.357.541.605,1.253,1.424,3.855,4.384,5.507,4.384a1.152,1.152,0,0,0,.506-.11c.469-.226.645-1.646.762-2.586.033-.263.061-.49.089-.629.632-3.137,1.177-6.041,1.666-8.879.807-4.683,1.528-9.456,2.226-14.072,1.423-9.417,2.895-19.153,5.166-28.6.868,0,1.636,14.472,1.889,19.227.033.616.056,1.061.069,1.268q.044.7.089,1.4c.43,6.736.836,13.1.213,19.729q-.047.5-.1,1.016a126.082,126.082,0,0,1-2.8,19.088c-1.849,7.3-4.688,12.809-8.679,16.856a34.71,34.71,0,0,1-9.266,6.542,105.776,105.776,0,0,1-10.552,4.388,105.043,105.043,0,0,0-11.048,4.623,46.068,46.068,0,0,1-4.422,2C67.449,97.877,63.151,99,58.472,99ZM46.886,49.23c-2.528,0-5.168.445-7.345,3.673a16.825,16.825,0,0,0-2.586,7.528,11.667,11.667,0,0,0,1.574,7.7,5,5,0,0,0,4.423,2.494,22.091,22.091,0,0,0,5.186-.983,45.509,45.509,0,0,1,10.661-1.8c.332-.011.668-.017,1-.017a34.023,34.023,0,0,1,9.048,1.32c.471.126.923.251,1.36.373a19.342,19.342,0,0,0,4.771.947,4.637,4.637,0,0,0,4.091-2.334,11.668,11.668,0,0,0,1.575-7.7A16.822,16.822,0,0,0,78.056,52.9c-2.178-3.228-4.818-3.673-7.347-3.673-.823,0-1.657.051-2.54.1l-.069,0c-.834.051-1.78.108-2.743.108a18.648,18.648,0,0,1-2.071-.106A12.385,12.385,0,0,1,58.8,48a12.387,12.387,0,0,1-4.488,1.34,18.659,18.659,0,0,1-2.072.106c-.963,0-1.909-.057-2.744-.108l-.069,0C48.543,49.28,47.709,49.23,46.886,49.23Z" transform="translate(24.7 26)" fill="#252e32"/><g transform="translate(24.7 26)" clip-path="url(#d)"><g transform="translate(-24.7 -26)"><rect width="166" height="152" fill="rgba(0,0,0,0)"/><rect width="166" height="152" fill="#724133"/></g></g></g><g transform="translate(1)"><path d="M1.529,40.5v0A19.506,19.506,0,0,1,0,33,21.09,21.09,0,0,1,4.637,20.155,40.2,40.2,0,0,1,17.281,9.665,72.715,72.715,0,0,1,36.035,2.593,99.92,99.92,0,0,1,59,0,99.916,99.916,0,0,1,81.966,2.593a72.714,72.714,0,0,1,18.754,7.072,40.194,40.194,0,0,1,12.644,10.49A21.091,21.091,0,0,1,118,33a19.473,19.473,0,0,1-1.53,7.5c-2.968-7.136-10.255-13.609-20.522-18.227C85.525,17.582,72.4,15,59,15s-26.525,2.582-36.948,7.27C11.784,26.889,4.5,33.363,1.53,40.5Z" transform="translate(73 57)" fill="#edece3"/><g transform="translate(48 3)"><path d="M83.971,55.817C60.51,69.415,22.861,82.109,29,138c0,0-29.066-7.5-29-46.676C.08,44.149,52.074,0,82,0q1,0,1.991.088Q84.987,0,86,0c29.851,0,81.919,44.149,82,91.324C168.066,129.54,139,138,139,138,145.115,82.109,107.4,69.415,83.971,55.817Z" transform="translate(0)" fill="#124c74"/><g clip-path="url(#e)"><g transform="translate(-48 -3)"><rect width="264" height="280" fill="rgba(0,0,0,0)"/><rect width="264" height="280" fill="#25557c"/></g></g></g><path d="M28.883,110.5a30.138,30.138,0,0,1-4.423-1.65,41.12,41.12,0,0,1-9.984-6.465A40.239,40.239,0,0,1,4.5,89,52.773,52.773,0,0,1,0,66.561c0-.374.005-.754.013-1.13.363,19.527,8.225,30.75,14.757,36.726a40.523,40.523,0,0,0,9.167,6.326,30.191,30.191,0,0,0,4.946,2.016Zm-.548-11.545h0c-.018-17.99,5.09-32.334,15.614-43.85C53.122,45.067,65.026,38.659,75.529,33,86.6,27.042,96.168,21.893,100,14.076A39.545,39.545,0,0,0,104.646,0a26.624,26.624,0,0,1-.5,9.264A37.948,37.948,0,0,1,100,19.668C96.168,27.032,86.6,31.882,75.529,37.5,54.621,48.1,28.6,61.295,28.335,98.956Z" transform="translate(48 30.468)" fill="rgba(0,0,0,0.16)"/></g></g></g></svg>