<?xml version="1.0" encoding="utf-8"?>
<svg id="master-artboard" viewBox="0 0 1096 780" version="1.1" xmlns="http://www.w3.org/2000/svg" x="0px" y="0px" style="enable-background:new 0 0 1096 780;" width="1096px" height="780px"><defs><linearGradient id="gradient-0" gradientUnits="userSpaceOnUse" x1="867.4000244140625" y1="577" x2="867.4000244140625" y2="709.5">
                <stop offset="0" style="stop-color: #0069ff"/>
                <stop offset="1" style="stop-color: #09f"/>
              </linearGradient><linearGradient id="gradient-1" gradientUnits="userSpaceOnUse" x1="818.5" y1="636.0999755859375" x2="818.5" y2="691.2999877929688">
                <stop offset="0" style="stop-color: #0069ff"/>
                <stop offset="1" style="stop-color: #09f"/>
              </linearGradient><linearGradient id="gradient-2" gradientUnits="userSpaceOnUse" x1="826.5" y1="636.0999755859375" x2="826.5" y2="691.2999877929688">
                <stop offset="0" style="stop-color: #0069ff"/>
                <stop offset="1" style="stop-color: #09f"/>
              </linearGradient><linearGradient id="gradient-3" gradientUnits="userSpaceOnUse" x1="863.4000244140625" y1="636.0999755859375" x2="863.4000244140625" y2="691.2999877929688">
                <stop offset="0" style="stop-color: #0069ff"/>
                <stop offset="1" style="stop-color: #09f"/>
              </linearGradient><linearGradient id="gradient-4" gradientUnits="userSpaceOnUse" x1="871.4000244140625" y1="636.0999755859375" x2="871.4000244140625" y2="691.2999877929688">
                <stop offset="0" style="stop-color: #0069ff"/>
                <stop offset="1" style="stop-color: #09f"/>
              </linearGradient><linearGradient id="gradient-5" gradientUnits="userSpaceOnUse" x1="908.4000244140625" y1="636.0999755859375" x2="908.4000244140625" y2="691.2999877929688">
                <stop offset="0" style="stop-color: #0069ff"/>
                <stop offset="1" style="stop-color: #09f"/>
              </linearGradient><linearGradient id="gradient-6" gradientUnits="userSpaceOnUse" x1="916.4000244140625" y1="636.0999755859375" x2="916.4000244140625" y2="691.2999877929688">
                <stop offset="0" style="stop-color: #0069ff"/>
                <stop offset="1" style="stop-color: #09f"/>
              </linearGradient><linearGradient id="gradient-7" gradientUnits="userSpaceOnUse" x1="867.4000244140625" y1="593.9000244140625" x2="867.4000244140625" y2="620.9000244140625">
                <stop offset="0" style="stop-color: #0069ff"/>
                <stop offset="1" style="stop-color: #09f"/>
              </linearGradient></defs>

<g transform="matrix(1, 0, 0, 1, -0.00002882728290387604, 0.00009864970343187451)"><path class="st0" d="M931.2,634.1c1.4,0,2.5-1.1,2.5-2.5v-16.7c0-0.2,0-0.4-0.1-0.6c0-0.1,0-0.1,0-0.2c0-0.1-0.1-0.3-0.2-0.4&#10;&#9;&#9;&#9;c0,0,0-0.1-0.1-0.1c-0.1-0.2-0.2-0.3-0.4-0.5c0,0,0,0,0,0c-0.1-0.1-0.3-0.2-0.4-0.3c0,0,0,0-0.1,0l-63.8-35.5&#10;&#9;&#9;&#9;c-0.8-0.4-1.7-0.4-2.4,0l-63.8,35.5c0,0,0,0-0.1,0c-0.2,0.1-0.3,0.2-0.4,0.3c0,0,0,0,0,0c-0.1,0.1-0.3,0.3-0.4,0.5&#10;&#9;&#9;&#9;c0,0-0.1,0.1-0.1,0.1c-0.1,0.1-0.1,0.3-0.2,0.4c0,0.1,0,0.1,0,0.2c0,0.2-0.1,0.4-0.1,0.6v16.7c0,1.4,1.1,2.5,2.5,2.5h3.6v59.5&#10;&#9;&#9;&#9;h-3.6c-1.4,0-2.5,1.1-2.5,2.5V707c0,1.4,1.1,2.5,2.5,2.5h127.6c1.4,0,2.5-1.1,2.5-2.5v-10.9c0-1.4-1.1-2.5-2.5-2.5h-3.6v-59.5&#10;&#9;&#9;&#9;H931.2z M928.7,698.6v5.9H806.2v-5.9h3.6h25.5h19.4h25.5h19.4h25.5H928.7z M812.3,693.6v-59.5h20.5v59.5H812.3z M837.8,693.6&#10;&#9;&#9;&#9;v-59.5h14.4v59.5H837.8z M857.2,693.6v-59.5h20.5v59.5H857.2z M882.7,693.6v-59.5h14.4v59.5H882.7z M902.1,693.6v-59.5h20.5v59.5&#10;&#9;&#9;&#9;H902.1z M925.1,629.1h-25.5h-19.4h-25.5h-19.4h-25.5h-3.6v-11.7h26.5c1.4,0,2.5-1.1,2.5-2.5c0-1.4-1.1-2.5-2.5-2.5h-19.3&#10;&#9;&#9;&#9;l54.1-30.1l54.1,30.1h-19.3c-1.4,0-2.5,1.1-2.5,2.5c0,1.4,1.1,2.5,2.5,2.5h26.5v11.7H925.1z" style="fill: url('#gradient-0'); fill-opacity: 1;" transform="matrix(5.193522930145264, 0, 0, 5.193522930145264, -3941.19384765625, -2953.27490234375)"/><path class="st0" d="M818.5,636.1c-1.4,0-2.5,1.1-2.5,2.5v50.2c0,1.4,1.1,2.5,2.5,2.5s2.5-1.1,2.5-2.5v-50.2&#10;&#9;&#9;&#9;C821,637.2,819.9,636.1,818.5,636.1z" style="fill: url('#gradient-1'); fill-opacity: 1;" transform="matrix(5.193522930145264, 0, 0, 5.193522930145264, -3941.19384765625, -2953.27490234375)"/><path class="st0" d="M826.5,636.1c-1.4,0-2.5,1.1-2.5,2.5v50.2c0,1.4,1.1,2.5,2.5,2.5s2.5-1.1,2.5-2.5v-50.2&#10;&#9;&#9;&#9;C829,637.2,827.9,636.1,826.5,636.1z" style="fill: url('#gradient-2'); fill-opacity: 1;" transform="matrix(5.193522930145264, 0, 0, 5.193522930145264, -3941.19384765625, -2953.27490234375)"/><path class="st0" d="M863.4,636.1c-1.4,0-2.5,1.1-2.5,2.5v50.2c0,1.4,1.1,2.5,2.5,2.5c1.4,0,2.5-1.1,2.5-2.5v-50.2&#10;&#9;&#9;&#9;C865.9,637.2,864.8,636.1,863.4,636.1z" style="fill: url('#gradient-3'); fill-opacity: 1;" transform="matrix(5.193522930145264, 0, 0, 5.193522930145264, -3941.19384765625, -2953.27490234375)"/><path class="st0" d="M871.4,636.1c-1.4,0-2.5,1.1-2.5,2.5v50.2c0,1.4,1.1,2.5,2.5,2.5c1.4,0,2.5-1.1,2.5-2.5v-50.2&#10;&#9;&#9;&#9;C873.9,637.2,872.8,636.1,871.4,636.1z" style="fill: url('#gradient-4'); fill-opacity: 1;" transform="matrix(5.193522930145264, 0, 0, 5.193522930145264, -3941.19384765625, -2953.27490234375)"/><path class="st0" d="M908.4,636.1c-1.4,0-2.5,1.1-2.5,2.5v50.2c0,1.4,1.1,2.5,2.5,2.5c1.4,0,2.5-1.1,2.5-2.5v-50.2&#10;&#9;&#9;&#9;C910.9,637.2,909.8,636.1,908.4,636.1z" style="fill: url('#gradient-5'); fill-opacity: 1;" transform="matrix(5.193522930145264, 0, 0, 5.193522930145264, -3941.19384765625, -2953.27490234375)"/><path class="st0" d="M916.4,636.1c-1.4,0-2.5,1.1-2.5,2.5v50.2c0,1.4,1.1,2.5,2.5,2.5c1.4,0,2.5-1.1,2.5-2.5v-50.2&#10;&#9;&#9;&#9;C918.9,637.2,917.8,636.1,916.4,636.1z" style="fill: url('#gradient-6'); fill-opacity: 1;" transform="matrix(5.193522930145264, 0, 0, 5.193522930145264, -3941.19384765625, -2953.27490234375)"/><path class="st0" d="M867.4,593.9c-7.4,0-13.5,6.1-13.5,13.5c0,7.4,6.1,13.5,13.5,13.5s13.5-6.1,13.5-13.5&#10;&#9;&#9;&#9;C880.9,600,874.9,593.9,867.4,593.9z M867.4,615.9c-4.7,0-8.5-3.8-8.5-8.5c0-4.7,3.8-8.5,8.5-8.5s8.5,3.8,8.5,8.5&#10;&#9;&#9;&#9;C875.9,612.1,872.1,615.9,867.4,615.9z" style="fill: url('#gradient-7'); fill-opacity: 1;" transform="matrix(5.193522930145264, 0, 0, 5.193522930145264, -3941.19384765625, -2953.27490234375)"/></g>
</svg>