<svg xmlns="http://www.w3.org/2000/svg" xmlns:xlink="http://www.w3.org/1999/xlink" width="210.925" height="139.24" viewBox="0 0 1430 944">
  <metadata><?xpacket begin="﻿" id="W5M0MpCehiHzreSzNTczkc9d"?>
<x:xmpmeta xmlns:x="adobe:ns:meta/" x:xmptk="Adobe XMP Core 5.6-c142 79.160924, 2017/07/13-01:06:39        ">
   <rdf:RDF xmlns:rdf="http://www.w3.org/1999/02/22-rdf-syntax-ns#">
      <rdf:Description rdf:about=""/>
   </rdf:RDF>
</x:xmpmeta>
                                                                                                    
                                                                                                    
                                                                                                    
                                                                                                    
                                                                                                    
                                                                                                    
                                                                                                    
                                                                                                    
                                                                                                    
                                                                                                    
                                                                                                    
                                                                                                    
                                                                                                    
                                                                                                    
                                                                                                    
                                                                                                    
                                                                                                    
                                                                                                    
                                                                                                    
                                                                                                    
                           
<?xpacket end="w"?></metadata>
<defs>
    <style>
      .cls-1 {
        fill: #fff;
      }

      .cls-2 {
        fill-rule: evenodd;
        fill: url(#linear-gradient);
      }
    </style>
    <linearGradient id="linear-gradient" x1="3473.94" y1="734.875" x2="3473.94" y2="232.531" gradientUnits="userSpaceOnUse">
      <stop offset="0" stop-color="#09f"/>
      <stop offset="1" stop-color="#0069ff"/>
    </linearGradient>
  </defs>
  <rect id="Income" class="cls-1" width="1430" height="944" rx="166.667" ry="166.667"/>
  <path class="cls-2" d="M6673.18,704.766a19.138,19.138,0,0,0,0,24.657q4.485,5.448,13.1,5.448t13.11-5.448a19.138,19.138,0,0,0,0-24.657q-4.485-5.446-13.11-5.447T6673.18,704.766ZM6701.4,552.91H6568.79v29.627h78.27q-10.335,6.88-21.53,14.717t-21.63,15.769q-10.425,7.935-19.61,15.578t-15.5,13.953v24.274H6701.4V637.393h-86.88a458.566,458.566,0,0,1,41.91-31.729q22.2-14.909,44.97-27.714V552.91ZM6594.14,428.958a78.113,78.113,0,0,1,5.65-14.049l-23.92-8.6q-0.96,1.533-2.68,5.065a60.794,60.794,0,0,0-3.35,8.984,107.6,107.6,0,0,0-2.87,13,104.571,104.571,0,0,0-1.24,16.915,72.6,72.6,0,0,0,4.59,25.9,59.6,59.6,0,0,0,13.49,21.121,63.534,63.534,0,0,0,21.72,14.144q12.825,5.16,29.47,5.161,16.455,0,29.28-4.683a59.776,59.776,0,0,0,21.62-13.284,56.615,56.615,0,0,0,13.4-20.739,75.941,75.941,0,0,0,4.59-27.046q0-17.39-2.39-29.244t-4.5-17.2h-65.64v29.817h46.12a40.935,40.935,0,0,1,.77,6.212c0.12,2.36.19,5.194,0.19,8.506a38.085,38.085,0,0,1-3.16,16.056,30.915,30.915,0,0,1-8.9,11.468,38.83,38.83,0,0,1-13.68,6.881,63.664,63.664,0,0,1-17.7,2.294q-20.085,0-31.67-9.271t-11.58-30.1A59.861,59.861,0,0,1,6594.14,428.958ZM483.512,711.527A239.362,239.362,0,1,1,646.251,296.718a12.305,12.305,0,0,1-16.742,18.038,214.789,214.789,0,1,0-51.754,350.413,12.305,12.305,0,1,1,10.783,22.122A239.594,239.594,0,0,1,483.512,711.527Zm143-50.651a12.3,12.3,0,0,1-7.763-21.85,216.012,216.012,0,0,0,16.286-14.664l238.041-237.1c46.676-46.494,122.55-46.438,169.143.152A119.7,119.7,0,0,1,878.1,561.561a12.3,12.3,0,1,1,16.342-18.389,95.1,95.1,0,1,0-4-138.48L652.412,641.783a239.538,239.538,0,0,1-18.153,16.338A12.214,12.214,0,0,1,626.513,660.876ZM866.544,534.89a12.27,12.27,0,0,1-8.679-3.58l-33.653-33.494a12.305,12.305,0,0,1,17.359-17.445l33.653,33.5A12.3,12.3,0,0,1,866.544,534.89ZM697.625,377.3a12.273,12.273,0,0,1-8.68-3.58l-33.653-33.5a12.3,12.3,0,1,1,17.359-17.444L706.3,356.275A12.3,12.3,0,0,1,697.625,377.3Zm-214.2,294.277a199.421,199.421,0,1,1,72.738-385.085,12.3,12.3,0,1,1-8.94,22.922A174.867,174.867,0,0,0,359.749,595.873c68.08,68.055,178.941,68.151,247.133.224l44.341-44.171a12.3,12.3,0,1,1,17.367,17.428l-44.34,44.172A198.929,198.929,0,0,1,483.428,671.577ZM957.211,631.49a159.149,159.149,0,0,1-38.8-4.781,12.305,12.305,0,0,1,6-23.868A135.865,135.865,0,0,0,1053.04,567.5a134.969,134.969,0,0,0,0-190.892c-48.67-48.649-128.321-52.469-181.349-8.707a12.307,12.307,0,0,1-15.669-18.982A159.594,159.594,0,1,1,957.211,631.49Zm-80.877-24.26a12.255,12.255,0,0,1-6.769-2.034,159.772,159.772,0,0,1-24.657-20.1l-53.681-53.4a12.3,12.3,0,0,1,17.359-17.443l53.689,53.4a135.267,135.267,0,0,0,20.852,17A12.3,12.3,0,0,1,876.334,607.23Zm-189.78-60.838a12.3,12.3,0,0,1-8.684-21.017l137.6-137.046a12.3,12.3,0,1,1,17.368,17.428L695.237,542.8A12.254,12.254,0,0,1,686.554,546.392Zm-17.2-140.947a12.27,12.27,0,0,1-8.679-3.581l-53.793-53.517a174.773,174.773,0,0,0-19.742-16.956,12.3,12.3,0,1,1,14.587-19.815,199.552,199.552,0,0,1,22.523,19.335l53.784,53.509A12.3,12.3,0,0,1,669.358,405.445ZM957.572,711.279a238.684,238.684,0,0,1-168.984-69.658l-14.909-14.84a12.3,12.3,0,1,1,17.368-17.428l14.908,14.84c83.757,83.425,219.9,83.313,303.515-.28A214.648,214.648,0,0,0,941.4,258.027a12.3,12.3,0,0,1-1.835-24.541A239.245,239.245,0,1,1,957.572,711.279ZM758.711,606.829a12.266,12.266,0,0,1-8.679-3.58L734.7,587.992a12.305,12.305,0,0,1,17.36-17.445l15.333,15.259A12.3,12.3,0,0,1,758.711,606.829ZM467.378,590.634a11.807,11.807,0,0,1-1.839-.136,119.63,119.63,0,0,1-66.761-202.914c46.583-46.582,122.465-46.646,169.144-.152l14.423,14.344a12.3,12.3,0,1,1-17.351,17.444l-14.432-14.352A95.093,95.093,0,0,0,416.178,539.447a94.16,94.16,0,0,0,53.007,26.719A12.3,12.3,0,0,1,467.378,590.634Zm40.927-1.7a12.3,12.3,0,0,1-2.819-24.277,94.652,94.652,0,0,0,45.068-25.092L788.588,302.477a238.681,238.681,0,0,1,110.42-62.448,12.3,12.3,0,1,1,5.976,23.868,214.042,214.042,0,0,0-99.029,56.009L567.922,557a119.3,119.3,0,0,1-56.773,31.613A12.413,12.413,0,0,1,508.305,588.937ZM612.83,461.742a12.269,12.269,0,0,1-8.676-3.581L592.327,446.4a12.3,12.3,0,1,1,17.351-17.444l11.828,11.757A12.3,12.3,0,0,1,612.83,461.742ZM957.319,671.28a198.539,198.539,0,0,1-119.826-39.91c-0.007-.008-0.012-0.008-0.02-0.016-3.949-2.98-7.859-6.159-11.612-9.459a12.305,12.305,0,0,1,16.247-18.485q4.956,4.361,10.158,8.281l0.028,0.024c69.2,52.2,167.636,45.316,228.956-16.01a174.849,174.849,0,0,0,0-247.31,175.459,175.459,0,0,0-170.974-44.644,12.305,12.305,0,0,1-6.609-23.707A200.124,200.124,0,0,1,1098.65,331,199.231,199.231,0,0,1,957.319,671.28ZM483.764,631.434c-41.352,0-82.544-15.73-113.2-46.373a159.559,159.559,0,0,1,0-225.685c55.716-55.713,145.288-62.177,208.381-15.026a12.3,12.3,0,1,1-14.732,19.7c-53.363-39.87-129.126-34.408-176.249,12.719a134.968,134.968,0,0,0,0,190.893c46.47,46.453,121.592,52.395,174.74,13.824a12.3,12.3,0,0,1,14.46,19.91A158.744,158.744,0,0,1,483.764,631.434Zm326.829-29.257a12.271,12.271,0,0,1-8.679-3.582L762.961,559.84a12.305,12.305,0,0,1,17.36-17.445l38.952,38.757A12.306,12.306,0,0,1,810.593,602.177ZM602.376,573.935a12.3,12.3,0,0,1-8.688-21.016L719.249,427.791a12.305,12.305,0,0,1,17.376,17.428L611.064,570.347A12.26,12.26,0,0,1,602.376,573.935ZM641.093,433.6a12.275,12.275,0,0,1-8.681-3.58l-38.519-38.325a12.305,12.305,0,0,1,17.359-17.445l38.52,38.325A12.3,12.3,0,0,1,641.093,433.6ZM753.8,423.105a12.3,12.3,0,0,1-8.683-21.016l71.629-71.347a199.642,199.642,0,0,1,31.87-25.822,12.3,12.3,0,1,1,13.434,20.616,175.067,175.067,0,0,0-27.937,22.635l-71.629,71.346A12.251,12.251,0,0,1,753.8,423.105Z"/>
</svg>
