<svg xmlns="http://www.w3.org/2000/svg" width="208.018" height="158.49" viewBox="0 0 336 256">
  <metadata><?xpacket begin="﻿" id="W5M0MpCehiHzreSzNTczkc9d"?>
<x:xmpmeta xmlns:x="adobe:ns:meta/" x:xmptk="Adobe XMP Core 5.6-c142 79.160924, 2017/07/13-01:06:39        ">
   <rdf:RDF xmlns:rdf="http://www.w3.org/1999/02/22-rdf-syntax-ns#">
      <rdf:Description rdf:about=""/>
   </rdf:RDF>
</x:xmpmeta>
                                                                                                    
                                                                                                    
                                                                                                    
                                                                                                    
                                                                                                    
                                                                                                    
                                                                                                    
                                                                                                    
                                                                                                    
                                                                                                    
                                                                                                    
                                                                                                    
                                                                                                    
                                                                                                    
                                                                                                    
                                                                                                    
                                                                                                    
                                                                                                    
                                                                                                    
                                                                                                    
                           
<?xpacket end="w"?></metadata>
<defs>
    <style>
      .cls-1 {
        fill: #09f;
      }

      .cls-1, .cls-2, .cls-3, .cls-5 {
        fill-rule: evenodd;
      }

      .cls-2, .cls-4 {
        fill: #0069ff;
      }

      .cls-3 {
        fill: none;
        stroke: #09f;
        stroke-width: 10px;
      }

      .cls-5 {
        fill: #fff;
      }
    </style>
  </defs>
  <path class="cls-1" d="M8.024,63.846l79.524,0h23.879a7.98,7.98,0,1,0,0-15.96H47.685a7.982,7.982,0,1,1,0-15.964H90.2a7.98,7.98,0,1,0,0-15.96H47.685a8.025,8.025,0,0,1-8.022-7.979A8.023,8.023,0,0,1,47.687,0H296.013A39.878,39.878,0,0,1,336,39.777l0,135.8v39.788a39.9,39.9,0,0,0-40-39.787H65.344a7.98,7.98,0,1,1,0-15.959l22.205,0,15.272,0a7.983,7.983,0,1,0,0-15.965l-15.271,0-45.994,0a7.98,7.98,0,1,1,0-15.96H87.548v-0.01a7.97,7.97,0,0,0,0-15.939v-0.012H26.831a7.981,7.981,0,1,1,0-15.962h60.72l23.877,0,41.715,0a7.981,7.981,0,1,0,0-15.961l-60.52,0-5.072,0H8.024A7.982,7.982,0,1,1,8.024,63.846Z"/>
  <path class="cls-2" d="M172.076,206.159h46.138l7.285,0h29.987a7.973,7.973,0,1,0,0-15.945H218.215l-22.874,0a7.975,7.975,0,1,1,0-15.949H296A39.866,39.866,0,1,1,296,254l-12.879,0H212.95a7.973,7.973,0,1,1,0-15.946h19.995a7.974,7.974,0,1,0,0-15.948l-7.447,0h-7.284l-46.139,0A7.972,7.972,0,1,1,172.076,206.159Z"/>
  <path class="cls-2" d="M291.368,20.4H110.687a2.4,2.4,0,0,1-2.4-2.388h0a2.4,2.4,0,0,1,2.408-2.393H291.364A49.654,49.654,0,0,1,336,43.507l0,14.516C336,40.733,314.879,20.4,291.368,20.4ZM121.419,156.776a2.391,2.391,0,0,1,2.405-2.389l174.734,0A42.5,42.5,0,0,1,336,176.741v12.732c0-13.323-17.889-30.306-37.44-30.308H123.824a2.392,2.392,0,0,1-2.405-2.388h0Z"/>
  <path id="Color_Fill_1" data-name="Color Fill 1" class="cls-2" d="M202.275,126.237a55.372,55.372,0,0,0,77.937,0,54.491,54.491,0,0,0,0-77.422,55.37,55.37,0,0,0-77.937,0A54.491,54.491,0,0,0,202.275,126.237Z"/>
  <path class="cls-3" d="M208.342,120.376a46.876,46.876,0,0,0,66.03,0,46.254,46.254,0,0,0,0-65.666,46.879,46.879,0,0,0-66.03,0A46.257,46.257,0,0,0,208.342,120.376Z"/>
  <path class="cls-1" d="M265.742,85.659h-5.221V92.41h5.221v5.141h-5.221v13.006h-6.955l-10.5-13.006H230.889v13.006h-8.575V97.551h-5.34V92.41h5.34V85.659h-5.34V80.58h5.34v-14h6.648l11.121,14h11.868V66.644h8.57V80.58h5.221v5.079ZM230.889,92.41h8.074L233.5,85.659h-2.61V92.41Zm18.635,0h2.427V85.659H244.12Z"/>
  <path id="Perpetuity" class="cls-2" d="M568.738,78.321h-67.53l-51.761,57.271V0.472h-52.1V248.764h52.1V206.925l16.8-18.176,40.106,60.015h63.759L502.236,150Zm-8.57,123.459c0,27.093,21.6,51.785,58.96,51.785,22.624,0,39.078-9.6,47.991-24.006,0,11.66,1.371,17.833,1.714,19.205H715.8a167.532,167.532,0,0,1-2.057-26.407V139.022c0-34.981-20.224-65.846-75.414-65.846-50.047,0-72.671,32.237-74.728,56.586l45.248,9.26c1.029-12.689,10.97-25.035,29.138-25.035,16.453,0,25.023,8.573,25.023,18.519,0,5.83-3.085,10.288-12.34,11.66l-40.107,6.173C582.45,154.454,560.168,171.6,560.168,201.78Zm71.643,14.061c-14.4,0-20.224-8.573-20.224-17.49,0-12,8.227-17.147,19.2-18.862l32.222-5.144v7.545C663.005,208.3,647.237,215.841,631.811,215.841Zm91.179-15.432c1.371,18.862,18.51,53.5,71.985,53.5,45.591,0,67.873-28.464,67.873-57.615,0-25.035-17.14-46.3-52.447-53.5l-22.624-4.458c-7.542-1.372-13.369-5.487-13.369-12.689,0-8.917,8.57-14.747,18.511-14.747,15.768,0,22.967,9.6,24.338,20.92l43.191-7.888c-1.714-19.891-18.853-50.756-68.215-50.756-38.05,0-65.473,25.378-65.473,56.586,0,24.006,14.4,44.583,50.733,52.471l19.539,4.458c12.683,2.743,16.8,7.888,16.8,14.061,0,7.544-6.513,14.746-19.882,14.746-17.825,0-26.052-11.317-26.738-22.977Zm205.326-51.785c1.029-15.775,11.655-27.435,28.109-27.435,18.853,0,27.766,12.689,27.766,29.493v98.082H1036.3v-107c0-37.381-19.89-67.9-64.449-67.9-15.083,0-32.908,4.8-43.535,15.432V0.472h-52.1V248.764h52.1V148.624ZM1137.76,205.9c-19.54,0-38.4-14.061-38.4-42.525,0-28.808,18.86-42.182,38.4-42.182,19.88,0,38.39,13.374,38.39,42.182S1157.64,205.9,1137.76,205.9Zm0-132.72c-50.74,0-90.5,37.381-90.5,90.195s39.76,90.537,90.5,90.537c51.07,0,90.49-37.724,90.49-90.537S1188.83,73.176,1137.76,73.176Zm213.21,175.588h50.05a268.543,268.543,0,0,1-1.71-30.522V78.321H1347.2v97.053c0,17.147-10.97,29.15-28.45,29.15-18.51,0-27.42-13.032-27.42-29.493V78.321h-52.11V186.005c0,36.352,23.31,66.531,64.79,66.531,17.14,0,36.68-6.173,45.59-20.919A125.06,125.06,0,0,0,1350.97,248.764Zm136.09-220.17h-46.62V50.542c0,15.775-8.57,27.779-26.4,27.779h-8.57v45.611h30.17v73.047c0,33.952,21.59,54.871,56.9,54.871,16.46,0,25.02-3.772,27.08-4.8V203.838a64.206,64.206,0,0,1-13.71,1.715c-11.31,0-18.85-3.773-18.85-17.833V123.932h33.25V78.321h-33.25V28.594Z"/>
  <rect class="cls-4" x="1541" y="105" width="74" height="151" rx="37" ry="37"/>
  <path id="_.ng" data-name=".ng" class="cls-5" d="M1590.72,224.2a5.075,5.075,0,1,0-5.05-5.05A5.073,5.073,0,0,0,1590.72,224.2Zm4.65-47.477h-35.1v7.822h21.34l-21.34,13.169v9.5h35.1v-7.772H1572.3l23.07-14.456v-8.268Zm0-40h-18.76v17.872h6.63V144.048c1.98,0.445,5.75,2.871,5.75,8.664,0,5.693-3.82,10.545-11.15,10.545-7.82,0-10.99-5.595-10.99-10.347,0-5.842,3.96-8.169,6.14-8.714l-2.62-7.525c-4.9,1.535-10.85,6.189-10.85,16.239,0,9.9,7.28,18.268,18.32,18.268,11.1,0,18.28-8.02,18.28-17.773,0-5-2.08-8.318-4.31-9.852l3.56-.5v-6.337Z"/>
</svg>
