<svg xmlns="http://www.w3.org/2000/svg" xmlns:xlink="http://www.w3.org/1999/xlink" width="999.755" height="156.202" viewBox="0 0 6778 1059">
  <metadata><?xpacket begin="﻿" id="W5M0MpCehiHzreSzNTczkc9d"?>
<x:xmpmeta xmlns:x="adobe:ns:meta/" x:xmptk="Adobe XMP Core 5.6-c142 79.160924, 2017/07/13-01:06:39        ">
   <rdf:RDF xmlns:rdf="http://www.w3.org/1999/02/22-rdf-syntax-ns#">
      <rdf:Description rdf:about=""/>
   </rdf:RDF>
</x:xmpmeta>
                                                                                                    
                                                                                                    
                                                                                                    
                                                                                                    
                                                                                                    
                                                                                                    
                                                                                                    
                                                                                                    
                                                                                                    
                                                                                                    
                                                                                                    
                                                                                                    
                                                                                                    
                                                                                                    
                                                                                                    
                                                                                                    
                                                                                                    
                                                                                                    
                                                                                                    
                                                                                                    
                           
<?xpacket end="w"?></metadata>
<defs>
    <style>
      .cls-1 {
        fill: #fff;
      }

      .cls-1, .cls-2 {
        fill-rule: evenodd;
      }

      .cls-2 {
        fill: url(#linear-gradient);
      }
    </style>
    <linearGradient id="linear-gradient" x1="3473.94" y1="734.875" x2="3473.94" y2="232.531" gradientUnits="userSpaceOnUse">
      <stop offset="0" stop-color="#09f"/>
      <stop offset="1" stop-color="#0069ff"/>
    </linearGradient>
  </defs>
  <path id="Income" class="cls-1" d="M1833.81,94.171a968.964,968.964,0,0,0-118.11,15.311V856.418h170.61V602.7h53.58q170.61,0,262.47-60.7t91.86-197.4q0-135.591-90.77-195.209-90.78-59.594-260.27-59.6Q1896.14,89.8,1833.81,94.171Zm188.11,146q30.6,4.922,51.94,17.5a87.365,87.365,0,0,1,32.81,33.355q11.49,20.787,11.48,52.494,0,65.616-44.83,89.675-44.865,24.069-133.43,24.06h-53.58V238.528q13.125-1.077,31.17-2.187,18.03-1.077,36.63-1.094A429.228,429.228,0,0,1,2021.92,240.168Zm273.94,451.115q18.045,54.7,55.78,94.6,37.725,39.935,95.14,62.883,57.42,22.965,135.06,22.966a574.622,574.622,0,0,0,61.24-3.281q30.615-3.28,57.42-8.2a458.572,458.572,0,0,0,48.66-11.483q21.87-6.562,35-13.123l-21.87-132.327q-27.345,12.047-70.54,20.232a471.138,471.138,0,0,1-88.04,8.2q-69.99,0-111.54-29.528-41.58-29.528-47.03-79.834h369.64q1.08-13.122,2.19-30.074,1.08-16.943,1.09-31.168,0-145.433-71.08-220.362-71.1-74.9-193.57-74.913a275.569,275.569,0,0,0-102.25,19.685,256.9,256.9,0,0,0-88.04,57.962q-38.295,38.292-61.79,95.69-23.535,57.416-23.51,133.968Q2277.82,636.611,2295.86,691.283Zm149.28-180.446a233.01,233.01,0,0,1,10.39-41.01,110.082,110.082,0,0,1,20.23-35.543,97.379,97.379,0,0,1,32.81-24.606q19.68-9.279,47.03-9.3,28.425,0,47.57,9.843a99.3,99.3,0,0,1,31.71,25.153,101.2,101.2,0,0,1,18.59,35,168.839,168.839,0,0,1,7.11,40.464H2445.14Zm785.21-219.816a176.453,176.453,0,0,0-31.71-9.3q-18.615-3.821-37.18-6.562-18.615-2.716-37.19-4.374-18.6-1.641-31.71-1.641-73.29,0-132.88,13.67-59.61,13.688-103.34,28.981V856.418h162.95V416.787q10.92-3.28,32.26-6.015a296.189,296.189,0,0,1,36.63-2.735,318.551,318.551,0,0,1,63.43,6.015q29.535,6.024,51.4,11.484Zm252.62,438.538A192.28,192.28,0,0,1,3433.21,723q-24.6-6.561-39.91-16.4V412.412q12.015-2.179,30.62-3.827,18.585-1.641,40.46-1.641,66.69,0,100.62,45.385,33.87,45.393,33.9,120.844,0,156.4-115.93,156.386h0Zm261.92-285.432q-20.235-55.774-58.5-94.6-38.295-38.808-94.06-60.149-55.77-21.325-126.85-21.326-29.535,0-61.79,2.735-32.28,2.742-63.43,7.108-31.17,4.381-59.6,10.389-28.455,6.024-50.31,12.577V1058.74H3393.3V842.2a303.918,303.918,0,0,0,56.87,18.592,291.987,291.987,0,0,0,63.43,6.561q61.23,0,108.26-21.872a217.317,217.317,0,0,0,78.74-61.242q31.71-39.37,48.12-94.051t16.41-121.39Q3765.13,499.9,3744.89,444.127Zm49.2,247.156q18.045,54.7,55.78,94.6,37.725,39.935,95.14,62.883,57.42,22.965,135.06,22.966a574.809,574.809,0,0,0,61.25-3.281q30.6-3.28,57.41-8.2a459.371,459.371,0,0,0,48.67-11.483q21.855-6.562,34.99-13.123l-21.87-132.327q-27.345,12.047-70.54,20.232a471.111,471.111,0,0,1-88.03,8.2q-70,0-111.55-29.528-41.58-29.528-47.03-79.834h369.64q1.08-13.122,2.19-30.074,1.08-16.943,1.09-31.168,0-145.433-71.08-220.362-71.1-74.9-193.57-74.913a275.569,275.569,0,0,0-102.25,19.685,256.9,256.9,0,0,0-88.04,57.962q-38.295,38.292-61.79,95.69-23.52,57.416-23.51,133.968Q3776.05,636.611,3794.09,691.283Zm149.28-180.446a233.01,233.01,0,0,1,10.39-41.01,110.082,110.082,0,0,1,20.23-35.543,97.379,97.379,0,0,1,32.81-24.606q19.695-9.279,47.03-9.3,28.425,0,47.57,9.843a99.189,99.189,0,0,1,31.71,25.153,101.39,101.39,0,0,1,18.6,35,169.321,169.321,0,0,1,7.1,40.464H3943.37ZM4349.1,621.292q0,55.774,10.39,101.7t36.64,78.194q26.235,32.269,69.99,50.306,43.725,18.045,110.45,18.045,52.5,0,88.59-8.749a461.666,461.666,0,0,0,65.61-20.779l-22.96-126.859a278.339,278.339,0,0,1-50.86,13.67,311.248,311.248,0,0,1-54.13,4.922q-54.7,0-72.73-30.622-18.045-30.6-18.04-82.021V416.787h195.76V281.179H4512.05V111.669L4349.1,137.915V621.292Zm894.56-340.113H5080.71V725.185q-15.33,2.2-35,3.827-19.68,1.641-37.18,1.641-56.865,0-77.64-35-20.79-34.988-20.78-113.737V281.179H4747.16V601.607q0,59.053,12.03,108.267t40.46,84.755q28.425,35.552,77.1,55.227,48.645,19.685,121.94,19.686a881.542,881.542,0,0,0,137.8-10.39q65.61-10.38,107.17-22.419V281.179Zm228.55,0H5309.26V856.418h162.95V281.179ZM5458.54,44.412q-28.98-25.683-68.35-25.7-39.375,0-68.35,25.7-28.995,25.708-28.98,70.537,0,44.856,28.98,70.539,28.965,25.709,68.35,25.7t68.35-25.7q28.965-25.683,28.98-70.539Q5487.52,70.12,5458.54,44.412Zm73.8,576.88q0,55.774,10.39,101.7t36.64,78.194q26.25,32.269,69.99,50.306t110.46,18.045q52.485,0,88.58-8.749a461.815,461.815,0,0,0,65.62-20.779l-22.97-126.859a278.008,278.008,0,0,1-50.85,13.67,311.36,311.36,0,0,1-54.14,4.922q-54.69,0-72.72-30.622-18.045-30.6-18.05-82.021V416.787h195.76V281.179H5695.29V111.669l-162.95,26.246V621.292Zm757.77-340.113q-10.995,42.651-24.71,92.41-13.74,49.776-28.55,100.612-14.82,50.853-30.2,98.972-15.375,48.137-29.64,87.489-15.39-39.371-32.42-87.489T6111.1,474.2q-16.485-50.853-31.31-100.612t-25.81-92.41h-172.8q49.215,169.527,105.03,305.664Q6042.01,723,6097.82,832.359q-16.425,41.548-39.95,65.07-23.535,23.5-67.27,23.512a252.911,252.911,0,0,1-41.59-3.28q-19.695-3.282-44.86-12.03l-28.43,130.139q20.8,8.745,53.1,15.86,32.31,7.095,70.66,7.11,45.99,0,80.49-10.39a177.82,177.82,0,0,0,61.87-32.81q27.375-22.425,50.39-56.869,23-34.449,46-83.662,63.6-136.692,117.33-282.151,53.715-145.434,103.05-311.679h-168.5ZM6625.33,278h19.34A133.335,133.335,0,0,1,6778,411.333V727.667A133.335,133.335,0,0,1,6644.67,861h-19.34A133.335,133.335,0,0,1,6492,727.667V411.333A133.335,133.335,0,0,1,6625.33,278ZM166.667,0H1263.33A166.668,166.668,0,0,1,1430,166.667V777.333A166.668,166.668,0,0,1,1263.33,944H166.667A166.667,166.667,0,0,1,0,777.333V166.667A166.667,166.667,0,0,1,166.667,0ZM3728.39,930.94h-28.22V1056h28.22V930.94Zm364.95,0h-27.87v76.02l-46.92-76.02h-33.87V1056h27.7V973.8l51.5,82.2h29.46V930.94Zm338.93,123.38q11.2-4.32,17.99-11.2a65.979,65.979,0,0,0,10.76-13.93,55.948,55.948,0,0,0,5.73-14.29l-26.63-7.58a34.153,34.153,0,0,1-10.41,16.22q-7.935,7.245-22.4,7.24a35.594,35.594,0,0,1-25.4-10.06q-10.575-10.05-10.58-26.985,0-18.344,10.76-28.311a35.5,35.5,0,0,1,24.87-9.966,38.416,38.416,0,0,1,13.93,2.382,25.489,25.489,0,0,1,9.7,6.173,35.878,35.878,0,0,1,5.47,7.408,29.744,29.744,0,0,1,2.82,7.32l26.29-8.29a47.571,47.571,0,0,0-5.65-14.287,64.668,64.668,0,0,0-10.76-13.406,48.811,48.811,0,0,0-17.55-10.5,70.186,70.186,0,0,0-24.25-3.969q-26.82,0-45.69,18.432t-18.87,47.009q0,28.747,18.7,46.835t46.21,18.08A68.888,68.888,0,0,0,4432.27,1054.32Zm339.64-98.862a36.271,36.271,0,0,1,25.22,9.789q10.755,9.791,10.76,28.134t-10.76,28.049a37.766,37.766,0,0,1-50.54,0q-10.845-9.7-10.84-28.049t10.84-28.134A36.618,36.618,0,0,1,4771.91,955.458Zm-46.13,85.112q18.96,18.075,46.13,18.08,27.15,0,46.03-18.08t18.88-47.012q0-28.926-18.88-47.1t-46.03-18.168q-27.165,0-46.13,18.08t-18.96,47.184Q4706.82,1022.481,4725.78,1040.57Zm501.91-109.63h-38.27l-32.64,84.49-34.39-84.49h-36.34V1056h26.46V974.155L5145.14,1056h22.58l32.63-82.9V1056h27.34V930.94Zm335.84,98.6h-51.5v-23.99h46.57V981.034h-46.57V957.222h51.33V930.94h-79.2V1056h79.37v-26.46Z"/>
  <path class="cls-2" d="M6673.18,704.766a19.138,19.138,0,0,0,0,24.657q4.485,5.448,13.1,5.448t13.11-5.448a19.138,19.138,0,0,0,0-24.657q-4.485-5.446-13.11-5.447T6673.18,704.766ZM6701.4,552.91H6568.79v29.627h78.27q-10.335,6.88-21.53,14.717t-21.63,15.769q-10.425,7.935-19.61,15.578t-15.5,13.953v24.274H6701.4V637.393h-86.88a458.566,458.566,0,0,1,41.91-31.729q22.2-14.909,44.97-27.714V552.91ZM6594.14,428.958a78.113,78.113,0,0,1,5.65-14.049l-23.92-8.6q-0.96,1.533-2.68,5.065a60.794,60.794,0,0,0-3.35,8.984,107.6,107.6,0,0,0-2.87,13,104.571,104.571,0,0,0-1.24,16.915,72.6,72.6,0,0,0,4.59,25.9,59.6,59.6,0,0,0,13.49,21.121,63.534,63.534,0,0,0,21.72,14.144q12.825,5.16,29.47,5.161,16.455,0,29.28-4.683a59.776,59.776,0,0,0,21.62-13.284,56.615,56.615,0,0,0,13.4-20.739,75.941,75.941,0,0,0,4.59-27.046q0-17.39-2.39-29.244t-4.5-17.2h-65.64v29.817h46.12a40.935,40.935,0,0,1,.77,6.212c0.12,2.36.19,5.194,0.19,8.506a38.085,38.085,0,0,1-3.16,16.056,30.915,30.915,0,0,1-8.9,11.468,38.83,38.83,0,0,1-13.68,6.881,63.664,63.664,0,0,1-17.7,2.294q-20.085,0-31.67-9.271t-11.58-30.1A59.861,59.861,0,0,1,6594.14,428.958ZM483.512,711.527A239.362,239.362,0,1,1,646.251,296.718a12.305,12.305,0,0,1-16.742,18.038,214.789,214.789,0,1,0-51.754,350.413,12.305,12.305,0,1,1,10.783,22.122A239.594,239.594,0,0,1,483.512,711.527Zm143-50.651a12.3,12.3,0,0,1-7.763-21.85,216.012,216.012,0,0,0,16.286-14.664l238.041-237.1c46.676-46.494,122.55-46.438,169.143.152A119.7,119.7,0,0,1,878.1,561.561a12.3,12.3,0,1,1,16.342-18.389,95.1,95.1,0,1,0-4-138.48L652.412,641.783a239.538,239.538,0,0,1-18.153,16.338A12.214,12.214,0,0,1,626.513,660.876ZM866.544,534.89a12.27,12.27,0,0,1-8.679-3.58l-33.653-33.494a12.305,12.305,0,0,1,17.359-17.445l33.653,33.5A12.3,12.3,0,0,1,866.544,534.89ZM697.625,377.3a12.273,12.273,0,0,1-8.68-3.58l-33.653-33.5a12.3,12.3,0,1,1,17.359-17.444L706.3,356.275A12.3,12.3,0,0,1,697.625,377.3Zm-214.2,294.277a199.421,199.421,0,1,1,72.738-385.085,12.3,12.3,0,1,1-8.94,22.922A174.867,174.867,0,0,0,359.749,595.873c68.08,68.055,178.941,68.151,247.133.224l44.341-44.171a12.3,12.3,0,1,1,17.367,17.428l-44.34,44.172A198.929,198.929,0,0,1,483.428,671.577ZM957.211,631.49a159.149,159.149,0,0,1-38.8-4.781,12.305,12.305,0,0,1,6-23.868A135.865,135.865,0,0,0,1053.04,567.5a134.969,134.969,0,0,0,0-190.892c-48.67-48.649-128.321-52.469-181.349-8.707a12.307,12.307,0,0,1-15.669-18.982A159.594,159.594,0,1,1,957.211,631.49Zm-80.877-24.26a12.255,12.255,0,0,1-6.769-2.034,159.772,159.772,0,0,1-24.657-20.1l-53.681-53.4a12.3,12.3,0,0,1,17.359-17.443l53.689,53.4a135.267,135.267,0,0,0,20.852,17A12.3,12.3,0,0,1,876.334,607.23Zm-189.78-60.838a12.3,12.3,0,0,1-8.684-21.017l137.6-137.046a12.3,12.3,0,1,1,17.368,17.428L695.237,542.8A12.254,12.254,0,0,1,686.554,546.392Zm-17.2-140.947a12.27,12.27,0,0,1-8.679-3.581l-53.793-53.517a174.773,174.773,0,0,0-19.742-16.956,12.3,12.3,0,1,1,14.587-19.815,199.552,199.552,0,0,1,22.523,19.335l53.784,53.509A12.3,12.3,0,0,1,669.358,405.445ZM957.572,711.279a238.684,238.684,0,0,1-168.984-69.658l-14.909-14.84a12.3,12.3,0,1,1,17.368-17.428l14.908,14.84c83.757,83.425,219.9,83.313,303.515-.28A214.648,214.648,0,0,0,941.4,258.027a12.3,12.3,0,0,1-1.835-24.541A239.245,239.245,0,1,1,957.572,711.279ZM758.711,606.829a12.266,12.266,0,0,1-8.679-3.58L734.7,587.992a12.305,12.305,0,0,1,17.36-17.445l15.333,15.259A12.3,12.3,0,0,1,758.711,606.829ZM467.378,590.634a11.807,11.807,0,0,1-1.839-.136,119.63,119.63,0,0,1-66.761-202.914c46.583-46.582,122.465-46.646,169.144-.152l14.423,14.344a12.3,12.3,0,1,1-17.351,17.444l-14.432-14.352A95.093,95.093,0,0,0,416.178,539.447a94.16,94.16,0,0,0,53.007,26.719A12.3,12.3,0,0,1,467.378,590.634Zm40.927-1.7a12.3,12.3,0,0,1-2.819-24.277,94.652,94.652,0,0,0,45.068-25.092L788.588,302.477a238.681,238.681,0,0,1,110.42-62.448,12.3,12.3,0,1,1,5.976,23.868,214.042,214.042,0,0,0-99.029,56.009L567.922,557a119.3,119.3,0,0,1-56.773,31.613A12.413,12.413,0,0,1,508.305,588.937ZM612.83,461.742a12.269,12.269,0,0,1-8.676-3.581L592.327,446.4a12.3,12.3,0,1,1,17.351-17.444l11.828,11.757A12.3,12.3,0,0,1,612.83,461.742ZM957.319,671.28a198.539,198.539,0,0,1-119.826-39.91c-0.007-.008-0.012-0.008-0.02-0.016-3.949-2.98-7.859-6.159-11.612-9.459a12.305,12.305,0,0,1,16.247-18.485q4.956,4.361,10.158,8.281l0.028,0.024c69.2,52.2,167.636,45.316,228.956-16.01a174.849,174.849,0,0,0,0-247.31,175.459,175.459,0,0,0-170.974-44.644,12.305,12.305,0,0,1-6.609-23.707A200.124,200.124,0,0,1,1098.65,331,199.231,199.231,0,0,1,957.319,671.28ZM483.764,631.434c-41.352,0-82.544-15.73-113.2-46.373a159.559,159.559,0,0,1,0-225.685c55.716-55.713,145.288-62.177,208.381-15.026a12.3,12.3,0,1,1-14.732,19.7c-53.363-39.87-129.126-34.408-176.249,12.719a134.968,134.968,0,0,0,0,190.893c46.47,46.453,121.592,52.395,174.74,13.824a12.3,12.3,0,0,1,14.46,19.91A158.744,158.744,0,0,1,483.764,631.434Zm326.829-29.257a12.271,12.271,0,0,1-8.679-3.582L762.961,559.84a12.305,12.305,0,0,1,17.36-17.445l38.952,38.757A12.306,12.306,0,0,1,810.593,602.177ZM602.376,573.935a12.3,12.3,0,0,1-8.688-21.016L719.249,427.791a12.305,12.305,0,0,1,17.376,17.428L611.064,570.347A12.26,12.26,0,0,1,602.376,573.935ZM641.093,433.6a12.275,12.275,0,0,1-8.681-3.58l-38.519-38.325a12.305,12.305,0,0,1,17.359-17.445l38.52,38.325A12.3,12.3,0,0,1,641.093,433.6ZM753.8,423.105a12.3,12.3,0,0,1-8.683-21.016l71.629-71.347a199.642,199.642,0,0,1,31.87-25.822,12.3,12.3,0,1,1,13.434,20.616,175.067,175.067,0,0,0-27.937,22.635l-71.629,71.346A12.251,12.251,0,0,1,753.8,423.105Z"/>
</svg>
