<svg id="Shapes" xmlns="http://www.w3.org/2000/svg" xmlns:xlink="http://www.w3.org/1999/xlink" width="900.708" height="185.194" viewBox="0 0 5063 1041">
  <metadata><?xpacket begin="﻿" id="W5M0MpCehiHzreSzNTczkc9d"?>
<x:xmpmeta xmlns:x="adobe:ns:meta/" x:xmptk="Adobe XMP Core 5.6-c142 79.160924, 2017/07/13-01:06:39        ">
   <rdf:RDF xmlns:rdf="http://www.w3.org/1999/02/22-rdf-syntax-ns#">
      <rdf:Description rdf:about=""/>
   </rdf:RDF>
</x:xmpmeta>
                                                                                                    
                                                                                                    
                                                                                                    
                                                                                                    
                                                                                                    
                                                                                                    
                                                                                                    
                                                                                                    
                                                                                                    
                                                                                                    
                                                                                                    
                                                                                                    
                                                                                                    
                                                                                                    
                                                                                                    
                                                                                                    
                                                                                                    
                                                                                                    
                                                                                                    
                                                                                                    
                           
<?xpacket end="w"?></metadata>
<defs>
    <style>
      .cls-1, .cls-2 {
        fill-rule: evenodd;
      }

      .cls-1 {
        fill: url(#linear-gradient);
      }

      .cls-2 {
        fill: #fff;
      }
    </style>
    <linearGradient id="linear-gradient" x1="2531.859" y1="1040.75" x2="2531.859" y2="0.719" gradientUnits="userSpaceOnUse">
      <stop offset="0" stop-color="#09f"/>
      <stop offset="1" stop-color="#0069ff"/>
    </linearGradient>
  </defs>
  <path id="Income" class="cls-1" d="M118.814,76.171A968.574,968.574,0,0,0,.7,91.482V838.418h170.6V584.7h53.586q170.6,0,262.467-60.7t91.864-197.4q0-135.591-90.77-195.209Q397.669,71.8,228.175,71.8,181.142,71.8,118.814,76.171Zm188.1,146q30.6,4.922,51.947,17.5a87.426,87.426,0,0,1,32.809,33.355q11.483,20.787,11.482,52.494,0,65.616-44.838,89.675-44.856,24.069-133.421,24.06H171.308V220.528q13.122-1.077,31.168-2.187,18.043-1.077,36.635-1.094A429.159,429.159,0,0,1,306.915,222.168ZM580.862,673.283q18.045,54.7,55.775,94.6,37.73,39.935,95.144,62.883,57.414,22.965,135.061,22.966a574.744,574.744,0,0,0,61.242-3.281q30.6-3.28,57.415-8.2a458.535,458.535,0,0,0,48.661-11.483q21.87-6.562,35-13.123l-21.87-132.327q-27.345,12.047-70.54,20.232a471.119,471.119,0,0,1-88.036,8.2q-70,0-111.548-29.528-41.574-29.528-47.025-79.834H1099.78q1.08-13.122,2.19-30.074,1.08-16.943,1.09-31.168,0-145.433-71.08-220.362-71.106-74.9-193.572-74.913a275.626,275.626,0,0,0-102.252,19.685,256.954,256.954,0,0,0-88.036,57.962q-38.293,38.292-61.789,95.69Q562.8,478.621,562.818,555.173,562.818,618.611,580.862,673.283ZM730.141,492.837a232.744,232.744,0,0,1,10.389-41.01,110.177,110.177,0,0,1,20.231-35.543,97.345,97.345,0,0,1,32.809-24.606q19.684-9.279,47.025-9.3,28.427,0,47.573,9.843a99.238,99.238,0,0,1,31.714,25.153,101.423,101.423,0,0,1,18.592,35,169.183,169.183,0,0,1,7.108,40.464H730.141ZM1515.35,273.021a176.453,176.453,0,0,0-31.71-9.3q-18.615-3.821-37.18-6.562-18.615-2.716-37.19-4.374-18.6-1.641-31.71-1.641-73.29,0-132.88,13.67-59.61,13.688-103.34,28.981V838.418h162.95V398.787q10.92-3.28,32.26-6.015a296.189,296.189,0,0,1,36.63-2.735,318.551,318.551,0,0,1,63.43,6.015q29.535,6.024,51.4,11.484Zm252.62,438.538A192.28,192.28,0,0,1,1718.21,705q-24.6-6.561-39.91-16.4V394.412q12.015-2.179,30.62-3.827,18.585-1.641,40.46-1.641,66.69,0,100.62,45.385,33.87,45.393,33.9,120.844,0,156.4-115.93,156.386h0Zm261.92-285.432q-20.235-55.774-58.5-94.6-38.3-38.808-94.06-60.149-55.77-21.325-126.85-21.326-29.535,0-61.79,2.735-32.28,2.742-63.43,7.108-31.17,4.381-59.6,10.389-28.455,6.024-50.31,12.577V1040.74H1678.3V824.2a303.918,303.918,0,0,0,56.87,18.592,291.987,291.987,0,0,0,63.43,6.561q61.23,0,108.26-21.872a217.317,217.317,0,0,0,78.74-61.242q31.71-39.37,48.12-94.051t16.41-121.39Q2050.13,481.9,2029.89,426.127Zm49.2,247.156q18.045,54.7,55.78,94.6,37.725,39.935,95.14,62.883,57.42,22.965,135.06,22.966a574.809,574.809,0,0,0,61.25-3.281q30.6-3.28,57.41-8.2a459.371,459.371,0,0,0,48.67-11.483q21.855-6.562,34.99-13.123l-21.87-132.327q-27.345,12.047-70.54,20.232a471.111,471.111,0,0,1-88.03,8.2q-70,0-111.55-29.528-41.58-29.528-47.03-79.834h369.64q1.08-13.122,2.19-30.074,1.08-16.943,1.09-31.168,0-145.433-71.08-220.362-71.1-74.9-193.57-74.913a275.569,275.569,0,0,0-102.25,19.685,256.9,256.9,0,0,0-88.04,57.962q-38.295,38.292-61.79,95.69-23.52,57.416-23.51,133.968Q2061.05,618.611,2079.09,673.283Zm149.28-180.446a233.01,233.01,0,0,1,10.39-41.01,110.082,110.082,0,0,1,20.23-35.543,97.379,97.379,0,0,1,32.81-24.606q19.695-9.279,47.03-9.3,28.425,0,47.57,9.843a99.189,99.189,0,0,1,31.71,25.153,101.39,101.39,0,0,1,18.6,35,169.321,169.321,0,0,1,7.1,40.464H2228.37ZM2634.1,603.292q0,55.774,10.39,101.7t36.64,78.194q26.235,32.269,69.99,50.306,43.725,18.045,110.45,18.045,52.5,0,88.59-8.749a461.666,461.666,0,0,0,65.61-20.779l-22.96-126.859a278.339,278.339,0,0,1-50.86,13.67,311.248,311.248,0,0,1-54.13,4.922q-54.705,0-72.73-30.622-18.045-30.6-18.04-82.021V398.787h195.76V263.179H2797.05V93.669L2634.1,119.915V603.292Zm894.56-340.113H3365.71V707.185q-15.33,2.2-35,3.827-19.68,1.641-37.18,1.641-56.865,0-77.64-35t-20.78-113.737V263.179H3032.16V583.607q0,59.053,12.03,108.267,12.015,49.213,40.46,84.755,28.425,35.552,77.1,55.227,48.645,19.685,121.94,19.686a881.542,881.542,0,0,0,137.8-10.39q65.61-10.38,107.17-22.419V263.179Zm228.55,0H3594.26V838.418h162.95V263.179ZM3743.54,26.412q-28.98-25.683-68.35-25.7-39.375,0-68.35,25.7-28.995,25.708-28.98,70.538,0,44.855,28.98,70.539,28.965,25.709,68.35,25.7t68.35-25.7q28.965-25.683,28.98-70.538Q3772.52,52.12,3743.54,26.412Zm73.8,576.88q0,55.774,10.39,101.7t36.64,78.194q26.25,32.269,69.99,50.306,43.725,18.045,110.46,18.045,52.485,0,88.58-8.749a461.815,461.815,0,0,0,65.62-20.779l-22.97-126.859a278.008,278.008,0,0,1-50.85,13.67,311.36,311.36,0,0,1-54.14,4.922q-54.69,0-72.72-30.622-18.045-30.6-18.05-82.021V398.787h195.76V263.179H3980.29V93.669l-162.95,26.246V603.292Zm757.77-340.113q-10.995,42.651-24.71,92.41-13.74,49.776-28.55,100.612-14.82,50.853-30.2,98.972-15.375,48.137-29.64,87.489-15.39-39.371-32.42-87.489T4396.1,456.2q-16.485-50.853-31.31-100.612t-25.81-92.41h-172.8q49.215,169.527,105.03,305.664Q4327.01,705,4382.82,814.359q-16.425,41.548-39.95,65.07-23.535,23.5-67.27,23.512a252.911,252.911,0,0,1-41.59-3.28q-19.695-3.282-44.86-12.03l-28.43,130.139q20.8,8.745,53.1,15.86,32.31,7.095,70.66,7.11,45.99,0,80.49-10.39a177.805,177.805,0,0,0,61.87-32.811q27.375-22.428,50.39-56.868,23-34.449,46-83.662,63.6-136.692,117.33-282.151,53.715-145.434,103.05-311.679h-168.5ZM4910.33,260h19.34A133.335,133.335,0,0,1,5063,393.333V709.667A133.335,133.335,0,0,1,4929.67,843h-19.34A133.335,133.335,0,0,1,4777,709.667V393.333A133.335,133.335,0,0,1,4910.33,260ZM2013.39,912.94h-28.22V1038h28.22V912.94Zm364.95,0h-27.87v76.024l-46.92-76.024h-33.87V1038h27.7V955.8l51.5,82.2h29.46V912.94Zm338.93,123.38q11.2-4.32,17.99-11.2a65.979,65.979,0,0,0,10.76-13.93,55.956,55.956,0,0,0,5.73-14.289l-26.63-7.585a34.131,34.131,0,0,1-10.41,16.224q-7.935,7.245-22.4,7.24a35.594,35.594,0,0,1-25.4-10.06q-10.575-10.052-10.58-26.985,0-18.344,10.76-28.311a35.5,35.5,0,0,1,24.87-9.966,38.416,38.416,0,0,1,13.93,2.382,25.489,25.489,0,0,1,9.7,6.173,35.878,35.878,0,0,1,5.47,7.408,29.744,29.744,0,0,1,2.82,7.32l26.29-8.29a47.571,47.571,0,0,0-5.65-14.287,64.668,64.668,0,0,0-10.76-13.406,48.811,48.811,0,0,0-17.55-10.5,70.186,70.186,0,0,0-24.25-3.969q-26.82,0-45.69,18.432t-18.87,47.009q0,28.752,18.7,46.835t46.21,18.08A68.888,68.888,0,0,0,2717.27,1036.32Zm339.64-98.862a36.271,36.271,0,0,1,25.22,9.789q10.755,9.791,10.76,28.134t-10.76,28.049a37.766,37.766,0,0,1-50.54,0q-10.845-9.7-10.84-28.049t10.84-28.134A36.618,36.618,0,0,1,3056.91,937.458Zm-46.13,85.112q18.96,18.075,46.13,18.08,27.15,0,46.03-18.08t18.88-47.012q0-28.926-18.88-47.1t-46.03-18.168q-27.165,0-46.13,18.08t-18.96,47.184Q2991.82,1004.489,3010.78,1022.57Zm501.91-109.63h-38.27l-32.64,84.49-34.39-84.49h-36.34V1038h26.46V956.155L3430.14,1038h22.58l32.63-82.9V1038h27.34V912.94Zm335.84,98.6h-51.5V987.553h46.57V963.034h-46.57V939.222h51.33V912.94h-79.2V1038h79.37v-26.46Z"/>
  <path class="cls-2" d="M4958.18,686.766a19.138,19.138,0,0,0,0,24.657q4.485,5.448,13.1,5.448t13.11-5.448a19.138,19.138,0,0,0,0-24.657q-4.485-5.446-13.11-5.447T4958.18,686.766ZM4986.4,534.91H4853.79v29.627h78.27q-10.335,6.88-21.53,14.717t-21.63,15.769q-10.425,7.935-19.61,15.578t-15.5,13.953v24.274H4986.4V619.393h-86.88a458.566,458.566,0,0,1,41.91-31.729q22.2-14.909,44.97-27.714V534.91ZM4879.14,410.958a78.113,78.113,0,0,1,5.65-14.049l-23.92-8.6q-0.96,1.533-2.68,5.065a60.794,60.794,0,0,0-3.35,8.984,107.6,107.6,0,0,0-2.87,13,104.571,104.571,0,0,0-1.24,16.915,72.6,72.6,0,0,0,4.59,25.9,59.6,59.6,0,0,0,13.49,21.121,63.534,63.534,0,0,0,21.72,14.144q12.825,5.16,29.47,5.161,16.455,0,29.28-4.683a59.776,59.776,0,0,0,21.62-13.284,56.615,56.615,0,0,0,13.4-20.739,75.941,75.941,0,0,0,4.59-27.046q0-17.39-2.39-29.244t-4.5-17.2h-65.64v29.817h46.12a40.935,40.935,0,0,1,.77,6.212c0.12,2.36.19,5.194,0.19,8.506a38.085,38.085,0,0,1-3.16,16.056,30.915,30.915,0,0,1-8.9,11.468,38.83,38.83,0,0,1-13.68,6.881,63.664,63.664,0,0,1-17.7,2.294q-20.085,0-31.67-9.271t-11.58-30.1A59.861,59.861,0,0,1,4879.14,410.958Z"/>
</svg>
