<svg xmlns="http://www.w3.org/2000/svg" xmlns:xlink="http://www.w3.org/1999/xlink" width="264" height="280" viewBox="0 0 264 280">
  <defs>
    <clipPath id="clip-path">
      <rect width="264" height="280" fill="none"/>
    </clipPath>
    <clipPath id="clip-path-2">
      <path id="Body" d="M0,244v-9a72,72,0,0,1,72-72h4V144.611a56.038,56.038,0,0,1-31.694-44.73A12,12,0,0,1,34,88V74A12,12,0,0,1,44,62.166V56a56,56,0,0,1,112,0v6.166A12,12,0,0,1,166,74V88a12,12,0,0,1-10.305,11.881A56.038,56.038,0,0,1,124,144.611V163h4a72,72,0,0,1,72,72v9Z" fill="#d0c6ac"/>
    </clipPath>
    <clipPath id="clip-path-3">
      <rect width="200" height="77.998" fill="none"/>
    </clipPath>
    <clipPath id="clip-path-4">
      <path id="Clothes" d="M200,78H0V69.052A72.05,72.05,0,0,1,51.534,0,18.064,18.064,0,0,0,51,4.348c0,7.874,5.149,15.277,14.5,20.845s21.78,8.634,35,8.634,25.652-3.066,35-8.634S150,12.222,150,4.348A18.045,18.045,0,0,0,149.544.33,71.927,71.927,0,0,1,200,69.052V78Z" transform="translate(32 32)" fill="#e6e6e6"/>
    </clipPath>
    <clipPath id="clip-path-5">
      <rect width="37.787" height="19" fill="none"/>
    </clipPath>
    <clipPath id="clip-path-6">
      <path id="Mouth" d="M.008,2.128A19,19,0,0,0,18.89,19,19,19,0,0,0,37.782,2.04,2.1,2.1,0,0,0,35.933,0H1.977A2.132,2.132,0,0,0,.008,2.128Z" transform="translate(35.11 13)" fill="rgba(0,0,0,0.7)"/>
    </clipPath>
    <clipPath id="clip-path-7">
      <rect width="24" height="8" fill="none"/>
    </clipPath>
    <clipPath id="clip-path-8">
      <rect width="64" height="12" fill="none"/>
    </clipPath>
    <clipPath id="clip-path-9">
      <rect width="88.001" height="11.922" fill="none"/>
    </clipPath>
    <clipPath id="clip-path-11">
      <rect width="264" height="280.001" fill="none"/>
    </clipPath>
    <clipPath id="clip-path-12">
      <path id="Mask_Hair" data-name="Mask Hair" d="M264,280H232v-9a72.082,72.082,0,0,0-72-72h-4V180.611a56.189,56.189,0,0,0,31.792-45.745A12.071,12.071,0,0,0,198,123V110a11.963,11.963,0,0,0-10-11.833V92a55.611,55.611,0,0,0-4.639-22.351c-2.291-3.843-8.771-7.022-18.74-9.194a158.816,158.816,0,0,0-32.39-3.013,163.408,163.408,0,0,0-32.975,3.052c-10.1,2.174-16.512,5.283-18.547,8.991A55.587,55.587,0,0,0,76,92v6.167A11.962,11.962,0,0,0,66,110v13a12.072,12.072,0,0,0,10.208,11.866A56.188,56.188,0,0,0,108,180.611V199h-4a72.082,72.082,0,0,0-72,72v9H0V0H264V280Z" fill="none"/>
    </clipPath>
    <clipPath id="clip-path-13">
      <rect fill="none"/>
    </clipPath>
    <clipPath id="clip-path-14">
      <rect width="129" height="41" fill="none"/>
    </clipPath>
    <linearGradient id="linear-gradient" x1="0.5" x2="0.5" y2="1" gradientUnits="objectBoundingBox">
      <stop offset="0" stop-color="#fff" stop-opacity="0.502"/>
      <stop offset="0.705" stop-opacity="0.502"/>
    </linearGradient>
  </defs>
  <g id="avataaar" clip-path="url(#clip-path)">
    <g id="Body-2" data-name="Body" transform="translate(32 36)">
      <path id="Body-3" data-name="Body" d="M0,244v-9a72,72,0,0,1,72-72h4V144.611a56.038,56.038,0,0,1-31.694-44.73A12,12,0,0,1,34,88V74A12,12,0,0,1,44,62.166V56a56,56,0,0,1,112,0v6.166A12,12,0,0,1,166,74V88a12,12,0,0,1-10.305,11.881A56.038,56.038,0,0,1,124,144.611V163h4a72,72,0,0,1,72,72v9Z" fill="#d0c6ac"/>
      <g id="Body-4" data-name="Body" clip-path="url(#clip-path-2)">
        <g id="_Skin" data-name="ðŸŽ¨ Skin" transform="translate(-32)">
          <rect id="_Skin_background" data-name="ðŸŽ¨ Skin background" width="264" height="244" fill="rgba(0,0,0,0)"/>
          <rect id="Color" width="244" height="244" fill="#ae5d29"/>
        </g>
        <path id="Neck_Shadow" data-name="Neck Shadow" d="M56,79A55.825,55.825,0,0,1,16.4,62.6,55.825,55.825,0,0,1,0,23V15.477a56,56,0,0,0,112-.451V23A56.063,56.063,0,0,1,77.8,74.6,55.65,55.65,0,0,1,56,79Z" transform="translate(44 79)" fill="rgba(0,0,0,0.1)"/>
      </g>
    </g>
    <g id="_Clothes" data-name="ðŸ‘” Clothes" transform="translate(32 202.002)" clip-path="url(#clip-path-3)">
      <path id="Clothes-2" data-name="Clothes" d="M200,78H0V69.052A72.05,72.05,0,0,1,51.534,0,18.064,18.064,0,0,0,51,4.348c0,7.874,5.149,15.277,14.5,20.845s21.78,8.634,35,8.634,25.652-3.066,35-8.634S150,12.222,150,4.348A18.045,18.045,0,0,0,149.544.33,71.927,71.927,0,0,1,200,69.052V78Z" transform="translate(0 -0.002)" fill="#e6e6e6"/>
      <g transform="translate(-32 -32.002)" clip-path="url(#clip-path-4)">
        <g id="_Color_Fabric" data-name="â†³ Color Fabric">
          <rect id="_Color_Fabric_background" data-name="â†³ Color Fabric background" width="264" height="110" fill="rgba(0,0,0,0)"/>
          <rect id="_Color" data-name="ðŸ–Color" width="264" height="110" fill="#e6e6e6"/>
        </g>
      </g>
    </g>
    <g id="Face" transform="translate(76 82)">
      <g id="_Mouth" data-name="ðŸ‘„ Mouth" transform="translate(37.11 65)" clip-path="url(#clip-path-5)">
        <path id="Mouth-2" data-name="Mouth" d="M.008,2.128A19,19,0,0,0,18.89,19,19,19,0,0,0,37.782,2.04,2.1,2.1,0,0,0,35.933,0H1.977A2.132,2.132,0,0,0,.008,2.128Z" fill="rgba(0,0,0,0.7)"/>
        <g transform="translate(-35.11 -13)" clip-path="url(#clip-path-6)">
          <rect id="Teeth" width="31" height="16" rx="5" transform="translate(39 2)" fill="#fff"/>
          <g id="Tongue" transform="translate(38 24)">
            <circle id="Tongue-2" data-name="Tongue" cx="11" cy="11" r="11" fill="#ff4f6d"/>
            <circle id="Tongue-3" data-name="Tongue" cx="11" cy="11" r="11" transform="translate(10)" fill="#ff4f6d"/>
          </g>
        </g>
      </g>
      <g id="_Nose" data-name="ðŸ‘ƒðŸ½ Nose" transform="translate(44 48)" clip-path="url(#clip-path-7)">
        <path id="Nose" d="M0,0C0,4.418,5.373,8,12,8h0c6.627,0,12-3.582,12-8" fill="rgba(0,0,0,0.16)"/>
      </g>
      <g id="_Eyes" data-name="ðŸ‘ Eyes" transform="translate(24 24)" clip-path="url(#clip-path-8)">
        <circle id="Eye" cx="6" cy="6" r="6" fill="rgba(0,0,0,0.6)"/>
        <circle id="Eye-2" data-name="Eye" cx="6" cy="6" r="6" transform="translate(52)" fill="rgba(0,0,0,0.6)"/>
      </g>
      <g id="_Eyebrow" data-name="âœï¸ Eyebrow" transform="translate(12 6.078)" clip-path="url(#clip-path-9)">
        <g id="I_Browse" data-name="I Browse" transform="translate(0 -0.078)">
          <path id="Eyebrow" d="M3.63,11.08c3.915-5.509,14.648-8.6,23.893-6.327A2,2,0,1,0,28.477.868C17.741-1.768,5.312,1.809.37,8.763A2,2,0,0,0,3.63,11.08Z" transform="translate(0 0.078)" fill="rgba(0,0,0,0.6)"/>
          <path id="Eyebrow-2" data-name="Eyebrow" d="M-3.63,11.08c-3.915-5.509-14.648-8.6-23.893-6.327a2,2,0,0,1-2.419-1.465A2,2,0,0,1-28.477.868C-17.741-1.768-5.312,1.809-.37,8.763a2,2,0,0,1-.472,2.789A2,2,0,0,1-3.63,11.08Z" transform="translate(88 0.078)" fill="rgba(0,0,0,0.6)"/>
        </g>
      </g>
    </g>
    <g id="Top">
      <rect id="Mask-2" data-name="Mask" width="264" height="280" fill="none"/>
      <g id="Top-2" data-name="Top" clip-path="url(#clip-path)">
        <g id="Top-3" data-name="Top" transform="translate(0 0)" clip-path="url(#clip-path-11)">
          <g id="Hat" transform="translate(0 0)">
            <path id="Mask_Hair-2" data-name="Mask Hair" d="M264,280H232v-9a72.082,72.082,0,0,0-72-72h-4V180.611a56.189,56.189,0,0,0,31.792-45.745A12.071,12.071,0,0,0,198,123V110a11.963,11.963,0,0,0-10-11.833V92a55.611,55.611,0,0,0-4.639-22.351c-2.291-3.843-8.771-7.022-18.74-9.194a158.816,158.816,0,0,0-32.39-3.013,163.408,163.408,0,0,0-32.975,3.052c-10.1,2.174-16.512,5.283-18.547,8.991A55.587,55.587,0,0,0,76,92v6.167A11.962,11.962,0,0,0,66,110v13a12.072,12.072,0,0,0,10.208,11.866A56.188,56.188,0,0,0,108,180.611V199h-4a72.082,72.082,0,0,0-72,72v9H0V0H264V280Z" fill="none"/>
            <g id="Hat-2" data-name="Hat" clip-path="url(#clip-path-12)">
              <path id="Hat-3" data-name="Hat" d="M9.11,31.436A40,40,0,0,1,48.182,0H66.818A40,40,0,0,1,105.89,31.436L115,73H0Z" transform="translate(75 2)" fill="#1f333c"/>
              <ellipse id="Hipster" cx="122" cy="57.5" rx="122" ry="57.5" transform="translate(10 30)" fill="#1f333c"/>
              <ellipse id="Very" cx="62" cy="25" rx="62" ry="25" transform="translate(70 57)" fill="#15232a"/>
            </g>
          </g>
          <g id="_Accessory" data-name="â†³ ðŸ‘“ Accessory" transform="translate(68 92)" clip-path="url(#clip-path-14)">
            <g id="Wayfarers">
              <g id="Shades" transform="translate(10.795 2.929)">
                <g id="Shade">
                  <path id="Shade-2" data-name="Shade" d="M43.995,17.571c0,9.7-8.25,17.571-22,17.571h-2.75C5.5,35.143,0,27.271,0,17.571H0C0,7.866,1.284,0,20.532,0h2.932C42.711,0,43.995,7.866,43.995,17.571Z" transform="translate(0.923)" fill="rgba(0,0,0,0.7)"/>
                  <path id="Shade-3" data-name="Shade" d="M43.995,17.571c0,9.7-8.25,17.571-22,17.571h-2.75C5.5,35.143,0,27.271,0,17.571H0C0,7.866,1.284,0,20.532,0h2.932C42.711,0,43.995,7.866,43.995,17.571Z" transform="translate(0.923)" fill="url(#linear-gradient)"/>
                </g>
                <g id="Shade-4" data-name="Shade">
                  <path id="Shade-5" data-name="Shade" d="M43.995,17.571c0,9.7-8.247,17.571-22,17.571h-2.75C5.5,35.143,0,27.271,0,17.571H0C0,7.866,1.284,0,20.532,0h2.932C42.708,0,43.995,7.866,43.995,17.571Z" transform="translate(62.491)" fill="rgba(0,0,0,0.7)"/>
                  <path id="Shade-6" data-name="Shade" d="M43.995,17.571c0,9.7-8.247,17.571-22,17.571h-2.75C5.5,35.143,0,27.271,0,17.571H0C0,7.866,1.284,0,20.532,0h2.932C42.708,0,43.995,7.866,43.995,17.571Z" transform="translate(62.491)" fill="url(#linear-gradient)"/>
                </g>
              </g>
              <path id="Left" d="M24.929,41H22.18C8.291,41,0,33.337,0,20.5,0,10.127,1.812,0,23.463,0H26.4C48.047,0,49.858,10.127,49.858,20.5,49.858,32.57,39.607,41,24.929,41ZM23.463,5.855c-17.6,0-17.6,6.463-17.6,14.646,0,6.68,2.831,14.643,16.316,14.643h2.75c11.226,0,19.066-6.021,19.066-14.643,0-8.183,0-14.646-17.6-14.646Z" transform="translate(8.787)" fill="#252c2f"/>
              <path id="Right" d="M24.929,41H22.18C8.291,41,0,33.337,0,20.5,0,10.127,1.812,0,23.463,0H26.4C48.047,0,49.858,10.127,49.858,20.5,49.858,32.57,39.607,41,24.929,41ZM23.463,5.855c-17.6,0-17.6,6.463-17.6,14.646,0,6.68,2.831,14.643,16.316,14.643h2.75c11.226,0,19.066-6.021,19.066-14.643,0-8.183,0-14.646-17.6-14.646Z" transform="translate(70.355)" fill="#252c2f"/>
              <path id="Stuff" d="M2.932,5.857C3.618,5.172,11.123,0,32.25,0,49.964,0,53.714,1.88,59.39,4.721l.415.21a16.556,16.556,0,0,0,4.773.921,16.541,16.541,0,0,0,4.528-.881C75.584,1.748,81.926,0,96.75,0c21.127,0,28.632,5.172,29.318,5.857A2.928,2.928,0,0,1,129,8.786v2.929a2.928,2.928,0,0,1-2.932,2.929s-5.864,0-5.864,2.929-2.932-4.238-2.932-5.857V8.862c-3.576-1.4-9.976-3-20.523-3C85,5.857,79.148,6.988,74.128,9.1l.056.138-2.5,1.007,2.493,1.008-2.2,5.429-2.718-1.1a12.721,12.721,0,0,0-1.493-.458,13.467,13.467,0,0,0-5.946-.28,7.735,7.735,0,0,0-1.877.642L57.326,16.8,54.7,11.565l2.622-1.31.006,0L54.819,9.237l.08-.2C50.57,6.976,46.578,5.857,32.25,5.857c-10.546,0-16.947,1.6-20.523,3v2.853c0,1.62-2.932,8.786-2.932,5.857s-5.864-2.929-5.864-2.929A2.929,2.929,0,0,1,0,11.714V8.786A2.929,2.929,0,0,1,2.932,5.857Z" fill="#252c2f"/>
            </g>
          </g>
        </g>
      </g>
    </g>
  </g>
</svg>
