<svg xmlns="http://www.w3.org/2000/svg" xmlns:xlink="http://www.w3.org/1999/xlink" width="264" height="280" viewBox="0 0 264 280">
  <defs>
    <clipPath id="clip-path">
      <rect width="264" height="280" fill="none"/>
    </clipPath>
    <clipPath id="clip-path-2">
      <path id="Body" d="M0,244v-9a72,72,0,0,1,72-72h4V144.611a56.038,56.038,0,0,1-31.694-44.73A12,12,0,0,1,34,88V74A12,12,0,0,1,44,62.166V56a56,56,0,0,1,112,0v6.166A12,12,0,0,1,166,74V88a12,12,0,0,1-10.305,11.881A56.038,56.038,0,0,1,124,144.611V163h4a72,72,0,0,1,72,72v9Z" fill="#d0c6ac"/>
    </clipPath>
    <clipPath id="clip-path-3">
      <rect width="200" height="80.064" fill="none"/>
    </clipPath>
    <clipPath id="clip-path-4">
      <path id="Clothes" d="M200,80.064H0V71.115A71.987,71.987,0,0,1,60.681,0a23.753,23.753,0,0,0,7.555,13.6L97.322,39.831a4,4,0,0,0,5.358,0L131.764,13.6A23.752,23.752,0,0,0,139.319,0a71.348,71.348,0,0,1,23.988,8.352A71.9,71.9,0,0,1,200,71.115v8.948Z" transform="translate(32 29.936)" fill="#e6e6e6"/>
    </clipPath>
    <clipPath id="clip-path-5">
      <rect width="28" height="14" fill="none"/>
    </clipPath>
    <clipPath id="clip-path-6">
      <rect width="24" height="8" fill="none"/>
    </clipPath>
    <clipPath id="clip-path-7">
      <rect width="64" height="12" fill="none"/>
    </clipPath>
    <clipPath id="clip-path-8">
      <rect width="88.001" height="11.922" fill="none"/>
    </clipPath>
    <clipPath id="clip-path-10">
      <rect width="166" height="185" fill="none"/>
    </clipPath>
    <clipPath id="clip-path-11">
      <path id="Lite_Beard" data-name="Lite Beard" d="M56.318,89c-8.856,0-20.392-3.439-25.584-5.607C18.748,78.387,11.6,69.211,7.707,62.4a57.877,57.877,0,0,1-5.541-13.36,48.731,48.731,0,0,1-1.82-12.55V16.129C.336,15.983-.617,1.52.683.111A.3.3,0,0,1,.9,0c2.384,5.945,2.43,12.894,2.474,19.614.018,2.82.036,5.484.218,8.062.825,11.671,3.535,19.043,8.284,22.539,3.166,2.33,7.825,5.427,11.719,5.427a6.092,6.092,0,0,0,1.553-.191c1.437-.379,2.227-2.617,3.143-5.209s1.946-5.512,3.86-7.094a21.724,21.724,0,0,1,14.038-4.913c.36,0,.725.008,1.086.024.232.01.489.019.761.029,2.437.086,6.513.231,8.278,1.873,1.766-1.642,5.842-1.787,8.277-1.873.274-.01.531-.019.763-.029.361-.016.726-.024,1.086-.024a21.727,21.727,0,0,1,14.039,4.913c1.912,1.581,2.947,4.51,3.859,7.093s1.706,4.831,3.143,5.21a6.092,6.092,0,0,0,1.553.191c3.9,0,8.553-3.1,11.718-5.427,4.749-3.5,7.459-10.868,8.285-22.539.182-2.578.2-5.242.218-8.062.044-6.72.089-13.669,2.474-19.614a.3.3,0,0,1,.221.111c1.3,1.409.347,15.871.338,16.017V36.485a49.271,49.271,0,0,1-1.82,12.6,58.83,58.83,0,0,1-5.541,13.474c-3.9,6.895-11.056,16.163-23.028,21.163a75.057,75.057,0,0,1-11.381,3.44A68.15,68.15,0,0,1,56.318,89Zm0-18.766a10.354,10.354,0,0,1,8.093,3.927c.318.352.528.585.655.612A9.7,9.7,0,0,0,67.1,75a9.213,9.213,0,0,0,6.435-2.832c4.192-3.872,8.674-9.921,6.219-16.749-1.664-4.629-3.885-7.3-6.791-8.174a18.312,18.312,0,0,0-5.035-.548c-.7,0-1.414.015-2.1.03s-1.4.03-2.088.03a19.524,19.524,0,0,1-3.879-.3A8.558,8.558,0,0,1,56.318,45a8.549,8.549,0,0,1-3.542,1.458,19.524,19.524,0,0,1-3.879.3c-.688,0-1.4-.015-2.088-.03s-1.405-.03-2.1-.03a18.312,18.312,0,0,0-5.035.548c-2.9.87-5.126,3.544-6.791,8.174C30.423,62.247,34.9,68.3,39.1,72.168A9.213,9.213,0,0,0,45.531,75a9.7,9.7,0,0,0,2.038-.227c.127-.027.337-.26.656-.613A10.354,10.354,0,0,1,56.318,70.234Z" transform="translate(0 0)" fill="#331b0c"/>
    </clipPath>
  </defs>
  <g id="avataaar" clip-path="url(#clip-path)">
    <g id="Body-2" data-name="Body" transform="translate(32 36)">
      <path id="Body-3" data-name="Body" d="M0,244v-9a72,72,0,0,1,72-72h4V144.611a56.038,56.038,0,0,1-31.694-44.73A12,12,0,0,1,34,88V74A12,12,0,0,1,44,62.166V56a56,56,0,0,1,112,0v6.166A12,12,0,0,1,166,74V88a12,12,0,0,1-10.305,11.881A56.038,56.038,0,0,1,124,144.611V163h4a72,72,0,0,1,72,72v9Z" fill="#d0c6ac"/>
      <g id="Body-4" data-name="Body" clip-path="url(#clip-path-2)">
        <g id="_Skin" data-name="ðŸŽ¨ Skin" transform="translate(-32)">
          <rect id="_Skin_background" data-name="ðŸŽ¨ Skin background" width="264" height="244" fill="rgba(0,0,0,0)"/>
          <rect id="Color" width="244" height="244" fill="#d08b5b"/>
        </g>
        <path id="Neck_Shadow" data-name="Neck Shadow" d="M56,79A55.825,55.825,0,0,1,16.4,62.6,55.825,55.825,0,0,1,0,23V15.477a56,56,0,0,0,112-.451V23A56.063,56.063,0,0,1,77.8,74.6,55.65,55.65,0,0,1,56,79Z" transform="translate(44 79)" fill="rgba(0,0,0,0.1)"/>
      </g>
    </g>
    <g id="_Clothes" data-name="ðŸ‘” Clothes" transform="translate(32 199.936)" clip-path="url(#clip-path-3)">
      <path id="Clothes-2" data-name="Clothes" d="M200,80.064H0V71.115A71.987,71.987,0,0,1,60.681,0a23.753,23.753,0,0,0,7.555,13.6L97.322,39.831a4,4,0,0,0,5.358,0L131.764,13.6A23.752,23.752,0,0,0,139.319,0a71.348,71.348,0,0,1,23.988,8.352A71.9,71.9,0,0,1,200,71.115v8.948Z" transform="translate(0 0)" fill="#e6e6e6"/>
      <g transform="translate(-32 -29.936)" clip-path="url(#clip-path-4)">
        <g id="_Color_Fabric" data-name="â†³ Color Fabric">
          <rect id="_Color_Fabric_background" data-name="â†³ Color Fabric background" width="264" height="110" fill="rgba(0,0,0,0)"/>
          <rect id="_Color" data-name="ðŸ–Color" width="264" height="110" fill="#262e33"/>
        </g>
      </g>
    </g>
    <g id="Face" transform="translate(76 82)">
      <g id="_Mouth" data-name="ðŸ‘„ Mouth" transform="translate(42 67)" clip-path="url(#clip-path-5)">
        <path id="Mouth" d="M0,0A14,14,0,0,0,14,14h0A14,14,0,0,0,28,0" fill="rgba(0,0,0,0.7)"/>
      </g>
      <g id="_Nose" data-name="ðŸ‘ƒðŸ½ Nose" transform="translate(44 48)" clip-path="url(#clip-path-6)">
        <path id="Nose" d="M0,0C0,4.418,5.373,8,12,8h0c6.627,0,12-3.582,12-8" fill="rgba(0,0,0,0.16)"/>
      </g>
      <g id="_Eyes" data-name="ðŸ‘ Eyes" transform="translate(24 24)" clip-path="url(#clip-path-7)">
        <circle id="Eye" cx="6" cy="6" r="6" fill="rgba(0,0,0,0.6)"/>
        <circle id="Eye-2" data-name="Eye" cx="6" cy="6" r="6" transform="translate(52)" fill="rgba(0,0,0,0.6)"/>
      </g>
      <g id="_Eyebrow" data-name="âœï¸ Eyebrow" transform="translate(12 6.078)" clip-path="url(#clip-path-8)">
        <g id="I_Browse" data-name="I Browse" transform="translate(0 -0.078)">
          <path id="Eyebrow" d="M3.63,11.08c3.915-5.509,14.648-8.6,23.893-6.327A2,2,0,1,0,28.477.868C17.741-1.768,5.312,1.809.37,8.763A2,2,0,0,0,3.63,11.08Z" transform="translate(0 0.078)" fill="rgba(0,0,0,0.6)"/>
          <path id="Eyebrow-2" data-name="Eyebrow" d="M-3.63,11.08c-3.915-5.509-14.648-8.6-23.893-6.327a2,2,0,0,1-2.419-1.465A2,2,0,0,1-28.477.868C-17.741-1.768-5.312,1.809-.37,8.763a2,2,0,0,1-.472,2.789A2,2,0,0,1-3.63,11.08Z" transform="translate(88 0.078)" fill="rgba(0,0,0,0.6)"/>
        </g>
      </g>
    </g>
    <g id="Top">
      <rect id="Mask-2" data-name="Mask" width="264" height="280" fill="none"/>
      <g id="Top-2" data-name="Top" clip-path="url(#clip-path)">
        <g id="Top-3" data-name="Top" transform="translate(49 39)" clip-path="url(#clip-path-10)">
          <g id="Facial_Hair" data-name="Facial Hair" transform="translate(0 33)">
            <rect id="Facial_Hair_background" data-name="Facial Hair background" width="166" height="152" fill="rgba(0,0,0,0)"/>
            <path id="Lite_Beard-2" data-name="Lite Beard" d="M56.318,89c-8.856,0-20.392-3.439-25.584-5.607C18.748,78.387,11.6,69.211,7.707,62.4a57.877,57.877,0,0,1-5.541-13.36,48.731,48.731,0,0,1-1.82-12.55V16.129C.336,15.983-.617,1.52.683.111A.3.3,0,0,1,.9,0c2.384,5.945,2.43,12.894,2.474,19.614.018,2.82.036,5.484.218,8.062.825,11.671,3.535,19.043,8.284,22.539,3.166,2.33,7.825,5.427,11.719,5.427a6.092,6.092,0,0,0,1.553-.191c1.437-.379,2.227-2.617,3.143-5.209s1.946-5.512,3.86-7.094a21.724,21.724,0,0,1,14.038-4.913c.36,0,.725.008,1.086.024.232.01.489.019.761.029,2.437.086,6.513.231,8.278,1.873,1.766-1.642,5.842-1.787,8.277-1.873.274-.01.531-.019.763-.029.361-.016.726-.024,1.086-.024a21.727,21.727,0,0,1,14.039,4.913c1.912,1.581,2.947,4.51,3.859,7.093s1.706,4.831,3.143,5.21a6.092,6.092,0,0,0,1.553.191c3.9,0,8.553-3.1,11.718-5.427,4.749-3.5,7.459-10.868,8.285-22.539.182-2.578.2-5.242.218-8.062.044-6.72.089-13.669,2.474-19.614a.3.3,0,0,1,.221.111c1.3,1.409.347,15.871.338,16.017V36.485a49.271,49.271,0,0,1-1.82,12.6,58.83,58.83,0,0,1-5.541,13.474c-3.9,6.895-11.056,16.163-23.028,21.163a75.057,75.057,0,0,1-11.381,3.44A68.15,68.15,0,0,1,56.318,89Zm0-18.766a10.354,10.354,0,0,1,8.093,3.927c.318.352.528.585.655.612A9.7,9.7,0,0,0,67.1,75a9.213,9.213,0,0,0,6.435-2.832c4.192-3.872,8.674-9.921,6.219-16.749-1.664-4.629-3.885-7.3-6.791-8.174a18.312,18.312,0,0,0-5.035-.548c-.7,0-1.414.015-2.1.03s-1.4.03-2.088.03a19.524,19.524,0,0,1-3.879-.3A8.558,8.558,0,0,1,56.318,45a8.549,8.549,0,0,1-3.542,1.458,19.524,19.524,0,0,1-3.879.3c-.688,0-1.4-.015-2.088-.03s-1.405-.03-2.1-.03a18.312,18.312,0,0,0-5.035.548c-2.9.87-5.126,3.544-6.791,8.174C30.423,62.247,34.9,68.3,39.1,72.168A9.213,9.213,0,0,0,45.531,75a9.7,9.7,0,0,0,2.038-.227c.127-.027.337-.26.656-.613A10.354,10.354,0,0,1,56.318,70.234Z" transform="translate(26.682 26)" fill="#331b0c"/>
            <g transform="translate(26.682 26)" clip-path="url(#clip-path-11)">
              <g id="_Facial_Hair_Color" data-name="â†³ âœ‚ï¸ Facial Hair Color" transform="translate(-26.682 -26)">
                <rect id="_Facial_Hair_Color_background" data-name="â†³ âœ‚ï¸ Facial Hair Color background" width="166" height="152" fill="rgba(0,0,0,0)"/>
                <rect id="Color-2" data-name="Color" width="166" height="152" fill="#724133"/>
              </g>
            </g>
          </g>
          <path id="Badass_Eyepatch" data-name="Badass Eyepatch" d="M86.4.781c-3.077-3.088-6.277,3.858-7.772,5.647-3.61,4.321-7.083,8.755-10.755,13.024-7.252,8.43-14.429,16.922-21.634,25.388-1.094,1.286-.961,1.425-2.4,1.548a27.85,27.85,0,0,1-3.263-.463,30.226,30.226,0,0,0-8.138.9A49.024,49.024,0,0,0,16.789,52.9c-1.217.779-2,1.7-3.322,1.943a15.6,15.6,0,0,1-3.845-.322c-2.081-.2-5.084-1.047-7.127-.606-2.593.56-3.578,3.7-.935,5.087,2.01,1.056,6.01.476,8.263.644,2.574.192,1.788.06,1.424,2.52a19.735,19.735,0,0,0,1.841,10.714c3.46,7.5,13.034,15.457,21.767,14.725,7.287-.611,13.672-7.19,16.664-13.5A30.746,30.746,0,0,0,54.25,63.628a18.962,18.962,0,0,0-.566-6.865,16.488,16.488,0,0,0-1.376-3.194c-.442-.8-2.4-2.649-2.519-3.453-.233-1.556,4.184-5.729,5.027-6.772,3.973-4.917,7.964-9.812,11.905-14.755,3.882-4.869,7.785-9.725,11.768-14.51C80.294,11.91,89.318,3.715,86.4.781" transform="translate(24)" fill="#28354b"/>
        </g>
      </g>
    </g>
  </g>
</svg>
