<svg xmlns="http://www.w3.org/2000/svg" xmlns:xlink="http://www.w3.org/1999/xlink" width="264" height="280" viewBox="0 0 264 280">
  <defs>
    <clipPath id="clip-path">
      <rect width="264" height="280" fill="none"/>
    </clipPath>
    <clipPath id="clip-path-2">
      <path id="Body" d="M0,244v-9a72,72,0,0,1,72-72h4V144.611a56.038,56.038,0,0,1-31.694-44.73A12,12,0,0,1,34,88V74A12,12,0,0,1,44,62.166V56a56,56,0,0,1,112,0v6.166A12,12,0,0,1,166,74V88a12,12,0,0,1-10.305,11.881A56.038,56.038,0,0,1,124,144.611V163h4a72,72,0,0,1,72,72v9Z" fill="#d0c6ac"/>
    </clipPath>
    <clipPath id="clip-path-3">
      <rect width="200" height="82" fill="none"/>
    </clipPath>
    <clipPath id="clip-path-4">
      <path id="Clothes" d="M200,80.78H0V71.833A71.947,71.947,0,0,1,67.045,0C67.015.37,67,.749,67,1.128c0,5.738,3.485,11.132,9.812,15.189s14.74,6.291,23.689,6.291,17.361-2.234,23.688-6.291S134,6.866,134,1.128c0-.349-.013-.7-.04-1.052A72.006,72.006,0,0,1,200,71.833v8.947Z" transform="translate(0 0.22)" fill="#e6e6e6"/>
    </clipPath>
    <clipPath id="clip-path-5">
      <rect width="37.787" height="19" fill="none"/>
    </clipPath>
    <clipPath id="clip-path-6">
      <path id="Mouth" d="M.008,2.128A19,19,0,0,0,18.89,19,19,19,0,0,0,37.782,2.04,2.1,2.1,0,0,0,35.933,0H1.977A2.132,2.132,0,0,0,.008,2.128Z" transform="translate(35.11 13)" fill="rgba(0,0,0,0.7)"/>
    </clipPath>
    <clipPath id="clip-path-7">
      <rect width="24" height="8" fill="none"/>
    </clipPath>
    <clipPath id="clip-path-8">
      <rect width="80" height="8" fill="none"/>
    </clipPath>
    <clipPath id="clip-path-9">
      <rect width="88.001" height="11.922" fill="none"/>
    </clipPath>
    <clipPath id="clip-path-11">
      <rect width="126" height="119" fill="none"/>
    </clipPath>
    <clipPath id="clip-path-12">
      <rect fill="none"/>
    </clipPath>
    <clipPath id="clip-path-13">
      <path id="Dreads_With_Cut" data-name="Dreads With Cut" d="M3.631,81.263C1.192,81.249.661,57.477,1.714,48.047c.162-1.448.785-4.038.334-5.341C1.653,41.568-.275,41.571.033,39.675c.349-2.157,2.525-1.085,3.473-2.118C5.3,35.6,2.533,35.14,2.073,33.431c-.682-2.542,1.29-3.2,3.067-4,1.966-.887,1.711-.108,3.307-1.846-2.132-1.562-2.9-3.691.016-4.833a7.921,7.921,0,0,1,2.5-.2,5.9,5.9,0,0,0,2.934-.374c.254-.191.354-1.28.509-1.5,1.551-2.219,1.168-3.825,1.012-6.316-.13-2.038-.113-3.909,2.328-4.113,1.628-.135,2.952,1.2,4.411,1.587,1.619.435,1.011.752,2.279-.121,2.227-1.534.711-4.521,2.477-6.3,2.422-2.445,4.01,1.139,5.955,1.41,4.223.589,2.867-3.7,5.367-5.271,2.988-1.877,3.277,2.251,5.144,2.4C45,4.075,47.908.955,49.317.374c2.282-.942,3.938.076,5.617,1.1,1.4.848,2.812,1.7,4.62,1.415,2.889-.45,3.669-.817,6.277.827,2.531,1.6,3.133.454,6,.432C73.854,4.128,75.094,5.82,76.788,6a2.5,2.5,0,0,0,1.278-.366,2.659,2.659,0,0,1,1.282-.37c3.237.2,3.442,4.382,6.014,5.535,2.35,1.053,5.113-.427,7.445-.7,5.691-.668,1.794,4.648,1.955,7.819a6.167,6.167,0,0,0,3.457-.572,6.536,6.536,0,0,1,3.267-.608c3.5.6,2.18,4.234,1.369,6.68,2.425-.043,8.759-2.737,10.331.707.81,1.777-1.078,4.147-1.048,5.953.044,2.542,1.912,4.644,2.572,7.05.892,3.247,2.163,11.95-.073,14.833-.746.962-5.841-1.74-7.965-2.913-17.846-9.86-21.31-13-49.426-12.586S9.868,50.04,8.784,51.387c-.754.938-1.716,3.441-2.507,10.413s.217,19.463-2.641,19.463ZM114.654,80.1c-.752-.234-1.9-4.955-2.065-7.718s-1.733-12.164-4.142-16.49c-.55-.988-2.126-2.723-1.445-3.559.844-1.037,1.664-.436,2.7-.021a38.418,38.418,0,0,1,4.135,2.615c1.757.988,3.148,10.9,3.216,14.689.041,2.242.077,10.533-2.1,10.532A.985.985,0,0,1,114.654,80.1Z" transform="translate(72 19)" fill="#2e3257"/>
    </clipPath>
    <clipPath id="clip-path-14">
      <rect width="126" height="50" fill="none"/>
    </clipPath>
    <filter id="Lennon_Glasses" x="69" y="88" width="126" height="50" filterUnits="userSpaceOnUse">
      <feOffset dy="2" input="SourceAlpha"/>
      <feGaussianBlur result="blur"/>
      <feFlood flood-opacity="0.102"/>
      <feComposite operator="in" in2="blur"/>
      <feComposite in="SourceGraphic"/>
    </filter>
  </defs>
  <g id="avataaar" clip-path="url(#clip-path)">
    <g id="Body-2" data-name="Body" transform="translate(32 36)">
      <path id="Body-3" data-name="Body" d="M0,244v-9a72,72,0,0,1,72-72h4V144.611a56.038,56.038,0,0,1-31.694-44.73A12,12,0,0,1,34,88V74A12,12,0,0,1,44,62.166V56a56,56,0,0,1,112,0v6.166A12,12,0,0,1,166,74V88a12,12,0,0,1-10.305,11.881A56.038,56.038,0,0,1,124,144.611V163h4a72,72,0,0,1,72,72v9Z" fill="#d0c6ac"/>
      <g id="Body-4" data-name="Body" clip-path="url(#clip-path-2)">
        <g id="_Skin" data-name="ðŸŽ¨ Skin" transform="translate(-32)">
          <rect id="_Skin_background" data-name="ðŸŽ¨ Skin background" width="264" height="244" fill="rgba(0,0,0,0)"/>
          <rect id="Color" width="244" height="244" fill="#ae5d29"/>
        </g>
        <path id="Neck_Shadow" data-name="Neck Shadow" d="M56,79A55.825,55.825,0,0,1,16.4,62.6,55.825,55.825,0,0,1,0,23V15.477a56,56,0,0,0,112-.451V23A56.063,56.063,0,0,1,77.8,74.6,55.65,55.65,0,0,1,56,79Z" transform="translate(44 79)" fill="rgba(0,0,0,0.1)"/>
      </g>
    </g>
    <g id="_Clothes" data-name="ðŸ‘” Clothes" transform="translate(32 198)" clip-path="url(#clip-path-3)">
      <g id="Shirt" transform="translate(0 1)">
        <path id="Clothes-2" data-name="Clothes" d="M200,80.78H0V71.833A71.947,71.947,0,0,1,67.045,0C67.015.37,67,.749,67,1.128c0,5.738,3.485,11.132,9.812,15.189s14.74,6.291,23.689,6.291,17.361-2.234,23.688-6.291S134,6.866,134,1.128c0-.349-.013-.7-.04-1.052A72.006,72.006,0,0,1,200,71.833v8.947Z" transform="translate(0 0.22)" fill="#e6e6e6"/>
        <g id="Shirt-2" data-name="Shirt" clip-path="url(#clip-path-4)">
          <g id="_Color_Fabric" data-name="â†³ Color Fabric" transform="translate(-32 -29)">
            <rect id="_Color_Fabric_background" data-name="â†³ Color Fabric background" width="264" height="110" fill="rgba(0,0,0,0)"/>
            <rect id="_Color" data-name="ðŸ–Color" width="264" height="110" fill="#262e33"/>
          </g>
          <g id="Shadowy" transform="translate(60 -25)" opacity="0.6">
            <ellipse id="Hola_" data-name="Hola ðŸ‘‹ðŸ¼" cx="39.635" cy="26.914" rx="39.635" ry="26.914" transform="translate(0.865 0.934)" fill="rgba(0,0,0,0.16)"/>
          </g>
        </g>
      </g>
      <g id="Blazer">
        <path id="Saco" d="M200,80.878H131.638A155.6,155.6,0,0,0,137,39.378,157.808,157.808,0,0,0,132.228.051,71.94,71.94,0,0,1,200,71.93v8.947Zm-130.638,0H0V71.93A71.938,71.938,0,0,1,68.785,0,157.748,157.748,0,0,0,64,39.378a155.6,155.6,0,0,0,5.361,41.5Z" transform="translate(0 1.122)" fill="#3a4c5a"/>
        <path id="Pocket_hanky" data-name="Pocket hanky" d="M0,9,9.556,1.833a4,4,0,0,1,4.856.043L21,7Z" transform="translate(149 49)" fill="#e6e6e6"/>
        <path id="Wing" d="M25,0c-6,29,5,82,5,82H14L0,46l6-9L0,31,19,1A24.864,24.864,0,0,1,25,0Z" transform="translate(44 0)" fill="#2f4351"/>
        <path id="Wing-2" data-name="Wing" d="M-25,0c6,29-5,82-5,82h16L0,46l-6-9,6-6L-19,1A24.864,24.864,0,0,0-25,0Z" transform="translate(156 0)" fill="#2f4351"/>
      </g>
    </g>
    <g id="Face" transform="translate(76 82)">
      <g id="_Mouth" data-name="ðŸ‘„ Mouth" transform="translate(37.11 65)" clip-path="url(#clip-path-5)">
        <path id="Mouth-2" data-name="Mouth" d="M.008,2.128A19,19,0,0,0,18.89,19,19,19,0,0,0,37.782,2.04,2.1,2.1,0,0,0,35.933,0H1.977A2.132,2.132,0,0,0,.008,2.128Z" fill="rgba(0,0,0,0.7)"/>
        <g transform="translate(-35.11 -13)" clip-path="url(#clip-path-6)">
          <rect id="Teeth" width="31" height="16" rx="5" transform="translate(39 2)" fill="#fff"/>
          <g id="Tongue" transform="translate(38 24)">
            <circle id="Tongue-2" data-name="Tongue" cx="11" cy="11" r="11" fill="#ff4f6d"/>
            <circle id="Tongue-3" data-name="Tongue" cx="11" cy="11" r="11" transform="translate(10)" fill="#ff4f6d"/>
          </g>
        </g>
      </g>
      <g id="_Nose" data-name="ðŸ‘ƒðŸ½ Nose" transform="translate(44 48)" clip-path="url(#clip-path-7)">
        <path id="Nose" d="M0,0C0,4.418,5.373,8,12,8h0c6.627,0,12-3.582,12-8" fill="rgba(0,0,0,0.16)"/>
      </g>
      <g id="_Eyes" data-name="ðŸ‘ Eyes" transform="translate(16 24)" clip-path="url(#clip-path-8)">
        <path id="Squint" d="M.16,6.447A11.947,11.947,0,0,1,11,0,11.953,11.953,0,0,1,21.815,6.407c.551,1.122-.233,2.04-1.025,1.36A15.047,15.047,0,0,0,11,4.344a15.126,15.126,0,0,0-9.56,3.228C.547,8.3-.38,7.558.16,6.447Z" fill="rgba(0,0,0,0.6)"/>
        <path id="Squint-2" data-name="Squint" d="M.16,6.447A11.947,11.947,0,0,1,11,0,11.953,11.953,0,0,1,21.815,6.407c.551,1.122-.233,2.04-1.025,1.36A15.047,15.047,0,0,0,11,4.344a15.126,15.126,0,0,0-9.56,3.228C.547,8.3-.38,7.558.16,6.447Z" transform="translate(58)" fill="rgba(0,0,0,0.6)"/>
      </g>
      <g id="_Eyebrow" data-name="âœï¸ Eyebrow" transform="translate(12 6.078)" clip-path="url(#clip-path-9)">
        <g id="I_Browse" data-name="I Browse" transform="translate(0 -0.078)">
          <path id="Eyebrow" d="M3.63,11.08c3.915-5.509,14.648-8.6,23.893-6.327A2,2,0,1,0,28.477.868C17.741-1.768,5.312,1.809.37,8.763A2,2,0,0,0,3.63,11.08Z" transform="translate(0 0.078)" fill="rgba(0,0,0,0.6)"/>
          <path id="Eyebrow-2" data-name="Eyebrow" d="M-3.63,11.08c-3.915-5.509-14.648-8.6-23.893-6.327a2,2,0,0,1-2.419-1.465A2,2,0,0,1-28.477.868C-17.741-1.768-5.312,1.809-.37,8.763a2,2,0,0,1-.472,2.789A2,2,0,0,1-3.63,11.08Z" transform="translate(88 0.078)" fill="rgba(0,0,0,0.6)"/>
        </g>
      </g>
    </g>
    <g id="Top">
      <rect id="Mask-2" data-name="Mask" width="264" height="280" fill="none"/>
      <g id="Top-2" data-name="Top" clip-path="url(#clip-path)">
        <g id="Top-3" data-name="Top" transform="translate(69 19)" clip-path="url(#clip-path-11)">
          <g id="Hair" transform="translate(-69 -19)">
            <path id="Dreads_With_Cut-2" data-name="Dreads With Cut" d="M3.631,81.263C1.192,81.249.661,57.477,1.714,48.047c.162-1.448.785-4.038.334-5.341C1.653,41.568-.275,41.571.033,39.675c.349-2.157,2.525-1.085,3.473-2.118C5.3,35.6,2.533,35.14,2.073,33.431c-.682-2.542,1.29-3.2,3.067-4,1.966-.887,1.711-.108,3.307-1.846-2.132-1.562-2.9-3.691.016-4.833a7.921,7.921,0,0,1,2.5-.2,5.9,5.9,0,0,0,2.934-.374c.254-.191.354-1.28.509-1.5,1.551-2.219,1.168-3.825,1.012-6.316-.13-2.038-.113-3.909,2.328-4.113,1.628-.135,2.952,1.2,4.411,1.587,1.619.435,1.011.752,2.279-.121,2.227-1.534.711-4.521,2.477-6.3,2.422-2.445,4.01,1.139,5.955,1.41,4.223.589,2.867-3.7,5.367-5.271,2.988-1.877,3.277,2.251,5.144,2.4C45,4.075,47.908.955,49.317.374c2.282-.942,3.938.076,5.617,1.1,1.4.848,2.812,1.7,4.62,1.415,2.889-.45,3.669-.817,6.277.827,2.531,1.6,3.133.454,6,.432C73.854,4.128,75.094,5.82,76.788,6a2.5,2.5,0,0,0,1.278-.366,2.659,2.659,0,0,1,1.282-.37c3.237.2,3.442,4.382,6.014,5.535,2.35,1.053,5.113-.427,7.445-.7,5.691-.668,1.794,4.648,1.955,7.819a6.167,6.167,0,0,0,3.457-.572,6.536,6.536,0,0,1,3.267-.608c3.5.6,2.18,4.234,1.369,6.68,2.425-.043,8.759-2.737,10.331.707.81,1.777-1.078,4.147-1.048,5.953.044,2.542,1.912,4.644,2.572,7.05.892,3.247,2.163,11.95-.073,14.833-.746.962-5.841-1.74-7.965-2.913-17.846-9.86-21.31-13-49.426-12.586S9.868,50.04,8.784,51.387c-.754.938-1.716,3.441-2.507,10.413s.217,19.463-2.641,19.463ZM114.654,80.1c-.752-.234-1.9-4.955-2.065-7.718s-1.733-12.164-4.142-16.49c-.55-.988-2.126-2.723-1.445-3.559.844-1.037,1.664-.436,2.7-.021a38.418,38.418,0,0,1,4.135,2.615c1.757.988,3.148,10.9,3.216,14.689.041,2.242.077,10.533-2.1,10.532A.985.985,0,0,1,114.654,80.1Z" transform="translate(72 19)" fill="#2e3257"/>
            <g id="Hair-2" data-name="Hair" clip-path="url(#clip-path-13)">
              <g id="_Hair_Color" data-name="â†³ ðŸ’ˆHair Color">
                <rect id="_Hair_Color_background" data-name="â†³ ðŸ’ˆHair Color background" width="264" height="280" fill="rgba(0,0,0,0)"/>
                <rect id="Color-2" data-name="Color" width="264" height="280" fill="#2c1b18"/>
              </g>
            </g>
          </g>
          <g id="_Accessory" data-name="â†³ ðŸ‘“ Accessory" transform="translate(0 69)" clip-path="url(#clip-path-14)">
            <g transform="matrix(1, 0, 0, 1, -69, -88)" filter="url(#Lennon_Glasses)">
              <path id="Lennon_Glasses-2" data-name="Lennon Glasses" d="M94,48A24,24,0,0,1,70,24a24.3,24.3,0,0,1,.36-4.166A7.789,7.789,0,0,0,62.862,12a7.707,7.707,0,0,0-7.421,6.832A24.168,24.168,0,0,1,56,24,24,24,0,1,1,9.037,17H2.5a2.5,2.5,0,1,1,0-5h8a2.5,2.5,0,0,1,.66.088,24.007,24.007,0,0,1,42.256,1.067,11.238,11.238,0,0,1,19.048.239,24.006,24.006,0,0,1,42.376-1.307A2.5,2.5,0,0,1,115.5,12h8a2.5,2.5,0,0,1,0,5h-6.537A24.006,24.006,0,0,1,94,48ZM94,4a20,20,0,1,0,20,20A20.023,20.023,0,0,0,94,4ZM32,4A20,20,0,1,0,52,24,20.023,20.023,0,0,0,32,4Z" transform="translate(69 88)" fill="#252c2f"/>
            </g>
          </g>
        </g>
      </g>
    </g>
  </g>
</svg>
