<svg xmlns="http://www.w3.org/2000/svg" xmlns:xlink="http://www.w3.org/1999/xlink" width="264" height="280" viewBox="0 0 264 280">
  <defs>
    <clipPath id="clip-path">
      <rect width="264" height="280" fill="none"/>
    </clipPath>
    <clipPath id="clip-path-2">
      <path id="Body" d="M0,244v-9a72,72,0,0,1,72-72h4V144.611a56.038,56.038,0,0,1-31.694-44.73A12,12,0,0,1,34,88V74A12,12,0,0,1,44,62.166V56a56,56,0,0,1,112,0v6.166A12,12,0,0,1,166,74V88a12,12,0,0,1-10.305,11.881A56.038,56.038,0,0,1,124,144.611V163h4a72,72,0,0,1,72,72v9Z" fill="#d0c6ac"/>
    </clipPath>
    <clipPath id="clip-path-3">
      <rect width="200" height="77.998" fill="none"/>
    </clipPath>
    <clipPath id="clip-path-4">
      <path id="Clothes" d="M200,78H0V69.052A72.05,72.05,0,0,1,51.534,0,18.064,18.064,0,0,0,51,4.348c0,7.874,5.149,15.277,14.5,20.845s21.78,8.634,35,8.634,25.652-3.066,35-8.634S150,12.222,150,4.348A18.045,18.045,0,0,0,149.544.33,71.927,71.927,0,0,1,200,69.052V78Z" transform="translate(32 32)" fill="#e6e6e6"/>
    </clipPath>
    <clipPath id="clip-path-5">
      <rect width="28" height="14" fill="none"/>
    </clipPath>
    <clipPath id="clip-path-6">
      <rect width="24" height="8" fill="none"/>
    </clipPath>
    <clipPath id="clip-path-7">
      <rect width="64" height="12" fill="none"/>
    </clipPath>
    <clipPath id="clip-path-8">
      <rect width="88.001" height="11.922" fill="none"/>
    </clipPath>
    <clipPath id="clip-path-10">
      <rect width="125.932" height="121.555" fill="none"/>
    </clipPath>
    <clipPath id="clip-path-11">
      <rect fill="none"/>
    </clipPath>
    <clipPath id="clip-path-12">
      <path id="Hair_Maks" data-name="Hair Maks" d="M2.18,46.1H86.356C104.6,35.568,108.029,16.885,95.12.66,91.906-3.379,86.356,12.409,69.3,13.384s-15.42-6.3-33.571-3.577-16.146,17.3-27.99,20.8S2.18,46.1,2.18,46.1Z" transform="translate(88.73 9.266)" fill="#252e32"/>
    </clipPath>
    <clipPath id="clip-path-13">
      <rect width="125.932" height="37.821" fill="none"/>
    </clipPath>
  </defs>
  <g id="avataaar" clip-path="url(#clip-path)">
    <g id="Body-2" data-name="Body" transform="translate(32 36)">
      <path id="Body-3" data-name="Body" d="M0,244v-9a72,72,0,0,1,72-72h4V144.611a56.038,56.038,0,0,1-31.694-44.73A12,12,0,0,1,34,88V74A12,12,0,0,1,44,62.166V56a56,56,0,0,1,112,0v6.166A12,12,0,0,1,166,74V88a12,12,0,0,1-10.305,11.881A56.038,56.038,0,0,1,124,144.611V163h4a72,72,0,0,1,72,72v9Z" fill="#d0c6ac"/>
      <g id="Body-4" data-name="Body" clip-path="url(#clip-path-2)">
        <g id="_Skin" data-name="ðŸŽ¨ Skin" transform="translate(-32)">
          <rect id="_Skin_background" data-name="ðŸŽ¨ Skin background" width="264" height="244" fill="rgba(0,0,0,0)"/>
          <rect id="Color" width="244" height="244" fill="#edb98a"/>
        </g>
        <path id="Neck_Shadow" data-name="Neck Shadow" d="M56,79A55.825,55.825,0,0,1,16.4,62.6,55.825,55.825,0,0,1,0,23V15.477a56,56,0,0,0,112-.451V23A56.063,56.063,0,0,1,77.8,74.6,55.65,55.65,0,0,1,56,79Z" transform="translate(44 79)" fill="rgba(0,0,0,0.1)"/>
      </g>
    </g>
    <g id="_Clothes" data-name="ðŸ‘” Clothes" transform="translate(32 202.002)" clip-path="url(#clip-path-3)">
      <path id="Clothes-2" data-name="Clothes" d="M200,78H0V69.052A72.05,72.05,0,0,1,51.534,0,18.064,18.064,0,0,0,51,4.348c0,7.874,5.149,15.277,14.5,20.845s21.78,8.634,35,8.634,25.652-3.066,35-8.634S150,12.222,150,4.348A18.045,18.045,0,0,0,149.544.33,71.927,71.927,0,0,1,200,69.052V78Z" transform="translate(0 -0.002)" fill="#e6e6e6"/>
      <g transform="translate(-32 -32.002)" clip-path="url(#clip-path-4)">
        <g id="_Color_Fabric" data-name="â†³ Color Fabric">
          <rect id="_Color_Fabric_background" data-name="â†³ Color Fabric background" width="264" height="110" fill="rgba(0,0,0,0)"/>
          <rect id="_Color" data-name="ðŸ–Color" width="264" height="110" fill="#e6e6e6"/>
        </g>
      </g>
    </g>
    <g id="Face" transform="translate(76 82)">
      <g id="_Mouth" data-name="ðŸ‘„ Mouth" transform="translate(42 67)" clip-path="url(#clip-path-5)">
        <path id="Mouth" d="M0,0A14,14,0,0,0,14,14h0A14,14,0,0,0,28,0" fill="rgba(0,0,0,0.7)"/>
      </g>
      <g id="_Nose" data-name="ðŸ‘ƒðŸ½ Nose" transform="translate(44 48)" clip-path="url(#clip-path-6)">
        <path id="Nose" d="M0,0C0,4.418,5.373,8,12,8h0c6.627,0,12-3.582,12-8" fill="rgba(0,0,0,0.16)"/>
      </g>
      <g id="_Eyes" data-name="ðŸ‘ Eyes" transform="translate(24 24)" clip-path="url(#clip-path-7)">
        <circle id="Eye" cx="6" cy="6" r="6" fill="rgba(0,0,0,0.6)"/>
        <circle id="Eye-2" data-name="Eye" cx="6" cy="6" r="6" transform="translate(52)" fill="rgba(0,0,0,0.6)"/>
      </g>
      <g id="_Eyebrow" data-name="âœï¸ Eyebrow" transform="translate(12 6.078)" clip-path="url(#clip-path-8)">
        <g id="I_Browse" data-name="I Browse" transform="translate(0 -0.078)">
          <path id="Eyebrow" d="M3.63,11.08c3.915-5.509,14.648-8.6,23.893-6.327A2,2,0,1,0,28.477.868C17.741-1.768,5.312,1.809.37,8.763A2,2,0,0,0,3.63,11.08Z" transform="translate(0 0.078)" fill="rgba(0,0,0,0.6)"/>
          <path id="Eyebrow-2" data-name="Eyebrow" d="M-3.63,11.08c-3.915-5.509-14.648-8.6-23.893-6.327a2,2,0,0,1-2.419-1.465A2,2,0,0,1-28.477.868C-17.741-1.768-5.312,1.809-.37,8.763a2,2,0,0,1-.472,2.789A2,2,0,0,1-3.63,11.08Z" transform="translate(88 0.078)" fill="rgba(0,0,0,0.6)"/>
        </g>
      </g>
    </g>
    <g id="Top">
      <rect id="Mask-2" data-name="Mask" width="264" height="280" fill="none"/>
      <g id="Top-2" data-name="Top" clip-path="url(#clip-path)">
        <g id="Top-3" data-name="Top" transform="translate(69 9.266)" clip-path="url(#clip-path-10)">
          <path id="Hair_Maks-2" data-name="Hair Maks" d="M2.18,46.1H86.356C104.6,35.568,108.029,16.885,95.12.66,91.906-3.379,86.356,12.409,69.3,13.384s-15.42-6.3-33.571-3.577-16.146,17.3-27.99,20.8S2.18,46.1,2.18,46.1Z" transform="translate(18.73)" fill="#252e32"/>
          <g transform="translate(-70 -9.266)" clip-path="url(#clip-path-12)">
            <g id="_Hair_Color" data-name="â†³ ðŸ’ˆHair Color" transform="translate(1)">
              <rect id="_Hair_Color_background" data-name="â†³ ðŸ’ˆHair Color background" width="264" height="280" fill="rgba(0,0,0,0)"/>
              <rect id="Color-2" data-name="Color" width="264" height="280" fill="#724133"/>
            </g>
          </g>
          <g id="_Accessory" data-name="â†³ ðŸ‘“ Accessory" transform="translate(0 83.734)" clip-path="url(#clip-path-13)">
            <g id="Glasses" transform="translate(0 0)">
              <path id="Frame_Stuff" data-name="Frame Stuff" d="M22.9,37.819a21.414,21.414,0,0,1-8.56-1.782,21.839,21.839,0,0,1-7.582-5.851,29.368,29.368,0,0,1-5.32-8.992A22.194,22.194,0,0,1,0,13.912,14.8,14.8,0,0,1,1.45,7.067,10.687,10.687,0,0,1,6.293,1.809,17.093,17.093,0,0,1,13.2.488L36.5.031C37.041.017,37.759,0,38.465,0c2.263,0,4.821.151,6.632,1.271,1.84,1.138,2.759,3.176,2.812,6.23C48,12.862,46.637,20.662,43.382,26a25.041,25.041,0,0,1-8.756,8.564A23.354,23.354,0,0,1,22.9,37.818h0ZM32.832,7.246c-8.194,0-22.239.247-24.23,1.9-1.662,1.381-1.82,4.979-.459,10.407a20.4,20.4,0,0,0,7.016,11.2,12.31,12.31,0,0,0,7.727,2.228,28.856,28.856,0,0,0,2.986-.17l-.085.005h-.009c.009-.011.447-.078.911-.147.416-.063.845-.127.959-.152a18.178,18.178,0,0,0,3.149-.951,16.259,16.259,0,0,0,5.167-3.4c3.009-2.971,4.1-7.019,4.708-10.214a23.471,23.471,0,0,0,.461-7.79A3.2,3.2,0,0,0,39.922,7.8a5.032,5.032,0,0,0-2.686-.526C37.218,7.273,35.439,7.246,32.832,7.246Z" transform="translate(9.014 0.002)" fill="#d6eaf2"/>
              <path id="Frame_Stuff-2" data-name="Frame Stuff" d="M25.014,37.818h0a23.353,23.353,0,0,1-11.726-3.25A25.04,25.04,0,0,1,4.532,26C1.277,20.661-.088,12.862,0,7.5c.053-3.055.972-5.092,2.812-6.23C4.628.151,7.185,0,9.448,0c.706,0,1.424.017,1.97.032L34.709.488a17.094,17.094,0,0,1,6.911,1.322,10.69,10.69,0,0,1,4.844,5.257,14.8,14.8,0,0,1,1.447,6.845,22.2,22.2,0,0,1-1.434,7.281,29.372,29.372,0,0,1-5.32,8.993,21.838,21.838,0,0,1-7.582,5.851A21.405,21.405,0,0,1,25.014,37.818Zm-3.4-5.057h0l.359.038a29.046,29.046,0,0,0,3.058.177,12.306,12.306,0,0,0,7.727-2.228,20.4,20.4,0,0,0,7.016-11.2c1.36-5.428,1.2-9.027-.46-10.407-1.99-1.654-16.028-1.9-24.218-1.9-2.6,0-4.342.026-4.414.027A5.034,5.034,0,0,0,7.992,7.8a3.2,3.2,0,0,0-1.21,2.364,23.446,23.446,0,0,0,.46,7.789c.611,3.194,1.7,7.241,4.708,10.213a16.285,16.285,0,0,0,5.167,3.4,18.185,18.185,0,0,0,3.15.951c.114.024.542.089.957.151.44.066.895.135.912.147l-.008,0c-.019,0-.072,0-.157-.013Z" transform="translate(69.002 0)" fill="#d6eaf2"/>
              <path id="Frame_Stuff-3" data-name="Frame Stuff" d="M13.2,0C9.785.2,5.886.243,2.69,1.718-.695,3.28-1.218,6.817,3.049,7.3a19.916,19.916,0,0,0,5.738-.481c1.55-.277,3.655-.187,5.119-.779C16.636,4.941,16.46-.182,13.2,0" transform="translate(0 4.922)" fill="#d6eaf2"/>
              <path id="Frame_Stuff-4" data-name="Frame Stuff" d="M2.614,0C6.026.2,9.925.243,13.121,1.718c3.385,1.562,3.908,5.1-.359,5.587a19.916,19.916,0,0,1-5.738-.481c-1.55-.277-3.655-.187-5.119-.779C-.825,4.941-.649-.182,2.614,0" transform="translate(110.12 4.922)" fill="#d6eaf2"/>
              <path id="Frame_Stuff-5" data-name="Frame Stuff" d="M20.965,3.628C19.019,1.328,13.947,0,10.747,0S2.624,1.328.678,3.628C-.3,4.788-.337,6.339,1.364,7.066c2.118.906,4.009-.737,5.7-1.6a9.431,9.431,0,0,1,7.506,0c1.708.833,3.586,2.5,5.7,1.6,1.7-.727,1.668-2.279.686-3.438" transform="translate(52.144 3.385)" fill="#d6eaf2"/>
            </g>
          </g>
        </g>
      </g>
    </g>
  </g>
</svg>
