<svg xmlns="http://www.w3.org/2000/svg" xmlns:xlink="http://www.w3.org/1999/xlink" width="264" height="280" viewBox="0 0 264 280">
  <defs>
    <clipPath id="clip-path">
      <rect width="264" height="280" fill="none"/>
    </clipPath>
    <clipPath id="clip-path-2">
      <path id="Body" d="M0,244v-9a72,72,0,0,1,72-72h4V144.611a56.038,56.038,0,0,1-31.694-44.73A12,12,0,0,1,34,88V74A12,12,0,0,1,44,62.166V56a56,56,0,0,1,112,0v6.166A12,12,0,0,1,166,74V88a12,12,0,0,1-10.305,11.881A56.038,56.038,0,0,1,124,144.611V163h4a72,72,0,0,1,72,72v9Z" fill="#d0c6ac"/>
    </clipPath>
    <clipPath id="clip-path-3">
      <rect width="128" height="80.311" fill="none"/>
    </clipPath>
    <clipPath id="clip-path-4">
      <path id="Overall" d="M102,80.312H0V8.944A71.536,71.536,0,0,1,26,0V44.312h76V0a71.536,71.536,0,0,1,26,8.943V80.312Z" transform="translate(68 29.688)" fill="#b7c1db"/>
    </clipPath>
    <clipPath id="clip-path-5">
      <rect width="64" height="26" fill="none"/>
    </clipPath>
    <clipPath id="clip-path-6">
      <rect id="Mouth" width="60" height="22" rx="11" transform="translate(24 9)" fill="#fff"/>
    </clipPath>
    <clipPath id="clip-path-7">
      <rect width="24" height="8" fill="none"/>
    </clipPath>
    <clipPath id="clip-path-8">
      <rect width="64" height="12" fill="none"/>
    </clipPath>
    <clipPath id="clip-path-9">
      <rect width="88.001" height="11.922" fill="none"/>
    </clipPath>
    <clipPath id="clip-path-11">
      <rect width="144" height="250" fill="none"/>
    </clipPath>
    <clipPath id="clip-path-12">
      <path id="Combined_Shape" data-name="Combined Shape" d="M121.367,144.989V65.534c0-6.075-3.731-9-9.815-9H72V0c54.773,0,72,47.8,72,82.045v73.866c0,8.673-4.479,13.5-9.453,13.5C128.341,169.406,121.367,161.9,121.367,144.989ZM0,155.911V82.045C0,47.8,17.227,0,72,0V56.534H32.449c-6.084,0-9.815,2.925-9.815,9v79.455c0,16.908-6.975,24.416-13.18,24.417C4.479,169.406,0,164.583,0,155.911Z" transform="translate(0 21)" fill="#f4f4f4"/>
    </clipPath>
    <clipPath id="clip-path-13">
      <rect fill="none"/>
    </clipPath>
  </defs>
  <g id="avataaar" clip-path="url(#clip-path)">
    <g id="Body-2" data-name="Body" transform="translate(32 36)">
      <path id="Body-3" data-name="Body" d="M0,244v-9a72,72,0,0,1,72-72h4V144.611a56.038,56.038,0,0,1-31.694-44.73A12,12,0,0,1,34,88V74A12,12,0,0,1,44,62.166V56a56,56,0,0,1,112,0v6.166A12,12,0,0,1,166,74V88a12,12,0,0,1-10.305,11.881A56.038,56.038,0,0,1,124,144.611V163h4a72,72,0,0,1,72,72v9Z" fill="#d0c6ac"/>
      <g id="Body-4" data-name="Body" clip-path="url(#clip-path-2)">
        <g id="_Skin" data-name="ðŸŽ¨ Skin" transform="translate(-32)">
          <rect id="_Skin_background" data-name="ðŸŽ¨ Skin background" width="264" height="244" fill="rgba(0,0,0,0)"/>
          <rect id="Color" width="244" height="244" fill="#ffdbb4"/>
        </g>
        <path id="Neck_Shadow" data-name="Neck Shadow" d="M56,79A55.825,55.825,0,0,1,16.4,62.6,55.825,55.825,0,0,1,0,23V15.477a56,56,0,0,0,112-.451V23A56.063,56.063,0,0,1,77.8,74.6,55.65,55.65,0,0,1,56,79Z" transform="translate(44 79)" fill="rgba(0,0,0,0.1)"/>
      </g>
    </g>
    <g id="_Clothes" data-name="ðŸ‘” Clothes" transform="translate(68 199.689)" clip-path="url(#clip-path-3)">
      <path id="Overall-2" data-name="Overall" d="M102,80.312H0V8.944A71.536,71.536,0,0,1,26,0V44.312h76V0a71.536,71.536,0,0,1,26,8.943V80.312Z" transform="translate(0 0)" fill="#b7c1db"/>
      <g transform="translate(-68 -29.689)" clip-path="url(#clip-path-4)">
        <g id="_Color_Fabric" data-name="â†³ Color Fabric">
          <rect id="_Color_Fabric_background" data-name="â†³ Color Fabric background" width="264" height="110" fill="rgba(0,0,0,0)"/>
          <rect id="_Color" data-name="ðŸ–Color" width="264" height="110" fill="#5199e4"/>
        </g>
      </g>
      <circle id="Button" cx="5" cy="5" r="5" transform="translate(8 48.311)" fill="#f4f4f4"/>
      <circle id="Button-2" data-name="Button" cx="5" cy="5" r="5" transform="translate(110 48.311)" fill="#f4f4f4"/>
    </g>
    <g id="Face" transform="translate(76 82)">
      <g id="_Mouth" data-name="ðŸ‘„ Mouth" transform="translate(24 59)" clip-path="url(#clip-path-5)">
        <rect id="Mouth-2" data-name="Mouth" width="64" height="26" rx="13" fill="rgba(0,0,0,0.6)"/>
        <rect id="Mouth-3" data-name="Mouth" width="60" height="22" rx="11" transform="translate(2 2)" fill="#fff"/>
        <g transform="translate(-22 -7)" clip-path="url(#clip-path-6)">
          <path id="Grimace_Teeth" data-name="Grimace Teeth" d="M46.867,28V16h-9V28h-4V16h-9V28h-4V16h-9V28h-4V16h-8V12h8V0h4V12h9V0h4V12h9V0h4V12h9V0h4V12h8.866v4H50.867V28Z" transform="translate(24.133 6)" fill="#e6e6e6"/>
        </g>
      </g>
      <g id="_Nose" data-name="ðŸ‘ƒðŸ½ Nose" transform="translate(44 48)" clip-path="url(#clip-path-7)">
        <path id="Nose" d="M0,0C0,4.418,5.373,8,12,8h0c6.627,0,12-3.582,12-8" fill="rgba(0,0,0,0.16)"/>
      </g>
      <g id="_Eyes" data-name="ðŸ‘ Eyes" transform="translate(24 24)" clip-path="url(#clip-path-8)">
        <circle id="Eye" cx="6" cy="6" r="6" fill="rgba(0,0,0,0.6)"/>
        <circle id="Eye-2" data-name="Eye" cx="6" cy="6" r="6" transform="translate(52)" fill="rgba(0,0,0,0.6)"/>
      </g>
      <g id="_Eyebrow" data-name="âœï¸ Eyebrow" transform="translate(12 6.078)" clip-path="url(#clip-path-9)">
        <g id="I_Browse" data-name="I Browse" transform="translate(0 -0.078)">
          <path id="Eyebrow" d="M3.63,11.08c3.915-5.509,14.648-8.6,23.893-6.327A2,2,0,1,0,28.477.868C17.741-1.768,5.312,1.809.37,8.763A2,2,0,0,0,3.63,11.08Z" transform="translate(0 0.078)" fill="rgba(0,0,0,0.6)"/>
          <path id="Eyebrow-2" data-name="Eyebrow" d="M-3.63,11.08c-3.915-5.509-14.648-8.6-23.893-6.327a2,2,0,0,1-2.419-1.465A2,2,0,0,1-28.477.868C-17.741-1.768-5.312,1.809-.37,8.763a2,2,0,0,1-.472,2.789A2,2,0,0,1-3.63,11.08Z" transform="translate(88 0.078)" fill="rgba(0,0,0,0.6)"/>
        </g>
      </g>
    </g>
    <g id="Top">
      <rect id="Mask-2" data-name="Mask" width="264" height="280" fill="none"/>
      <g id="Top-2" data-name="Top" clip-path="url(#clip-path)">
        <g id="Top-3" data-name="Top" transform="translate(60)" clip-path="url(#clip-path-11)">
          <g id="hat">
            <g id="string" transform="translate(0 176)">
              <circle id="puff" cx="9" cy="9" r="9" transform="translate(0 56)" fill="#f4f4f4"/>
              <rect id="string-2" data-name="string" width="2" height="58" transform="translate(8)" fill="#f4f4f4"/>
            </g>
            <g id="string-3" data-name="string" transform="translate(126 168)">
              <circle id="puff-2" data-name="puff" cx="9" cy="9" r="9" transform="translate(0 56)" fill="#f4f4f4"/>
              <rect id="string-4" data-name="string" width="2" height="58" transform="translate(8)" fill="#f4f4f4"/>
            </g>
            <circle id="puff-3" data-name="puff" cx="20" cy="20" r="20" transform="translate(52)" fill="#f4f4f4"/>
            <path id="Combined_Shape-2" data-name="Combined Shape" d="M121.367,144.989V65.534c0-6.075-3.731-9-9.815-9H72V0c54.773,0,72,47.8,72,82.045v73.866c0,8.673-4.479,13.5-9.453,13.5C128.341,169.406,121.367,161.9,121.367,144.989ZM0,155.911V82.045C0,47.8,17.227,0,72,0V56.534H32.449c-6.084,0-9.815,2.925-9.815,9v79.455c0,16.908-6.975,24.416-13.18,24.417C4.479,169.406,0,164.583,0,155.911Z" transform="translate(0 21)" fill="#f4f4f4"/>
            <g clip-path="url(#clip-path-12)">
              <g id="_Hat_Color" data-name="ðŸŽ¨ Hat Color" transform="translate(-2 19)">
                <rect id="_Hat_Color_background" data-name="ðŸŽ¨ Hat Color background" width="149" height="172" fill="rgba(0,0,0,0)"/>
                <rect id="_Color-2" data-name="ðŸ–Color" width="149" height="172" fill="#ff488e"/>
              </g>
              <rect id="color-dark" width="146" height="46" transform="translate(-1 21)" fill="rgba(0,0,0,0.2)"/>
              <g id="light-triangles" transform="translate(29 32)">
                <path id="Triangle" d="M12.5,0,25,18H0Z" transform="translate(25 18) rotate(180)" fill="rgba(255,255,255,0.5)"/>
                <path id="Triangle-2" data-name="Triangle" d="M12.5,0,25,18H0Z" transform="translate(56 18) rotate(180)" fill="rgba(255,255,255,0.5)"/>
                <path id="Triangle-3" data-name="Triangle" d="M12.5,0,25,18H0Z" transform="translate(87 18) rotate(180)" fill="rgba(255,255,255,0.5)"/>
              </g>
              <g id="dark-triangles" transform="translate(13 41)">
                <path id="Triangle-4" data-name="Triangle" d="M12.5,0,25,18H0Z" fill="rgba(0,0,0,0.5)"/>
                <path id="Triangle-5" data-name="Triangle" d="M12.5,0,25,18H0Z" transform="translate(31)" fill="rgba(0,0,0,0.5)"/>
                <path id="Triangle-6" data-name="Triangle" d="M12.5,0,25,18H0Z" transform="translate(62)" fill="rgba(0,0,0,0.5)"/>
                <path id="Triangle-7" data-name="Triangle" d="M12.5,0,25,18H0Z" transform="translate(93)" fill="rgba(0,0,0,0.5)"/>
              </g>
            </g>
          </g>
        </g>
      </g>
    </g>
  </g>
</svg>
