<svg xmlns="http://www.w3.org/2000/svg" xmlns:xlink="http://www.w3.org/1999/xlink" width="264" height="280" viewBox="0 0 264 280">
  <defs>
    <clipPath id="clip-path">
      <rect width="264" height="280" fill="none"/>
    </clipPath>
    <clipPath id="clip-path-2">
      <path id="Body" d="M0,244v-9a72,72,0,0,1,72-72h4V144.611a56.038,56.038,0,0,1-31.694-44.73A12,12,0,0,1,34,88V74A12,12,0,0,1,44,62.166V56a56,56,0,0,1,112,0v6.166A12,12,0,0,1,166,74V88a12,12,0,0,1-10.305,11.881A56.038,56.038,0,0,1,124,144.611V163h4a72,72,0,0,1,72,72v9Z" fill="#d0c6ac"/>
    </clipPath>
    <clipPath id="clip-path-3">
      <rect width="200" height="96.93" fill="none"/>
    </clipPath>
    <clipPath id="clip-path-4">
      <path id="Hoodie" d="M200,96.929H0v-9A72.089,72.089,0,0,1,44,21.574a17.146,17.146,0,0,1,2.6-9.035,19.832,19.832,0,0,1,6.786-6.286C58.619,3.162,66.016,1.117,76,0V18.929a24,24,0,1,0,48,0V0c9.985,1.117,17.381,3.163,22.614,6.254a19.832,19.832,0,0,1,6.786,6.286,17.145,17.145,0,0,1,2.6,9.035,72.018,72.018,0,0,1,44,66.354v9Z" transform="translate(32 13.071)" fill="#b7c1db"/>
    </clipPath>
    <clipPath id="clip-path-5">
      <rect width="28" height="11" fill="none"/>
    </clipPath>
    <clipPath id="clip-path-6">
      <rect width="24" height="8" fill="none"/>
    </clipPath>
    <clipPath id="clip-path-7">
      <rect width="80" height="8" fill="none"/>
    </clipPath>
    <clipPath id="clip-path-8">
      <rect width="88.001" height="11.922" fill="none"/>
    </clipPath>
    <clipPath id="clip-path-10">
      <rect width="260" height="195" fill="none"/>
    </clipPath>
    <clipPath id="clip-path-11">
      <path id="Hair" d="M156,193.152V180.611a56.189,56.189,0,0,0,31.792-45.744A12.071,12.071,0,0,0,198,123V110a11.963,11.963,0,0,0-10-11.833V92a55.831,55.831,0,0,0-2.219-15.627l1.372,12.822-11.341-24L130.676,45.671,100.563,56.228l-21.5,20.191-.044-2.578A55.759,55.759,0,0,0,76,92v6.167A11.962,11.962,0,0,0,66,110v13a12.072,12.072,0,0,0,10.209,11.867A56.189,56.189,0,0,0,108,180.611v10.946a36.463,36.463,0,0,1-38.689-4.869A54.5,54.5,0,0,1,63.5,187a53.5,53.5,0,0,1-48.049-29.946,28.756,28.756,0,0,1-9.044-10.031,28.3,28.3,0,0,1-2.519-6.435,28.747,28.747,0,0,1-.221-13.247A57.94,57.94,0,0,1,11.1,72.874c-.065-.78-.1-1.579-.1-2.374A28.5,28.5,0,0,1,27.1,44.83,55.023,55.023,0,0,1,74.651,13.049,28.349,28.349,0,0,1,94.5,5a28.7,28.7,0,0,1,6.753.8,84.344,84.344,0,0,1,60.155-.513A28.9,28.9,0,0,1,165.5,5a28.349,28.349,0,0,1,19.85,8.049,55.02,55.02,0,0,1,47.545,31.78A28.5,28.5,0,0,1,249,70.5c0,.8-.032,1.6-.1,2.374a58.105,58.105,0,0,1,7.43,54.467,28.747,28.747,0,0,1-.221,13.247,28.3,28.3,0,0,1-2.519,6.435,28.713,28.713,0,0,1-9.044,10.031A53.5,53.5,0,0,1,196.5,187a54.377,54.377,0,0,1-5.81-.312A36.562,36.562,0,0,1,156,193.152Z" transform="translate(1)" fill="#314756"/>
    </clipPath>
    <clipPath id="clip-path-12">
      <rect fill="none"/>
    </clipPath>
    <clipPath id="clip-path-13">
      <rect width="126" height="50" fill="none"/>
    </clipPath>
    <filter id="Lennon_Glasses" x="69" y="88" width="126" height="50" filterUnits="userSpaceOnUse">
      <feOffset dy="2" input="SourceAlpha"/>
      <feGaussianBlur result="blur"/>
      <feFlood flood-opacity="0.102"/>
      <feComposite operator="in" in2="blur"/>
      <feComposite in="SourceGraphic"/>
    </filter>
  </defs>
  <g id="avataaar" clip-path="url(#clip-path)">
    <g id="Body-2" data-name="Body" transform="translate(32 36)">
      <path id="Body-3" data-name="Body" d="M0,244v-9a72,72,0,0,1,72-72h4V144.611a56.038,56.038,0,0,1-31.694-44.73A12,12,0,0,1,34,88V74A12,12,0,0,1,44,62.166V56a56,56,0,0,1,112,0v6.166A12,12,0,0,1,166,74V88a12,12,0,0,1-10.305,11.881A56.038,56.038,0,0,1,124,144.611V163h4a72,72,0,0,1,72,72v9Z" fill="#d0c6ac"/>
      <g id="Body-4" data-name="Body" clip-path="url(#clip-path-2)">
        <g id="_Skin" data-name="ðŸŽ¨ Skin" transform="translate(-32)">
          <rect id="_Skin_background" data-name="ðŸŽ¨ Skin background" width="264" height="244" fill="rgba(0,0,0,0)"/>
          <rect id="Color" width="244" height="244" fill="#ae5d29"/>
        </g>
        <path id="Neck_Shadow" data-name="Neck Shadow" d="M56,79A55.825,55.825,0,0,1,16.4,62.6,55.825,55.825,0,0,1,0,23V15.477a56,56,0,0,0,112-.451V23A56.063,56.063,0,0,1,77.8,74.6,55.65,55.65,0,0,1,56,79Z" transform="translate(44 79)" fill="rgba(0,0,0,0.1)"/>
      </g>
    </g>
    <g id="_Clothes" data-name="ðŸ‘” Clothes" transform="translate(32 183.07)" clip-path="url(#clip-path-3)">
      <path id="Hoodie-2" data-name="Hoodie" d="M200,96.929H0v-9A72.089,72.089,0,0,1,44,21.574a17.146,17.146,0,0,1,2.6-9.035,19.832,19.832,0,0,1,6.786-6.286C58.619,3.162,66.016,1.117,76,0V18.929a24,24,0,1,0,48,0V0c9.985,1.117,17.381,3.163,22.614,6.254a19.832,19.832,0,0,1,6.786,6.286,17.145,17.145,0,0,1,2.6,9.035,72.018,72.018,0,0,1,44,66.354v9Z" transform="translate(0 0)" fill="#b7c1db"/>
      <g transform="translate(-32 -13.07)" clip-path="url(#clip-path-4)">
        <g id="_Color_Fabric" data-name="â†³ Color Fabric">
          <rect id="_Color_Fabric_background" data-name="â†³ Color Fabric background" width="264" height="110" fill="rgba(0,0,0,0)"/>
          <rect id="_Color" data-name="ðŸ–Color" width="264" height="110" fill="#65c9ff"/>
        </g>
        <path id="Straps" d="M7,51.85H0V0A64.723,64.723,0,0,0,7,3.589Zm63.5-8a3.5,3.5,0,0,1-3.5-3.5V3.589A64.723,64.723,0,0,0,74,0V40.35A3.5,3.5,0,0,1,70.5,43.85Z" transform="translate(95 58.15)" fill="#f4f4f4"/>
        <path id="Shadow" d="M67.457,55.271v0c13.41-.178,27.118-4.117,37.61-10.808C116.309,37.292,122.5,28.02,122.5,18.353c0-8.637-4.894-14.641-14.96-18.353C124.672,3.24,133,9.647,133,19.583c0,4.769-1.913,9.444-5.685,13.893A49.148,49.148,0,0,1,112.3,44.821C99.786,51.317,83.442,55.126,67.457,55.271Zm-1.915,0C49.558,55.126,33.214,51.317,20.7,44.821A49.148,49.148,0,0,1,5.685,33.476C1.913,29.027,0,24.352,0,19.583,0,9.646,8.328,3.24,25.461,0,15.394,3.712,10.5,9.715,10.5,18.353c0,9.667,6.191,18.939,17.433,26.108,10.492,6.691,24.2,10.63,37.61,10.808Z" transform="translate(65.5 12.724)" fill="rgba(0,0,0,0.16)"/>
      </g>
    </g>
    <g id="Face" transform="translate(76 82)">
      <g id="_Mouth" data-name="ðŸ‘„ Mouth" transform="translate(42 66)" clip-path="url(#clip-path-5)">
        <path id="Mouth" d="M0,2c0,5.372,6.158,9,14,9S28,7.372,28,2a2.036,2.036,0,0,0-2-2,1.97,1.97,0,0,0-2,2c-1.242,2.938-4.317,4.716-10,5C8.317,6.716,5.242,4.938,4,2A1.97,1.97,0,0,0,2,0,2.036,2.036,0,0,0,0,2Z" fill="rgba(0,0,0,0.6)"/>
      </g>
      <g id="_Nose" data-name="ðŸ‘ƒðŸ½ Nose" transform="translate(44 48)" clip-path="url(#clip-path-6)">
        <path id="Nose" d="M0,0C0,4.418,5.373,8,12,8h0c6.627,0,12-3.582,12-8" fill="rgba(0,0,0,0.16)"/>
      </g>
      <g id="_Eyes" data-name="ðŸ‘ Eyes" transform="translate(16 34)" clip-path="url(#clip-path-7)">
        <path id="Closed_Eye" data-name="Closed Eye" d="M.16-6.447A11.947,11.947,0,0,0,11,0,11.953,11.953,0,0,0,21.815-6.407c.551-1.122-.233-2.04-1.025-1.36A15.047,15.047,0,0,1,11-4.344a15.126,15.126,0,0,1-9.56-3.228C.547-8.3-.38-7.558.16-6.447Z" transform="translate(0 8)" fill="rgba(0,0,0,0.6)"/>
        <path id="Closed_Eye-2" data-name="Closed Eye" d="M.16-6.447A11.947,11.947,0,0,0,11,0,11.953,11.953,0,0,0,21.815-6.407c.551-1.122-.233-2.04-1.025-1.36A15.047,15.047,0,0,1,11-4.344a15.126,15.126,0,0,1-9.56-3.228C.547-8.3-.38-7.558.16-6.447Z" transform="translate(58 8)" fill="rgba(0,0,0,0.6)"/>
      </g>
      <g id="_Eyebrow" data-name="âœï¸ Eyebrow" transform="translate(12 6.078)" clip-path="url(#clip-path-8)">
        <g id="I_Browse" data-name="I Browse" transform="translate(0 -0.078)">
          <path id="Eyebrow" d="M3.63,11.08c3.915-5.509,14.648-8.6,23.893-6.327A2,2,0,1,0,28.477.868C17.741-1.768,5.312,1.809.37,8.763A2,2,0,0,0,3.63,11.08Z" transform="translate(0 0.078)" fill="rgba(0,0,0,0.6)"/>
          <path id="Eyebrow-2" data-name="Eyebrow" d="M-3.63,11.08c-3.915-5.509-14.648-8.6-23.893-6.327a2,2,0,0,1-2.419-1.465A2,2,0,0,1-28.477.868C-17.741-1.768-5.312,1.809-.37,8.763a2,2,0,0,1-.472,2.789A2,2,0,0,1-3.63,11.08Z" transform="translate(88 0.078)" fill="rgba(0,0,0,0.6)"/>
        </g>
      </g>
    </g>
    <g id="Top">
      <rect id="Mask-2" data-name="Mask" width="264" height="280" fill="none"/>
      <g id="Top-2" data-name="Top" clip-path="url(#clip-path)">
        <g id="Top-3" data-name="Top" clip-path="url(#clip-path-10)">
          <path id="Hair-2" data-name="Hair" d="M156,193.152V180.611a56.189,56.189,0,0,0,31.792-45.744A12.071,12.071,0,0,0,198,123V110a11.963,11.963,0,0,0-10-11.833V92a55.831,55.831,0,0,0-2.219-15.627l1.372,12.822-11.341-24L130.676,45.671,100.563,56.228l-21.5,20.191-.044-2.578A55.759,55.759,0,0,0,76,92v6.167A11.962,11.962,0,0,0,66,110v13a12.072,12.072,0,0,0,10.209,11.867A56.189,56.189,0,0,0,108,180.611v10.946a36.463,36.463,0,0,1-38.689-4.869A54.5,54.5,0,0,1,63.5,187a53.5,53.5,0,0,1-48.049-29.946,28.756,28.756,0,0,1-9.044-10.031,28.3,28.3,0,0,1-2.519-6.435,28.747,28.747,0,0,1-.221-13.247A57.94,57.94,0,0,1,11.1,72.874c-.065-.78-.1-1.579-.1-2.374A28.5,28.5,0,0,1,27.1,44.83,55.023,55.023,0,0,1,74.651,13.049,28.349,28.349,0,0,1,94.5,5a28.7,28.7,0,0,1,6.753.8,84.344,84.344,0,0,1,60.155-.513A28.9,28.9,0,0,1,165.5,5a28.349,28.349,0,0,1,19.85,8.049,55.02,55.02,0,0,1,47.545,31.78A28.5,28.5,0,0,1,249,70.5c0,.8-.032,1.6-.1,2.374a58.105,58.105,0,0,1,7.43,54.467,28.747,28.747,0,0,1-.221,13.247,28.3,28.3,0,0,1-2.519,6.435,28.713,28.713,0,0,1-9.044,10.031A53.5,53.5,0,0,1,196.5,187a54.377,54.377,0,0,1-5.81-.312A36.562,36.562,0,0,1,156,193.152Z" fill="#314756"/>
          <g transform="translate(-1)" clip-path="url(#clip-path-11)">
            <g id="_Hair_Color" data-name="â†³ ðŸ’ˆHair Color" transform="translate(1)">
              <rect id="_Hair_Color_background" data-name="â†³ ðŸ’ˆHair Color background" width="264" height="280" fill="rgba(0,0,0,0)"/>
              <rect id="Color-2" data-name="Color" width="264" height="280" fill="#2c1b18"/>
            </g>
          </g>
          <path id="Band" d="M.631,59.975h0A49.023,49.023,0,0,1,0,52.152a48.4,48.4,0,0,1,4.44-20.3A51.962,51.962,0,0,1,16.549,15.275,56.789,56.789,0,0,1,34.508,4.1a61.055,61.055,0,0,1,43.985,0A56.789,56.789,0,0,1,96.452,15.275,51.962,51.962,0,0,1,108.56,31.852a48.665,48.665,0,0,1,3.81,28.117C108.249,34.7,84.231,15.646,56.5,15.646S4.749,34.7.631,59.975Z" transform="translate(75 39)" fill="#92d9ff"/>
          <g id="_Accessory" data-name="â†³ ðŸ‘“ Accessory" transform="translate(69 88)" clip-path="url(#clip-path-13)">
            <g transform="matrix(1, 0, 0, 1, -69, -88)" filter="url(#Lennon_Glasses)">
              <path id="Lennon_Glasses-2" data-name="Lennon Glasses" d="M94,48A24,24,0,0,1,70,24a24.3,24.3,0,0,1,.36-4.166A7.789,7.789,0,0,0,62.862,12a7.707,7.707,0,0,0-7.421,6.832A24.168,24.168,0,0,1,56,24,24,24,0,1,1,9.037,17H2.5a2.5,2.5,0,1,1,0-5h8a2.5,2.5,0,0,1,.66.088,24.007,24.007,0,0,1,42.256,1.067,11.238,11.238,0,0,1,19.048.239,24.006,24.006,0,0,1,42.376-1.307A2.5,2.5,0,0,1,115.5,12h8a2.5,2.5,0,0,1,0,5h-6.537A24.006,24.006,0,0,1,94,48ZM94,4a20,20,0,1,0,20,20A20.023,20.023,0,0,0,94,4ZM32,4A20,20,0,1,0,52,24,20.023,20.023,0,0,0,32,4Z" transform="translate(69 88)" fill="#252c2f"/>
            </g>
          </g>
        </g>
      </g>
    </g>
  </g>
</svg>
