<svg xmlns="http://www.w3.org/2000/svg" xmlns:xlink="http://www.w3.org/1999/xlink" width="264" height="280" viewBox="0 0 264 280">
  <defs>
    <clipPath id="clip-path">
      <rect width="264" height="280" fill="none"/>
    </clipPath>
    <clipPath id="clip-path-2">
      <path id="Body" d="M0,244v-9a72,72,0,0,1,72-72h4V144.611a56.038,56.038,0,0,1-31.694-44.73A12,12,0,0,1,34,88V74A12,12,0,0,1,44,62.166V56a56,56,0,0,1,112,0v6.166A12,12,0,0,1,166,74V88a12,12,0,0,1-10.305,11.881A56.038,56.038,0,0,1,124,144.611V163h4a72,72,0,0,1,72,72v9Z" fill="#d0c6ac"/>
    </clipPath>
    <clipPath id="clip-path-3">
      <rect width="200" height="80.804" fill="none"/>
    </clipPath>
    <clipPath id="clip-path-4">
      <path id="Clothes" d="M200,80.8H0V71.852A71.951,71.951,0,0,1,67.393,0,14.156,14.156,0,0,0,67,3.3c0,5.743,3.485,11.142,9.812,15.2s14.74,6.3,23.689,6.3,17.361-2.236,23.688-6.3S134,9.044,134,3.3a14.154,14.154,0,0,0-.376-3.232A72.007,72.007,0,0,1,200,71.852V80.8Z" transform="translate(32 29.199)" fill="#e6e6e6"/>
    </clipPath>
    <clipPath id="clip-path-5">
      <rect width="66" height="42" fill="none"/>
    </clipPath>
    <clipPath id="clip-path-6">
      <rect width="28" height="11" fill="none"/>
    </clipPath>
    <clipPath id="clip-path-7">
      <rect width="24" height="8" fill="none"/>
    </clipPath>
    <clipPath id="clip-path-8">
      <rect width="80" height="28" fill="none"/>
    </clipPath>
    <clipPath id="clip-path-9">
      <rect width="88.001" height="18.815" fill="none"/>
    </clipPath>
    <clipPath id="clip-path-11">
      <rect width="233.005" height="267" fill="none"/>
    </clipPath>
    <clipPath id="clip-path-12">
      <path id="Hair" d="M17,267h-.994a39.835,39.835,0,0,1-9.819-7.6l-.017-.019-.03-.033q-.9-1-1.659-2.027a22.621,22.621,0,0,1-3.175-5.949l-.018-.051h0c-7.026-20.3,19.49-43.865,19.884-53.242h0c0-.012,0-.023,0-.035v0q0-.019,0-.038c0-.021,0-.043,0-.064v-.012c0-.019,0-.038,0-.057v-.005c.075-4.54-3.124-7.675-7.163-11.633-.579-.568-1.173-1.149-1.773-1.751a48.867,48.867,0,0,1-6.258-7.416l-.011-.016-.041-.062-.027-.041-.031-.047-.046-.069-.015-.022q-.62-.947-1.2-1.973a33.638,33.638,0,0,1-2.39-5.255l-.005-.015-.039-.109-.016-.047-.025-.072A41.585,41.585,0,0,1,0,155.669c0-.007,0-.014,0-.021,0-.046,0-.094,0-.141,0-.017,0-.034,0-.051,0-.04,0-.077,0-.117s0-.054,0-.08,0-.058,0-.088c0-.058,0-.115,0-.173s0-.111.006-.166a29.152,29.152,0,0,1,5.5-16.8c3.853-5.211,9.138-8.609,13.914-11.935,3.554-2.474,6.768-4.861,8.937-7.883l-.009-.019A14.972,14.972,0,0,0,31.2,109c.168-19-11.389-26.839,0-63C42.84,9.539,72.916.769,116,.016V0l.5.007L117,0V.016C160.088.769,190.166,9.539,201.8,46c9.718,30.855,2.728,41.09.573,55.233l0,.008a48.76,48.76,0,0,0-.559,6.234c0,.035,0,.071,0,.106v.008c0,.041,0,.078,0,.119v0q-.012.636-.006,1.287,0,.055,0,.111c0,.008,0,.016,0,.025q0,.044,0,.087c0,.007,0,.013,0,.021q0,.048,0,.1v.005c.073,7.749,4.9,11.9,10.908,16.14,4.827,3.409,10.315,6.782,14.369,12a28.83,28.83,0,0,1,5.9,16.856v.018q0,.072.007.145l0,.047c0,.04,0,.079.005.118,0,.025,0,.048,0,.073s0,.061,0,.092c0,.056,0,.111.006.167s0,.114,0,.17c0,.033,0,.067,0,.1s0,.047,0,.071c0,.042,0,.081,0,.122,0,.015,0,.029,0,.044,0,.048,0,.095,0,.143,0,.007,0,.013,0,.02a41.567,41.567,0,0,1-2.143,13.675l-.019.055-.019.053-.036.1-.008.022a33.635,33.635,0,0,1-2.389,5.252q-.192.341-.388.671l-.006.01-.052.088-.015.026-.027.045a46.569,46.569,0,0,1-7.352,9.02c-.524.523-1.043,1.031-1.55,1.528-4.045,3.964-7.248,7.1-7.173,11.644v0c0,.019,0,.038,0,.058v.012c0,.021,0,.043,0,.064.252,9.449,27.654,33.6,19.584,54.136A22.609,22.609,0,0,1,229,256.65a26.9,26.9,0,0,1-2.8,3.41A40.9,40.9,0,0,1,217,267v-9a72.082,72.082,0,0,0-72-72h-4v-18.39a56.186,56.186,0,0,0,31.791-45.743A12.072,12.072,0,0,0,183,110V97a12.252,12.252,0,0,0-.115-1.675c-21.523-11.588-40-28.18-52.04-47.024-18.083,25.62-54.317,30.236-79.622,46.38A12.171,12.171,0,0,0,51,97v13a12.072,12.072,0,0,0,10.209,11.867A56.186,56.186,0,0,0,93,167.611V186H89a72.082,72.082,0,0,0-72,72v9h0Z" fill="#314756"/>
    </clipPath>
    <clipPath id="clip-path-13">
      <path id="Shape" d="M17,267h-.994a39.835,39.835,0,0,1-9.819-7.6l-.017-.019-.03-.033q-.908-1.007-1.665-2.036l-.039-.053v0A22.574,22.574,0,0,1,1.281,251.3c-7-20.293,19.5-43.849,19.89-53.223h0v-.039q0-.019,0-.038t0-.064v-.013c0-.019,0-.038,0-.057v-.006c.066-3.986-2.392-6.889-5.727-10.217-3.021-3.016-6.715-6.324-9.734-10.989l-.031-.048-.022-.034-.047-.074-.013-.02-.061-.1v0q-.476-.751-.927-1.551a33.638,33.638,0,0,1-2.39-5.255l-.005-.015-.039-.109-.016-.047-.025-.072A41.585,41.585,0,0,1,0,155.669c0-.007,0-.014,0-.021,0-.046,0-.094,0-.141,0-.017,0-.034,0-.051,0-.04,0-.077,0-.117s0-.054,0-.08,0-.058,0-.088c0-.058,0-.115,0-.173s0-.111.006-.166a29.152,29.152,0,0,1,5.5-16.8c3.853-5.211,9.138-8.609,13.914-11.935,3.554-2.474,6.768-4.861,8.937-7.883l-.009-.019A14.972,14.972,0,0,0,31.2,109c.168-19-11.389-26.839,0-63C42.84,9.539,72.916.769,116,.016V0l.5.007L117,0V.016C160.088.769,190.166,9.539,201.8,46c9.718,30.855,2.728,41.09.573,55.233l0,.008a48.76,48.76,0,0,0-.559,6.234c0,.035,0,.071,0,.106v.008c0,.041,0,.078,0,.119v0q-.012.636-.006,1.287,0,.055,0,.111c0,.008,0,.016,0,.025q0,.044,0,.087c0,.007,0,.013,0,.021q0,.048,0,.1v.005c.073,7.749,4.9,11.9,10.908,16.14,4.858,3.431,10.387,6.826,14.448,12.1a28.794,28.794,0,0,1,5.809,16.59v.013c0,.05.005.1.008.15l0,.032q0,.065.006.131l0,.058c0,.036,0,.072,0,.107s0,.056,0,.085,0,.054,0,.081c0,.056,0,.111.006.168s0,.114,0,.17c0,.033,0,.067,0,.1s0,.047,0,.071c0,.042,0,.081,0,.122,0,.015,0,.029,0,.044,0,.048,0,.095,0,.143,0,.007,0,.013,0,.02a41.567,41.567,0,0,1-2.143,13.675l-.019.055-.019.053-.036.1-.008.022a33.635,33.635,0,0,1-2.389,5.252q-.512.909-1.058,1.754l-.011.018-.063.1,0,0-.058.089-.049.075-.009.014a48.672,48.672,0,0,1-6.444,7.663c-.576.577-1.146,1.135-1.7,1.68-4.042,3.961-7.243,7.1-7.167,11.639v0c0,.019,0,.039,0,.058v.012c0,.021,0,.043,0,.064s0,.026,0,.038h0c.323,9.476,27.642,33.59,19.583,54.1A22.609,22.609,0,0,1,229,256.65a26.9,26.9,0,0,1-2.8,3.41A40.9,40.9,0,0,1,217,267v-9a72.082,72.082,0,0,0-72-72h-4V140H93v46H89a72.082,72.082,0,0,0-72,72v9h0Z" fill="none"/>
    </clipPath>
    <clipPath id="clip-path-14">
      <rect fill="none"/>
    </clipPath>
  </defs>
  <g id="avataaar" clip-path="url(#clip-path)">
    <g id="Body-2" data-name="Body" transform="translate(32 36)">
      <path id="Body-3" data-name="Body" d="M0,244v-9a72,72,0,0,1,72-72h4V144.611a56.038,56.038,0,0,1-31.694-44.73A12,12,0,0,1,34,88V74A12,12,0,0,1,44,62.166V56a56,56,0,0,1,112,0v6.166A12,12,0,0,1,166,74V88a12,12,0,0,1-10.305,11.881A56.038,56.038,0,0,1,124,144.611V163h4a72,72,0,0,1,72,72v9Z" fill="#d0c6ac"/>
      <g id="Body-4" data-name="Body" clip-path="url(#clip-path-2)">
        <g id="_Skin" data-name="ðŸŽ¨ Skin" transform="translate(-32)">
          <rect id="_Skin_background" data-name="ðŸŽ¨ Skin background" width="264" height="244" fill="rgba(0,0,0,0)"/>
          <rect id="Color" width="244" height="244" fill="#edb98a"/>
        </g>
        <path id="Neck_Shadow" data-name="Neck Shadow" d="M56,79A55.825,55.825,0,0,1,16.4,62.6,55.825,55.825,0,0,1,0,23V15.477a56,56,0,0,0,112-.451V23A56.063,56.063,0,0,1,77.8,74.6,55.65,55.65,0,0,1,56,79Z" transform="translate(44 79)" fill="rgba(0,0,0,0.1)"/>
      </g>
    </g>
    <g id="_Clothes" data-name="ðŸ‘” Clothes" transform="translate(32 199.196)" clip-path="url(#clip-path-3)">
      <path id="Clothes-2" data-name="Clothes" d="M200,80.8H0V71.852A71.951,71.951,0,0,1,67.393,0,14.156,14.156,0,0,0,67,3.3c0,5.743,3.485,11.142,9.812,15.2s14.74,6.3,23.689,6.3,17.361-2.236,23.688-6.3S134,9.044,134,3.3a14.154,14.154,0,0,0-.376-3.232A72.007,72.007,0,0,1,200,71.852V80.8Z" transform="translate(0 0.003)" fill="#e6e6e6"/>
      <g transform="translate(-32 -29.196)" clip-path="url(#clip-path-4)">
        <g id="_Color_Fabric" data-name="â†³ Color Fabric">
          <rect id="_Color_Fabric_background" data-name="â†³ Color Fabric background" width="264" height="110" fill="rgba(0,0,0,0)"/>
          <rect id="_Color" data-name="ðŸ–Color" width="264" height="110" fill="#25557c"/>
        </g>
        <g id="_Graphic" data-name="â†³ Graphic" transform="translate(99 59)" clip-path="url(#clip-path-5)">
          <path id="Batman_" data-name="Batman!" d="M65.685,12.4c-1.394-6.431-6.21-10.15-12.5-11.586C50.659.24,42.272-1.57,43.578,3.225a5.358,5.358,0,0,1-1.553,5.767c-1.77,1.755-5.231,2.2-6.952-.011-1.474-1.9.427-4.721-.722-6.567a1.583,1.583,0,0,0-2.028-.732C31.183,2.175,31.79,3.236,31.251,4c-.849,1.2-1.245.827-2.009-.373-.48-.754-.008-1.575-1.247-1.9-1.433-.373-1.9.828-2.032,1.922A22.518,22.518,0,0,0,26.3,6.14a10.463,10.463,0,0,1-.725,4.529c-1.125,2.137-2.7,1.453-4.383.1a5.6,5.6,0,0,1-2.178-5.817c.459-2.916.293-5.708-3.279-3.884A33.273,33.273,0,0,0,3.145,12.983C.7,17-1.224,21.876.942,26.456c2.21,4.675,5.862,8.69,10.966,9.884,1.321.309,5.092,1.811,6.345.551,1.947-1.957-2.548-3.782-3.435-4.975-1.258-1.69-2.337-4.915-.956-6.821,1.759-2.427,3.6-1.074,5.045.643,1.135,1.348,2.749,4.826,4.506,2.022,1.209-1.931,1.1-5.1,4.4-3.717,4.714,1.978,4.859,11.112,5.7,15.291.367,1.829,2.035,4.064,3.471,1.525.789-1.4.363-4.422.219-5.863-.3-2.985-1.08-5.92-.11-8.877.561-1.711,2-4.16,4.13-2.844,1.725,1.066,1.006,5.816,3.352,5.807,2.067-.007,1.5-3.791,2.6-5.039,1.679-1.9,4.916-1,5.909,1.249,1.337,3.025-2.2,5.126-2.043,7.785.155,2.592,3.494,1.58,4.891.923a15.776,15.776,0,0,0,6.675-6.571c2.408-4.2,4.126-10.222,3.075-15.026" fill="#fff"/>
        </g>
      </g>
    </g>
    <g id="Face" transform="translate(76 82)">
      <g id="_Mouth" data-name="ðŸ‘„ Mouth" transform="translate(42 66)" clip-path="url(#clip-path-6)">
        <path id="Mouth" d="M0,2c0,5.372,6.158,9,14,9S28,7.372,28,2a2.036,2.036,0,0,0-2-2,1.97,1.97,0,0,0-2,2c-1.242,2.938-4.317,4.716-10,5C8.317,6.716,5.242,4.938,4,2A1.97,1.97,0,0,0,2,0,2.036,2.036,0,0,0,0,2Z" fill="rgba(0,0,0,0.6)"/>
      </g>
      <g id="_Nose" data-name="ðŸ‘ƒðŸ½ Nose" transform="translate(44 48)" clip-path="url(#clip-path-7)">
        <path id="Nose" d="M0,0C0,4.418,5.373,8,12,8h0c6.627,0,12-3.582,12-8" fill="rgba(0,0,0,0.16)"/>
      </g>
      <g id="_Eyes" data-name="ðŸ‘ Eyes" transform="translate(16 16)" clip-path="url(#clip-path-8)">
        <circle id="Eyeball" cx="14" cy="14" r="14" fill="#fff"/>
        <circle id="The_white_stuff" data-name="The white stuff" cx="14" cy="14" r="14" transform="translate(52)" fill="#fff"/>
        <circle id="Eye" cx="6" cy="6" r="6" transform="translate(8)" fill="rgba(0,0,0,0.7)"/>
        <circle id="Eye-2" data-name="Eye" cx="6" cy="6" r="6" transform="translate(60)" fill="rgba(0,0,0,0.7)"/>
      </g>
      <g id="_Eyebrow" data-name="âœï¸ Eyebrow" transform="translate(12 0.003)" clip-path="url(#clip-path-9)">
        <g id="I_Browse" data-name="I Browse" transform="translate(0 -0.003)">
          <path id="Eyebrow" d="M3.976,17.125C5.471,7.6,18.059,1.106,27.164,5.3a2,2,0,1,0,1.673-3.633C17.349-3.625,1.936,4.33.024,16.5a2,2,0,1,0,3.952.62Z" transform="translate(0 0.003)" fill="rgba(0,0,0,0.6)"/>
          <path id="Eyebrow-2" data-name="Eyebrow" d="M-3.976,17.125C-5.471,7.6-18.059,1.106-27.164,5.3a2,2,0,0,1-2.653-.98,2,2,0,0,1,.98-2.653C-17.349-3.625-1.936,4.33-.024,16.5A2,2,0,0,1-1.69,18.791,2,2,0,0,1-3.976,17.125Z" transform="translate(88 0.003)" fill="rgba(0,0,0,0.6)"/>
        </g>
      </g>
    </g>
    <g id="Top">
      <rect id="Mask-2" data-name="Mask" width="264" height="280" fill="none"/>
      <g id="Top-2" data-name="Top" clip-path="url(#clip-path)">
        <g id="Top-3" data-name="Top" transform="translate(15 13)" clip-path="url(#clip-path-11)">
          <g id="Hair-2" data-name="Hair" transform="translate(0)">
            <path id="Hair-3" data-name="Hair" d="M17,267h-.994a39.835,39.835,0,0,1-9.819-7.6l-.017-.019-.03-.033q-.9-1-1.659-2.027a22.621,22.621,0,0,1-3.175-5.949l-.018-.051h0c-7.026-20.3,19.49-43.865,19.884-53.242h0c0-.012,0-.023,0-.035v0q0-.019,0-.038c0-.021,0-.043,0-.064v-.012c0-.019,0-.038,0-.057v-.005c.075-4.54-3.124-7.675-7.163-11.633-.579-.568-1.173-1.149-1.773-1.751a48.867,48.867,0,0,1-6.258-7.416l-.011-.016-.041-.062-.027-.041-.031-.047-.046-.069-.015-.022q-.62-.947-1.2-1.973a33.638,33.638,0,0,1-2.39-5.255l-.005-.015-.039-.109-.016-.047-.025-.072A41.585,41.585,0,0,1,0,155.669c0-.007,0-.014,0-.021,0-.046,0-.094,0-.141,0-.017,0-.034,0-.051,0-.04,0-.077,0-.117s0-.054,0-.08,0-.058,0-.088c0-.058,0-.115,0-.173s0-.111.006-.166a29.152,29.152,0,0,1,5.5-16.8c3.853-5.211,9.138-8.609,13.914-11.935,3.554-2.474,6.768-4.861,8.937-7.883l-.009-.019A14.972,14.972,0,0,0,31.2,109c.168-19-11.389-26.839,0-63C42.84,9.539,72.916.769,116,.016V0l.5.007L117,0V.016C160.088.769,190.166,9.539,201.8,46c9.718,30.855,2.728,41.09.573,55.233l0,.008a48.76,48.76,0,0,0-.559,6.234c0,.035,0,.071,0,.106v.008c0,.041,0,.078,0,.119v0q-.012.636-.006,1.287,0,.055,0,.111c0,.008,0,.016,0,.025q0,.044,0,.087c0,.007,0,.013,0,.021q0,.048,0,.1v.005c.073,7.749,4.9,11.9,10.908,16.14,4.827,3.409,10.315,6.782,14.369,12a28.83,28.83,0,0,1,5.9,16.856v.018q0,.072.007.145l0,.047c0,.04,0,.079.005.118,0,.025,0,.048,0,.073s0,.061,0,.092c0,.056,0,.111.006.167s0,.114,0,.17c0,.033,0,.067,0,.1s0,.047,0,.071c0,.042,0,.081,0,.122,0,.015,0,.029,0,.044,0,.048,0,.095,0,.143,0,.007,0,.013,0,.02a41.567,41.567,0,0,1-2.143,13.675l-.019.055-.019.053-.036.1-.008.022a33.635,33.635,0,0,1-2.389,5.252q-.192.341-.388.671l-.006.01-.052.088-.015.026-.027.045a46.569,46.569,0,0,1-7.352,9.02c-.524.523-1.043,1.031-1.55,1.528-4.045,3.964-7.248,7.1-7.173,11.644v0c0,.019,0,.038,0,.058v.012c0,.021,0,.043,0,.064.252,9.449,27.654,33.6,19.584,54.136A22.609,22.609,0,0,1,229,256.65a26.9,26.9,0,0,1-2.8,3.41A40.9,40.9,0,0,1,217,267v-9a72.082,72.082,0,0,0-72-72h-4v-18.39a56.186,56.186,0,0,0,31.791-45.743A12.072,12.072,0,0,0,183,110V97a12.252,12.252,0,0,0-.115-1.675c-21.523-11.588-40-28.18-52.04-47.024-18.083,25.62-54.317,30.236-79.622,46.38A12.171,12.171,0,0,0,51,97v13a12.072,12.072,0,0,0,10.209,11.867A56.186,56.186,0,0,0,93,167.611V186H89a72.082,72.082,0,0,0-72,72v9h0Z" fill="#314756"/>
            <g id="Hair-4" data-name="Hair" clip-path="url(#clip-path-12)">
              <g id="_Hair_Color" data-name="â†³ ðŸ’ˆHair Color" transform="translate(-15 -13)">
                <rect id="_Hair_Color_background" data-name="â†³ ðŸ’ˆHair Color background" width="264" height="280" fill="rgba(0,0,0,0)"/>
                <rect id="Color-2" data-name="Color" width="264" height="280" fill="#4a312c"/>
              </g>
            </g>
          </g>
          <g id="Shadow" transform="translate(0)">
            <path id="Shape-2" data-name="Shape" d="M17,267h-.994a39.835,39.835,0,0,1-9.819-7.6l-.017-.019-.03-.033q-.908-1.007-1.665-2.036l-.039-.053v0A22.574,22.574,0,0,1,1.281,251.3c-7-20.293,19.5-43.849,19.89-53.223h0v-.039q0-.019,0-.038t0-.064v-.013c0-.019,0-.038,0-.057v-.006c.066-3.986-2.392-6.889-5.727-10.217-3.021-3.016-6.715-6.324-9.734-10.989l-.031-.048-.022-.034-.047-.074-.013-.02-.061-.1v0q-.476-.751-.927-1.551a33.638,33.638,0,0,1-2.39-5.255l-.005-.015-.039-.109-.016-.047-.025-.072A41.585,41.585,0,0,1,0,155.669c0-.007,0-.014,0-.021,0-.046,0-.094,0-.141,0-.017,0-.034,0-.051,0-.04,0-.077,0-.117s0-.054,0-.08,0-.058,0-.088c0-.058,0-.115,0-.173s0-.111.006-.166a29.152,29.152,0,0,1,5.5-16.8c3.853-5.211,9.138-8.609,13.914-11.935,3.554-2.474,6.768-4.861,8.937-7.883l-.009-.019A14.972,14.972,0,0,0,31.2,109c.168-19-11.389-26.839,0-63C42.84,9.539,72.916.769,116,.016V0l.5.007L117,0V.016C160.088.769,190.166,9.539,201.8,46c9.718,30.855,2.728,41.09.573,55.233l0,.008a48.76,48.76,0,0,0-.559,6.234c0,.035,0,.071,0,.106v.008c0,.041,0,.078,0,.119v0q-.012.636-.006,1.287,0,.055,0,.111c0,.008,0,.016,0,.025q0,.044,0,.087c0,.007,0,.013,0,.021q0,.048,0,.1v.005c.073,7.749,4.9,11.9,10.908,16.14,4.858,3.431,10.387,6.826,14.448,12.1a28.794,28.794,0,0,1,5.809,16.59v.013c0,.05.005.1.008.15l0,.032q0,.065.006.131l0,.058c0,.036,0,.072,0,.107s0,.056,0,.085,0,.054,0,.081c0,.056,0,.111.006.168s0,.114,0,.17c0,.033,0,.067,0,.1s0,.047,0,.071c0,.042,0,.081,0,.122,0,.015,0,.029,0,.044,0,.048,0,.095,0,.143,0,.007,0,.013,0,.02a41.567,41.567,0,0,1-2.143,13.675l-.019.055-.019.053-.036.1-.008.022a33.635,33.635,0,0,1-2.389,5.252q-.512.909-1.058,1.754l-.011.018-.063.1,0,0-.058.089-.049.075-.009.014a48.672,48.672,0,0,1-6.444,7.663c-.576.577-1.146,1.135-1.7,1.68-4.042,3.961-7.243,7.1-7.167,11.639v0c0,.019,0,.039,0,.058v.012c0,.021,0,.043,0,.064s0,.026,0,.038h0c.323,9.476,27.642,33.59,19.583,54.1A22.609,22.609,0,0,1,229,256.65a26.9,26.9,0,0,1-2.8,3.41A40.9,40.9,0,0,1,217,267v-9a72.082,72.082,0,0,0-72-72h-4V140H93v46H89a72.082,72.082,0,0,0-72,72v9h0Z" fill="none"/>
            <g id="Shadow-2" data-name="Shadow" clip-path="url(#clip-path-13)">
              <path id="Shadow_Mask" data-name="Shadow Mask" d="M2.3,74.207a.031.031,0,0,1-.03-.018,13.455,13.455,0,0,0,2.979-8.758C5.309,59.523,4.075,54.8,2.768,49.8,1.431,44.684.049,39.4,0,32.477c-.054-7.831,1.663-16.683,5.25-27.063A16.731,16.731,0,0,1,8.5,0c-6.9,23-4.288,33.971-1.76,44.586,1.251,5.249,2.432,10.208,2.377,16.409a15.371,15.371,0,0,1-1.1,6.057c-.709.9-1.489,1.931-2.243,2.924C4.114,72.154,2.555,74.207,2.3,74.207Zm9.29-11.283h0c.421-.591.773-1.076,1.079-1.481a55.662,55.662,0,0,1,9.415-9.695A80.406,80.406,0,0,1,33.418,44.1c8.059-4.566,17.155-8.3,25.952-11.9C77.962,24.575,97.187,16.691,108.756.3c15.258,23.868,41.86,44.662,71.164,55.624a4.673,4.673,0,0,0,.19-1.37,4.737,4.737,0,0,1,.177-1.324c.454-2.978,1.109-5.73,1.8-8.644C184.619,33.97,187.233,22.995,180.331,0a16.743,16.743,0,0,1,3.244,5.412c3.587,10.38,5.3,19.233,5.251,27.064-.048,6.918-1.43,12.207-2.767,17.322-.725,2.775-1.411,5.4-1.885,8.233a4.138,4.138,0,0,0-.185,1.261,4.087,4.087,0,0,1-.2,1.305,167.89,167.89,0,0,1-22.3-9.464,164.986,164.986,0,0,1-20.36-12.347A146.8,146.8,0,0,1,123.505,24.1a118.72,118.72,0,0,1-14.1-16.491A57.736,57.736,0,0,1,99,17.911,85.2,85.2,0,0,1,86.434,25.9C77.5,30.63,67.476,34.376,57.784,38,40.765,44.359,23.172,50.935,11.592,62.923Z" transform="translate(22.089 48.005)" fill="rgba(0,0,0,0.16)"/>
            </g>
          </g>
          <path id="Light" d="M8.58,109.446C31.116,79.527,82.069,80.324,104.667,48.3c15.4,24.088,41.819,44.647,71.164,55.624.3-.854.081-1.849.367-2.694,2.155-14.143,9.144-24.378-.573-55.233C163.987,9.539,133.91.768,90.824.016l-1-.016C46.738.768,16.661,9.539,5.024,46c-11.389,36.161.169,44,0,63a14.975,14.975,0,0,1-2.85,9.193C2.358,118.595,6.328,112.437,8.58,109.446Z" transform="translate(26.178)" fill="rgba(255,255,255,0.1)"/>
        </g>
      </g>
    </g>
  </g>
</svg>
