<svg xmlns="http://www.w3.org/2000/svg" xmlns:xlink="http://www.w3.org/1999/xlink" width="264" height="280" viewBox="0 0 264 280">
  <defs>
    <clipPath id="clip-path">
      <rect width="264" height="280" fill="none"/>
    </clipPath>
    <clipPath id="clip-path-2">
      <path id="Body" d="M0,244v-9a72,72,0,0,1,72-72h4V144.611a56.038,56.038,0,0,1-31.694-44.73A12,12,0,0,1,34,88V74A12,12,0,0,1,44,62.166V56a56,56,0,0,1,112,0v6.166A12,12,0,0,1,166,74V88a12,12,0,0,1-10.305,11.881A56.038,56.038,0,0,1,124,144.611V163h4a72,72,0,0,1,72,72v9Z" fill="#d0c6ac"/>
    </clipPath>
    <clipPath id="clip-path-3">
      <rect width="200" height="80.804" fill="none"/>
    </clipPath>
    <clipPath id="clip-path-4">
      <path id="Clothes" d="M200,80.8H0V71.852A71.951,71.951,0,0,1,67.393,0,14.156,14.156,0,0,0,67,3.3c0,5.743,3.485,11.142,9.812,15.2s14.74,6.3,23.689,6.3,17.361-2.236,23.688-6.3S134,9.044,134,3.3a14.154,14.154,0,0,0-.376-3.232A72.007,72.007,0,0,1,200,71.852V80.8Z" transform="translate(32 29.199)" fill="#e6e6e6"/>
    </clipPath>
    <clipPath id="clip-path-5">
      <rect width="37.334" height="40" fill="none"/>
    </clipPath>
    <clipPath id="clip-path-6">
      <rect width="28" height="14" fill="none"/>
    </clipPath>
    <clipPath id="clip-path-7">
      <rect width="24" height="8" fill="none"/>
    </clipPath>
    <clipPath id="clip-path-8">
      <rect width="68.504" height="12" fill="none"/>
    </clipPath>
    <clipPath id="clip-path-9">
      <rect width="88.001" height="11.922" fill="none"/>
    </clipPath>
    <clipPath id="clip-path-11">
      <rect width="200.942" height="251.045" fill="none"/>
    </clipPath>
    <clipPath id="clip-path-12">
      <path id="Hair" d="M0,247.946c13.605-7.962,20.808-58.938,21-90.453v-88.5a46.142,46.142,0,0,1,1.163-10.346A70.8,70.8,0,0,1,50,12.946c19.9-14.76,53.443-19.02,65.047-1.477,8.651-3.843,21.471-.341,30.953,8.477,9.565,9.415,17.2,30.2,12.658,47.2q.158,1.906.158,3.839v21.84h0A12,12,0,0,0,149,83.111v-.166c-6.036-21.536-23.771-31.42-34.571-41.223C97.535,60.619,44.822,60.687,27,97.946v10a12.071,12.071,0,0,0,10.209,11.867A56.18,56.18,0,0,0,69,165.557v.389c2.56,38.317-4.425,85.1-47.822,85.1A81.788,81.788,0,0,1,0,247.946Zm121-64h-4V165.557a56.187,56.187,0,0,0,31.792-45.743,11.967,11.967,0,0,0,10.024-9.76v1.363a100.46,100.46,0,0,0,10.962,45.523l26.949,52.708a38.422,38.422,0,0,1,3.644,10.781,37.239,37.239,0,0,1,.327,10.766,38.323,38.323,0,0,1-7.906,19.212l0,0A72.282,72.282,0,0,0,121,183.946Z" transform="translate(0 0.054)" fill="#272c2e"/>
    </clipPath>
    <clipPath id="clip-path-13">
      <rect fill="none"/>
    </clipPath>
    <clipPath id="clip-path-14">
      <rect width="130.465" height="49.303" fill="none"/>
    </clipPath>
  </defs>
  <g id="avataaar" clip-path="url(#clip-path)">
    <g id="Body-2" data-name="Body" transform="translate(32 36)">
      <path id="Body-3" data-name="Body" d="M0,244v-9a72,72,0,0,1,72-72h4V144.611a56.038,56.038,0,0,1-31.694-44.73A12,12,0,0,1,34,88V74A12,12,0,0,1,44,62.166V56a56,56,0,0,1,112,0v6.166A12,12,0,0,1,166,74V88a12,12,0,0,1-10.305,11.881A56.038,56.038,0,0,1,124,144.611V163h4a72,72,0,0,1,72,72v9Z" fill="#d0c6ac"/>
      <g id="Body-4" data-name="Body" clip-path="url(#clip-path-2)">
        <g id="_Skin" data-name="ðŸŽ¨ Skin" transform="translate(-32)">
          <rect id="_Skin_background" data-name="ðŸŽ¨ Skin background" width="264" height="244" fill="rgba(0,0,0,0)"/>
          <rect id="Color" width="244" height="244" fill="#ffdbb4"/>
        </g>
        <path id="Neck_Shadow" data-name="Neck Shadow" d="M56,79A55.825,55.825,0,0,1,16.4,62.6,55.825,55.825,0,0,1,0,23V15.477a56,56,0,0,0,112-.451V23A56.063,56.063,0,0,1,77.8,74.6,55.65,55.65,0,0,1,56,79Z" transform="translate(44 79)" fill="rgba(0,0,0,0.1)"/>
      </g>
    </g>
    <g id="_Clothes" data-name="ðŸ‘” Clothes" transform="translate(32 199.196)" clip-path="url(#clip-path-3)">
      <path id="Clothes-2" data-name="Clothes" d="M200,80.8H0V71.852A71.951,71.951,0,0,1,67.393,0,14.156,14.156,0,0,0,67,3.3c0,5.743,3.485,11.142,9.812,15.2s14.74,6.3,23.689,6.3,17.361-2.236,23.688-6.3S134,9.044,134,3.3a14.154,14.154,0,0,0-.376-3.232A72.007,72.007,0,0,1,200,71.852V80.8Z" transform="translate(0 0.003)" fill="#e6e6e6"/>
      <g transform="translate(-32 -29.196)" clip-path="url(#clip-path-4)">
        <g id="_Color_Fabric" data-name="â†³ Color Fabric">
          <rect id="_Color_Fabric_background" data-name="â†³ Color Fabric background" width="264" height="110" fill="rgba(0,0,0,0)"/>
          <rect id="_Color" data-name="ðŸ–Color" width="264" height="110" fill="#ff5c5c"/>
        </g>
        <g id="_Graphic" data-name="â†³ Graphic" transform="translate(112.999 60)" clip-path="url(#clip-path-5)">
          <path id="Fill_49" data-name="Fill 49" d="M12.41,40a3.693,3.693,0,0,1-2.382-1.15,9.723,9.723,0,0,1-2.085-4.037c-.212-.633-.412-1.23-.656-1.8A9.87,9.87,0,0,0,4.27,29.252l-.229-.205C.323,25.7-.068,21,.007,17.283.109,12.224,2.225,8.044,6.475,4.5A20.322,20.322,0,0,1,19.5,0,19.581,19.581,0,0,1,31.642,3.955a14.812,14.812,0,0,1,5.683,11.572,19.83,19.83,0,0,1-1.246,7.61A15.44,15.44,0,0,1,31.7,29.418a3.1,3.1,0,0,0-1.258,2.774c-.018.348-.038.741-.1,1.2l-.024.191a5.093,5.093,0,0,1-1.049,3.035,2.341,2.341,0,0,1-1.7.754c-1.7,0-3.326-1.772-4-2.963-.391,2.625-1.582,4.131-3.266,4.131a4.227,4.227,0,0,1-2.693-1.184,8.586,8.586,0,0,1-2.191-3.2,7.706,7.706,0,0,0-.357,1.944c-.154,1.5-.312,3.045-1.769,3.7A2.127,2.127,0,0,1,12.41,40Zm6.467-17.2a.541.541,0,0,0-.556.307c-.045.108-.1.243-.189.437-.667,1.524-2.054,4.694-.723,5.684a1.156,1.156,0,0,0,.658.138,12.521,12.521,0,0,0,4.207-1.08,1.737,1.737,0,0,0,.677-2.091C22.391,24.477,19.967,22.8,18.877,22.8ZM15.714,8.9c-.769,0-1.6.986-2.148,1.639-.1.123-.187.22-.258.3-2.135,2.386-4.887,5.9-4.144,8.87A5.118,5.118,0,0,0,13.8,23.052a2.877,2.877,0,0,0,2.144-.87c1.936-2.033,1.447-5.941,1.09-8.795-.053-.412-.112-.887-.155-1.311-.046-.458-.358-2.83-.737-3.056A.832.832,0,0,0,15.714,8.9Zm5.3-1.245a1.725,1.725,0,0,0-.238.016c-1.228.167-1.167.935-1.083,2l0,.033,0,.031c.013.168.026.341.034.521a48.617,48.617,0,0,0,.751,6.423c.043.241.077.5.111.77a4.834,4.834,0,0,0,1.018,2.932,3.678,3.678,0,0,0,2.5.8,6.906,6.906,0,0,0,3.361-.9,3.278,3.278,0,0,0,1.808-2.351c.15-1.415-.543-3.286-1.952-5.269A16.652,16.652,0,0,0,23.289,8.6l0,0A4.605,4.605,0,0,0,21.012,7.655Z" transform="translate(0.001 0)" fill="#fff"/>
        </g>
      </g>
    </g>
    <g id="Face" transform="translate(76 82)">
      <g id="_Mouth" data-name="ðŸ‘„ Mouth" transform="translate(42 67)" clip-path="url(#clip-path-6)">
        <path id="Mouth" d="M0,0A14,14,0,0,0,14,14h0A14,14,0,0,0,28,0" fill="rgba(0,0,0,0.7)"/>
      </g>
      <g id="_Nose" data-name="ðŸ‘ƒðŸ½ Nose" transform="translate(44 48)" clip-path="url(#clip-path-7)">
        <path id="Nose" d="M0,0C0,4.418,5.373,8,12,8h0c6.627,0,12-3.582,12-8" fill="rgba(0,0,0,0.16)"/>
      </g>
      <g id="_Eyes" data-name="ðŸ‘ Eyes" transform="translate(24 24)" clip-path="url(#clip-path-8)">
        <circle id="Eye" cx="6" cy="6" r="6" fill="rgba(0,0,0,0.6)"/>
        <path id="Winky_Wink" data-name="Winky Wink" d="M.16,6.447A11.947,11.947,0,0,1,11,0,11.953,11.953,0,0,1,21.815,6.407c.551,1.122-.233,2.04-1.025,1.36A15.047,15.047,0,0,0,11,4.344a15.126,15.126,0,0,0-9.56,3.228C.547,8.3-.38,7.558.16,6.447Z" transform="matrix(0.998, -0.07, 0.07, 0.998, 46, 2.535)" fill="rgba(0,0,0,0.6)"/>
      </g>
      <g id="_Eyebrow" data-name="âœï¸ Eyebrow" transform="translate(12 6.078)" clip-path="url(#clip-path-9)">
        <g id="I_Browse" data-name="I Browse" transform="translate(0 -0.078)">
          <path id="Eyebrow" d="M3.63,11.08c3.915-5.509,14.648-8.6,23.893-6.327A2,2,0,1,0,28.477.868C17.741-1.768,5.312,1.809.37,8.763A2,2,0,0,0,3.63,11.08Z" transform="translate(0 0.078)" fill="rgba(0,0,0,0.6)"/>
          <path id="Eyebrow-2" data-name="Eyebrow" d="M-3.63,11.08c-3.915-5.509-14.648-8.6-23.893-6.327a2,2,0,0,1-2.419-1.465A2,2,0,0,1-28.477.868C-17.741-1.768-5.312,1.809-.37,8.763a2,2,0,0,1-.472,2.789A2,2,0,0,1-3.63,11.08Z" transform="translate(88 0.078)" fill="rgba(0,0,0,0.6)"/>
        </g>
      </g>
    </g>
    <g id="Top">
      <rect id="Mask-2" data-name="Mask" width="264" height="280" fill="none"/>
      <g id="Top-2" data-name="Top" clip-path="url(#clip-path)">
        <g id="Top-3" data-name="Top" transform="translate(39 15.053)" clip-path="url(#clip-path-11)">
          <g id="Hair-2" data-name="Hair" transform="translate(0 -0.053)">
            <path id="Hair-3" data-name="Hair" d="M0,247.946c13.605-7.962,20.808-58.938,21-90.453v-88.5a46.142,46.142,0,0,1,1.163-10.346A70.8,70.8,0,0,1,50,12.946c19.9-14.76,53.443-19.02,65.047-1.477,8.651-3.843,21.471-.341,30.953,8.477,9.565,9.415,17.2,30.2,12.658,47.2q.158,1.906.158,3.839v21.84h0A12,12,0,0,0,149,83.111v-.166c-6.036-21.536-23.771-31.42-34.571-41.223C97.535,60.619,44.822,60.687,27,97.946v10a12.071,12.071,0,0,0,10.209,11.867A56.18,56.18,0,0,0,69,165.557v.389c2.56,38.317-4.425,85.1-47.822,85.1A81.788,81.788,0,0,1,0,247.946Zm121-64h-4V165.557a56.187,56.187,0,0,0,31.792-45.743,11.967,11.967,0,0,0,10.024-9.76v1.363a100.46,100.46,0,0,0,10.962,45.523l26.949,52.708a38.422,38.422,0,0,1,3.644,10.781,37.239,37.239,0,0,1,.327,10.766,38.323,38.323,0,0,1-7.906,19.212l0,0A72.282,72.282,0,0,0,121,183.946Z" transform="translate(0 0.054)" fill="#272c2e"/>
            <g id="Hair-4" data-name="Hair" clip-path="url(#clip-path-12)">
              <g id="_Hair_Color" data-name="â†³ ðŸ’ˆHair Color" transform="translate(-39 -15)">
                <rect id="_Hair_Color_background" data-name="â†³ ðŸ’ˆHair Color background" width="264" height="280" fill="rgba(0,0,0,0)"/>
                <rect id="Color-2" data-name="Color" width="264" height="280" fill="#4a312c"/>
              </g>
            </g>
          </g>
          <path id="Shadow" d="M.015,56.2h0a54.17,54.17,0,0,1,10.31-14.609A69.923,69.923,0,0,1,24,30.941C33.91,24.91,44.855,20.821,55.44,16.867,68.5,11.989,80.829,7.382,87.43,0c2.234,2.029,4.754,4.052,7.422,6.194,5,4.013,10.665,8.561,15.571,14.141a52.719,52.719,0,0,1,11.541,20.759c-4.577-14.027-15.747-21.205-25.6-27.538-3.227-2.073-6.276-4.032-8.932-6.124-3.015,2.927-7.3,5.5-13.476,8.1-5.5,2.315-11.8,4.359-18.477,6.524l-.037.012-.005,0C34.55,28.841,10.88,36.515.015,56.2Z" transform="translate(27 41.724)" fill="rgba(0,0,0,0.16)"/>
          <g id="_Accessory" data-name="â†³ ðŸ‘“ Accessory" transform="translate(27.767 72.583)" clip-path="url(#clip-path-14)">
            <g id="Kurts" transform="translate(-0.767 -0.636)">
              <path id="It_" data-name="It!" d="M65.233,10.475C54.2,10.475,52.6,1.39,29.9.1,7.218-.92.048,5.813.009,10.475.046,14.768-1.12,25.925,13.6,38.993,28.37,54.506,43.5,49.245,48.927,44.178c5.441-2.342,11.646-23.355,16.306-23.333S76.1,41.837,81.539,44.178c5.424,5.067,20.557,10.327,35.329-5.185,14.717-13.068,13.551-24.225,13.588-28.519C130.418,5.813,123.247-.92,100.562.1,77.862,1.39,76.27,10.475,65.233,10.475Z" transform="translate(0.767 0.636)" fill="#f4f4f4"/>
              <path id="Did" d="M43.482,15.556C43.863,7.9,30.569-.283,16.306,0,2.05.3.195,9.453,0,12.963-.349,21.1,8.367,39.378,24.459,38.889,40.55,38.38,43.262,20.609,43.482,15.556Z" transform="translate(11.647 5.926)" fill="#2f383b"/>
              <path id="Courtney" d="M-43.482,15.556C-43.863,7.9-30.569-.283-16.306,0-2.05.3-.195,9.453,0,12.963.349,21.1-8.367,39.378-24.459,38.889-40.55,38.38-43.262,20.609-43.482,15.556Z" transform="translate(120.353 5.926)" fill="#2f383b"/>
            </g>
          </g>
        </g>
      </g>
    </g>
  </g>
</svg>
