<svg xmlns="http://www.w3.org/2000/svg" xmlns:xlink="http://www.w3.org/1999/xlink" width="264" height="280" viewBox="0 0 264 280">
  <defs>
    <clipPath id="clip-path">
      <rect width="264" height="280" fill="none"/>
    </clipPath>
    <clipPath id="clip-path-2">
      <path id="Body" d="M0,244v-9a72,72,0,0,1,72-72h4V144.611a56.038,56.038,0,0,1-31.694-44.73A12,12,0,0,1,34,88V74A12,12,0,0,1,44,62.166V56a56,56,0,0,1,112,0v6.166A12,12,0,0,1,166,74V88a12,12,0,0,1-10.305,11.881A56.038,56.038,0,0,1,124,144.611V163h4a72,72,0,0,1,72,72v9Z" fill="#d0c6ac"/>
    </clipPath>
    <clipPath id="clip-path-3">
      <rect width="200" height="80.78" fill="none"/>
    </clipPath>
    <clipPath id="clip-path-4">
      <path id="Clothes" d="M200,80.78H0V71.833A71.947,71.947,0,0,1,67.045,0C67.015.37,67,.749,67,1.128c0,5.738,3.485,11.132,9.812,15.189s14.74,6.291,23.689,6.291,17.361-2.234,23.688-6.291S134,6.866,134,1.128c0-.349-.013-.7-.04-1.052A72.006,72.006,0,0,1,200,71.833v8.947Z" transform="translate(32 29.22)" fill="#e6e6e6"/>
    </clipPath>
    <clipPath id="clip-path-6">
      <rect width="117.058" height="81.263" fill="none"/>
    </clipPath>
    <clipPath id="clip-path-7">
      <path id="Dreads_With_Cut" data-name="Dreads With Cut" d="M3.631,81.263C1.192,81.249.661,57.477,1.714,48.047c.162-1.448.785-4.038.334-5.341C1.653,41.568-.275,41.571.033,39.675c.349-2.157,2.525-1.085,3.473-2.118C5.3,35.6,2.533,35.14,2.073,33.431c-.682-2.542,1.29-3.2,3.067-4,1.966-.887,1.711-.108,3.307-1.846-2.132-1.562-2.9-3.691.016-4.833a7.921,7.921,0,0,1,2.5-.2,5.9,5.9,0,0,0,2.934-.374c.254-.191.354-1.28.509-1.5,1.551-2.219,1.168-3.825,1.012-6.316-.13-2.038-.113-3.909,2.328-4.113,1.628-.135,2.952,1.2,4.411,1.587,1.619.435,1.011.752,2.279-.121,2.227-1.534.711-4.521,2.477-6.3,2.422-2.445,4.01,1.139,5.955,1.41,4.223.589,2.867-3.7,5.367-5.271,2.988-1.877,3.277,2.251,5.144,2.4C45,4.075,47.908.955,49.317.374c2.282-.942,3.938.076,5.617,1.1,1.4.848,2.812,1.7,4.62,1.415,2.889-.45,3.669-.817,6.277.827,2.531,1.6,3.133.454,6,.432C73.854,4.128,75.094,5.82,76.788,6a2.5,2.5,0,0,0,1.278-.366,2.659,2.659,0,0,1,1.282-.37c3.237.2,3.442,4.382,6.014,5.535,2.35,1.053,5.113-.427,7.445-.7,5.691-.668,1.794,4.648,1.955,7.819a6.167,6.167,0,0,0,3.457-.572,6.536,6.536,0,0,1,3.267-.608c3.5.6,2.18,4.234,1.369,6.68,2.425-.043,8.759-2.737,10.331.707.81,1.777-1.078,4.147-1.048,5.953.044,2.542,1.912,4.644,2.572,7.05.892,3.247,2.163,11.95-.073,14.833-.746.962-5.841-1.74-7.965-2.913-17.846-9.86-21.31-13-49.426-12.586S9.868,50.04,8.784,51.387c-.754.938-1.716,3.441-2.507,10.413s.217,19.463-2.641,19.463ZM114.654,80.1c-.752-.234-1.9-4.955-2.065-7.718s-1.733-12.164-4.142-16.49c-.55-.988-2.126-2.723-1.445-3.559.844-1.037,1.664-.436,2.7-.021a38.418,38.418,0,0,1,4.135,2.615c1.757.988,3.148,10.9,3.216,14.689.041,2.242.077,10.533-2.1,10.532A.985.985,0,0,1,114.654,80.1Z" transform="translate(72 19)" fill="#2e3257"/>
    </clipPath>
  </defs>
  <g id="Avataaar_Default" data-name="Avataaar/Default" clip-path="url(#clip-path)">
    <g id="Body-2" data-name="Body" transform="translate(32.5 36)">
      <path id="Body-3" data-name="Body" d="M0,244v-9a72,72,0,0,1,72-72h4V144.611a56.038,56.038,0,0,1-31.694-44.73A12,12,0,0,1,34,88V74A12,12,0,0,1,44,62.166V56a56,56,0,0,1,112,0v6.166A12,12,0,0,1,166,74V88a12,12,0,0,1-10.305,11.881A56.038,56.038,0,0,1,124,144.611V163h4a72,72,0,0,1,72,72v9Z" fill="#d0c6ac"/>
      <g id="Body-4" data-name="Body" clip-path="url(#clip-path-2)">
        <g id="_Skin" data-name="ðŸŽ¨ Skin" transform="translate(-32)">
          <rect id="_Skin_background" data-name="ðŸŽ¨ Skin background" width="264" height="244" fill="rgba(0,0,0,0)"/>
          <rect id="Color" width="244" height="244" fill="#cbcbcb"/>
        </g>
        <path id="Neck_Shadow" data-name="Neck Shadow" d="M56,79A55.825,55.825,0,0,1,16.4,62.6,55.825,55.825,0,0,1,0,23V15.477a56,56,0,0,0,112-.451V23A56.063,56.063,0,0,1,77.8,74.6,55.65,55.65,0,0,1,56,79Z" transform="translate(44 79)" fill="rgba(0,0,0,0.1)"/>
      </g>
    </g>
    <g id="_Clothes" data-name="ðŸ‘” Clothes" transform="translate(32 199.22)" clip-path="url(#clip-path-3)">
      <path id="Clothes-2" data-name="Clothes" d="M200,80.78H0V71.833A71.947,71.947,0,0,1,67.045,0C67.015.37,67,.749,67,1.128c0,5.738,3.485,11.132,9.812,15.189s14.74,6.291,23.689,6.291,17.361-2.234,23.688-6.291S134,6.866,134,1.128c0-.349-.013-.7-.04-1.052A72.006,72.006,0,0,1,200,71.833v8.947Z" transform="translate(0 -0.001)" fill="#e6e6e6"/>
      <g transform="translate(-32 -29.22)" clip-path="url(#clip-path-4)">
        <g id="_Color_Fabric" data-name="â†³ Color Fabric">
          <rect id="_Color_Fabric_background" data-name="â†³ Color Fabric background" width="264" height="110" fill="rgba(0,0,0,0)"/>
          <rect id="_Color" data-name="ðŸ–Color" width="264" height="110" fill="#e6e6e6"/>
        </g>
        <g id="Shadowy" transform="translate(92 4)" opacity="0.6">
          <ellipse id="Hola_" data-name="Hola ðŸ‘‹ðŸ¼" cx="39.635" cy="26.914" rx="39.635" ry="26.914" transform="translate(0.865 0.934)" fill="rgba(0,0,0,0.16)"/>
        </g>
      </g>
    </g>
    <g id="Top">
      <rect id="Mask-2" data-name="Mask" width="264" height="280" fill="none"/>
      <g id="Top-2" data-name="Top" clip-path="url(#clip-path)">
        <g id="Top-3" data-name="Top" transform="translate(72 19)" clip-path="url(#clip-path-6)">
          <g id="Hair" transform="translate(-72 -19)">
            <path id="Dreads_With_Cut-2" data-name="Dreads With Cut" d="M3.631,81.263C1.192,81.249.661,57.477,1.714,48.047c.162-1.448.785-4.038.334-5.341C1.653,41.568-.275,41.571.033,39.675c.349-2.157,2.525-1.085,3.473-2.118C5.3,35.6,2.533,35.14,2.073,33.431c-.682-2.542,1.29-3.2,3.067-4,1.966-.887,1.711-.108,3.307-1.846-2.132-1.562-2.9-3.691.016-4.833a7.921,7.921,0,0,1,2.5-.2,5.9,5.9,0,0,0,2.934-.374c.254-.191.354-1.28.509-1.5,1.551-2.219,1.168-3.825,1.012-6.316-.13-2.038-.113-3.909,2.328-4.113,1.628-.135,2.952,1.2,4.411,1.587,1.619.435,1.011.752,2.279-.121,2.227-1.534.711-4.521,2.477-6.3,2.422-2.445,4.01,1.139,5.955,1.41,4.223.589,2.867-3.7,5.367-5.271,2.988-1.877,3.277,2.251,5.144,2.4C45,4.075,47.908.955,49.317.374c2.282-.942,3.938.076,5.617,1.1,1.4.848,2.812,1.7,4.62,1.415,2.889-.45,3.669-.817,6.277.827,2.531,1.6,3.133.454,6,.432C73.854,4.128,75.094,5.82,76.788,6a2.5,2.5,0,0,0,1.278-.366,2.659,2.659,0,0,1,1.282-.37c3.237.2,3.442,4.382,6.014,5.535,2.35,1.053,5.113-.427,7.445-.7,5.691-.668,1.794,4.648,1.955,7.819a6.167,6.167,0,0,0,3.457-.572,6.536,6.536,0,0,1,3.267-.608c3.5.6,2.18,4.234,1.369,6.68,2.425-.043,8.759-2.737,10.331.707.81,1.777-1.078,4.147-1.048,5.953.044,2.542,1.912,4.644,2.572,7.05.892,3.247,2.163,11.95-.073,14.833-.746.962-5.841-1.74-7.965-2.913-17.846-9.86-21.31-13-49.426-12.586S9.868,50.04,8.784,51.387c-.754.938-1.716,3.441-2.507,10.413s.217,19.463-2.641,19.463ZM114.654,80.1c-.752-.234-1.9-4.955-2.065-7.718s-1.733-12.164-4.142-16.49c-.55-.988-2.126-2.723-1.445-3.559.844-1.037,1.664-.436,2.7-.021a38.418,38.418,0,0,1,4.135,2.615c1.757.988,3.148,10.9,3.216,14.689.041,2.242.077,10.533-2.1,10.532A.985.985,0,0,1,114.654,80.1Z" transform="translate(72 19)" fill="#2e3257"/>
            <g id="Hair-2" data-name="Hair" clip-path="url(#clip-path-7)">
              <g id="_Hair_Color" data-name="â†³ ðŸ’ˆHair Color">
                <rect id="_Hair_Color_background" data-name="â†³ ðŸ’ˆHair Color background" width="264" height="280" fill="rgba(0,0,0,0)"/>
                <rect id="Color-2" data-name="Color" width="264" height="280" fill="#2c1b18"/>
              </g>
            </g>
          </g>
        </g>
      </g>
    </g>
    <text id="_" data-name="?" transform="translate(120.5 142.5)" fill="#707070" font-size="54" font-family="CircularStd-Bold, Circular Std Bold" font-weight="700"><tspan x="0" y="0">?</tspan></text>
  </g>
</svg>
