<svg xmlns="http://www.w3.org/2000/svg" viewBox="0 0 236 225.422"><defs><style>.b{fill:#dce4f7}</style><pattern id="a" width="22.236" height="24.718" patternTransform="matrix(2.30111 0 0 1.87402 357.646 -382.373)" patternUnits="userSpaceOnUse"><path fill="none" d="M0 0h22.236v24.718H0z"/><path class="b" d="M16.677.349v.309h.001V.349h-.001zM16.677 24.061v.309h.001v-.309h-.001zM27.795 22.204v.49a6.545 6.545 0 0 1-1.102 1.045 2.29 2.29 0 0 0 1.102.322v.309a2.678 2.678 0 0 1-1.39-.433 2.446 2.446 0 0 1-2.779 0 2.447 2.447 0 0 1-2.78 0 2.68 2.68 0 0 1-1.39.433h-.052a3.227 3.227 0 0 1-1.422-.387 2.627 2.627 0 0 1-1.304.387v-.309a2.222 2.222 0 0 0 .995-.265 3.599 3.599 0 0 1-.995-1.06v-.538a14.107 14.107 0 0 0 1.211-1.854c-.204-.385-.33-.656-.35-.7L16.678 18v-.668l1.215-2.32-1.215-2.318v-.668l1.215-2.319-1.215-2.32V6.72l.866-1.653c.019-.042.142-.31.345-.692a14.135 14.135 0 0 0-1.211-1.854v-.507a4.13 4.13 0 0 1 .754-.802c.118-.09.228-.164.338-.237a2.285 2.285 0 0 0-1.092-.317V.349a2.685 2.685 0 0 1 1.398.44 2.736 2.736 0 0 1 1.394-.44 2.755 2.755 0 0 1 1.402.417 2.444 2.444 0 0 1 2.754.016 2.446 2.446 0 0 1 2.78 0A2.68 2.68 0 0 1 27.794.35v.309a2.29 2.29 0 0 0-1.102.322 6.547 6.547 0 0 1 1.102 1.045v.49a13.987 13.987 0 0 0-1.212 1.86c.205.384.33.656.35.7l.862 1.646v.666l-1.216 2.32 1.216 2.32v-.002.667l-1.216 2.32 1.216 2.32v.667-.001l-.867 1.654c-.018.042-.142.31-.345.692a14.006 14.006 0 0 0 1.212 1.86zm-1.39-6.86l-1.215 2.321.966 1.844c.005.011.095.207.25.504.152-.294.24-.487.244-.496l.97-1.852zm-5.559-5.305l-1.215 2.32 1.215 2.32 1.216-2.32zm1.39 1.987l1.216-2.32-1.216-2.32-1.215 2.32zm-1.215 2.986l1.215 2.32 1.215-2.32-1.215-2.32zm2.605-.333l1.215-2.32-1.215-2.32-1.215 2.32zm.174.333l1.215 2.32 1.216-2.32-1.215-2.32zm1.216-2.986l1.215-2.32-1.215-2.32-1.216 2.32zm.866-6.959c.019-.042.143-.31.346-.692a14.006 14.006 0 0 0-1.212-1.86 13.95 13.95 0 0 0-1.204 1.845c.202.394.323.673.342.718l.861 1.643zm-2.25-.372c-.156.3-.247.497-.251.507l-.97 1.852 1.215 2.32 1.215-2.32-.966-1.844c-.005-.012-.092-.212-.243-.515zm-.175-.337a12.976 12.976 0 0 0-1.197-1.874 13.906 13.906 0 0 0-1.236 1.891c.205.385.33.656.35.7l.862 1.646.867-1.654c.019-.042.146-.318.354-.709zm-2.61.349c-.153.293-.241.486-.245.495l-.97 1.852 1.214 2.32 1.216-2.32-.966-1.844c-.005-.011-.095-.206-.25-.503zm-.178-.331a14.004 14.004 0 0 0-1.213-1.862 13.963 13.963 0 0 0-1.211 1.86c.204.385.33.657.35.7l.862 1.647.867-1.654c.018-.042.142-.31.345-.692zm-1.212 3.01l-1.216 2.32 1.215 2.32 1.216-2.32zm0 5.306l-1.216 2.32 1.216 2.32 1.215-2.32zm0 5.305l-.867 1.655c-.019.041-.143.31-.345.692a13.998 13.998 0 0 0 1.212 1.86 13.983 13.983 0 0 0 1.212-1.86 13.54 13.54 0 0 1-.35-.7zm1.39 2.015c.152-.294.24-.486.244-.495l.97-1.852-1.215-2.32-1.215 2.32.966 1.844c.005.011.095.206.25.503zm.177.331a14.012 14.012 0 0 0 1.212 1.861 13.938 13.938 0 0 0 1.212-1.86c-.204-.385-.33-.656-.35-.7l-.862-1.647-.867 1.655c-.018.041-.142.31-.345.691zm2.602-.33c.153-.294.241-.487.245-.496l.97-1.852-1.215-2.32-1.216 2.32.966 1.844c.005.011.095.207.25.504zm.178.33a14.008 14.008 0 0 0 1.212 1.862 13.985 13.985 0 0 0 1.211-1.861 13.48 13.48 0 0 1-.35-.7l-.862-1.646-.866 1.654c-.019.041-.143.31-.345.692zm2.601-10.304l-1.215 2.32 1.215 2.32 1.216-2.32zm0-5.333c-.152.294-.24.487-.245.496l-.97 1.852 1.215 2.32 1.216-2.32-.966-1.844c-.005-.011-.095-.207-.25-.504zM25.22 2.268a13.518 13.518 0 0 1 1.186 1.783 13.507 13.507 0 0 1 1.186-1.783 6.08 6.08 0 0 0-1.186-1.113 6.08 6.08 0 0 0-1.186 1.113zM23.914.98a6.547 6.547 0 0 1 1.102 1.045A6.545 6.545 0 0 1 26.118.98a2.045 2.045 0 0 0-2.204 0zm-1.447 1.256a12.6 12.6 0 0 1 1.17 1.794 13.472 13.472 0 0 1 1.175-1.762 6.08 6.08 0 0 0-1.186-1.113 6.022 6.022 0 0 0-1.159 1.08zm-.729-.797a7.16 7.16 0 0 1 .525.554A6.487 6.487 0 0 1 23.338.98a2.039 2.039 0 0 0-2.174-.016 5.378 5.378 0 0 1 .574.475m-.87-.3a6.038 6.038 0 0 0-1.208 1.129 13.513 13.513 0 0 1 1.186 1.784 13.43 13.43 0 0 1 1.21-1.814 5.752 5.752 0 0 0-1.188-1.099zm-2.51-.156a6.552 6.552 0 0 1 1.098 1.042 6.508 6.508 0 0 1 1.12-1.056 2.388 2.388 0 0 0-1.12-.311 2.346 2.346 0 0 0-1.097.325zm-.291 3.068a13.499 13.499 0 0 1 1.186-1.783 6.075 6.075 0 0 0-1.19-1.115 5.299 5.299 0 0 0-.444.306 3.915 3.915 0 0 0-.743.802 13.497 13.497 0 0 1 1.19 1.79zm0 5.323l1.216-2.32-.967-1.844c-.005-.011-.095-.207-.25-.504-.152.294-.24.487-.244.496l-.97 1.852zm0 5.305l1.215-2.32-1.215-2.32-1.215 2.32zm0 5.334c.152-.294.24-.487.245-.496l.97-1.852-1.215-2.32-1.216 2.32.966 1.844c.005.011.095.207.25.504zm1.186 2.438a13.517 13.517 0 0 1-1.186-1.783 13.457 13.457 0 0 1-1.199 1.8 3.265 3.265 0 0 0 1.111 1.159 5.915 5.915 0 0 0 1.274-1.176zm1.304 1.287a6.546 6.546 0 0 1-1.1-1.044 6.406 6.406 0 0 1-1.172 1.093 2.967 2.967 0 0 0 1.164.274 2.304 2.304 0 0 0 1.108-.323zm1.475-1.288a13.522 13.522 0 0 1-1.186-1.783 13.497 13.497 0 0 1-1.185 1.784 6.084 6.084 0 0 0 1.184 1.111 6.08 6.08 0 0 0 1.187-1.112zm1.306 1.289a6.542 6.542 0 0 1-1.102-1.045 6.545 6.545 0 0 1-1.102 1.045 2.046 2.046 0 0 0 2.204 0zm1.474-1.288a13.52 13.52 0 0 1-1.186-1.783 13.498 13.498 0 0 1-1.186 1.783 6.083 6.083 0 0 0 1.186 1.113 6.08 6.08 0 0 0 1.186-1.113zm1.306 1.288a6.547 6.547 0 0 1-1.102-1.045 6.545 6.545 0 0 1-1.102 1.045 2.045 2.045 0 0 0 2.204 0zm1.473-1.288a13.52 13.52 0 0 1-1.186-1.783 13.506 13.506 0 0 1-1.185 1.783 6.082 6.082 0 0 0 1.185 1.113 6.08 6.08 0 0 0 1.186-1.113zM5.559.349v.309h.001V.349h-.001zM5.559 24.061v.309h.001v-.309h-.001z"/><path class="b" d="M16.677 22.204v.49a6.546 6.546 0 0 1-1.102 1.045 2.29 2.29 0 0 0 1.102.322v.309a2.678 2.678 0 0 1-1.39-.433 2.68 2.68 0 0 1-1.39.433 2.678 2.678 0 0 1-1.39-.433 2.68 2.68 0 0 1-1.389.433 2.68 2.68 0 0 1-1.39-.433 2.68 2.68 0 0 1-1.39.433h-.052a3.227 3.227 0 0 1-1.422-.387 2.627 2.627 0 0 1-1.304.387v-.309a2.222 2.222 0 0 0 .995-.265 3.599 3.599 0 0 1-.995-1.06v-.538a14.107 14.107 0 0 0 1.211-1.854c-.205-.385-.33-.656-.35-.7L5.56 18v-.668l1.214-2.32-1.214-2.318v-.668l1.215-2.319-1.215-2.32V6.72l.866-1.653c.018-.042.142-.31.345-.692A14.135 14.135 0 0 0 5.56 2.521v-.507a4.13 4.13 0 0 1 .753-.802c.119-.09.23-.164.34-.237A2.285 2.285 0 0 0 5.56.658V.349a2.685 2.685 0 0 1 1.398.44 2.736 2.736 0 0 1 1.394-.44 2.755 2.755 0 0 1 1.402.417 2.663 2.663 0 0 1 1.364-.417 2.678 2.678 0 0 1 1.39.433 2.68 2.68 0 0 1 1.39-.433 2.678 2.678 0 0 1 1.389.433 2.68 2.68 0 0 1 1.39-.433v.309a2.29 2.29 0 0 0-1.102.322 6.547 6.547 0 0 1 1.102 1.045v.49a13.988 13.988 0 0 0-1.212 1.86c.204.385.33.656.35.7l.862 1.646v.666l-1.216 2.32 1.216 2.32v-.002.667l-1.216 2.32 1.216 2.32v.667-.001l-.867 1.654c-.019.042-.142.31-.345.692a14.007 14.007 0 0 0 1.212 1.86zm-1.39-6.86l-1.215 2.321.966 1.844c.004.011.094.207.249.504.153-.294.241-.487.245-.496l.97-1.852zM9.728 10.04l-1.215 2.32 1.215 2.32 1.216-2.32zm1.39 1.987l1.216-2.32-1.216-2.32-1.215 2.32zm-1.216 2.986l1.216 2.32 1.215-2.32-1.215-2.32zm2.606-.333l1.215-2.32-1.215-2.32-1.216 2.32zm.174.333l1.215 2.32 1.216-2.32-1.216-2.32zm1.215-2.986l1.216-2.32-1.215-2.32-1.216 2.32zm.867-6.959c.019-.042.143-.31.345-.692a14.006 14.006 0 0 0-1.212-1.86 13.95 13.95 0 0 0-1.203 1.845c.202.394.323.673.342.718l.861 1.643zm-2.25-.372c-.156.3-.247.497-.251.507l-.97 1.852 1.215 2.32 1.215-2.32-.966-1.844c-.005-.012-.092-.212-.243-.515zm-.175-.337a12.976 12.976 0 0 0-1.197-1.874 13.906 13.906 0 0 0-1.236 1.891c.204.385.33.656.35.7l.862 1.646.867-1.654c.019-.042.146-.318.354-.709zm-2.61.349c-.153.293-.242.486-.246.495l-.97 1.852 1.215 2.32 1.216-2.32-.966-1.844c-.005-.011-.095-.206-.25-.503zm-.178-.332a14.003 14.003 0 0 0-1.213-1.861 13.965 13.965 0 0 0-1.212 1.86c.205.385.33.657.35.7l.863 1.647.867-1.654c.018-.042.142-.31.345-.692zM8.339 7.386l-1.216 2.32 1.215 2.32 1.216-2.32zm0 5.306l-1.216 2.32 1.215 2.32 1.216-2.32zm0 5.305l-.867 1.655c-.019.041-.143.31-.346.692a13.998 13.998 0 0 0 1.212 1.86 13.983 13.983 0 0 0 1.213-1.86 13.53 13.53 0 0 1-.35-.7zm1.39 2.015c.152-.294.24-.486.244-.495l.97-1.852-1.215-2.32-1.215 2.32.966 1.844c.005.011.095.206.25.503zm.177.331a14.012 14.012 0 0 0 1.212 1.861 13.939 13.939 0 0 0 1.212-1.86c-.205-.385-.33-.656-.35-.7l-.862-1.647-.867 1.655c-.019.041-.142.31-.345.691zm2.602-.33c.152-.294.24-.487.245-.496l.97-1.852-1.215-2.32-1.216 2.32.966 1.844c.005.011.095.207.25.504zm.177.33a14.006 14.006 0 0 0 1.212 1.862 13.984 13.984 0 0 0 1.212-1.861 13.48 13.48 0 0 1-.35-.7l-.862-1.646-.866 1.654c-.019.041-.143.31-.346.692zm2.602-10.304l-1.215 2.32 1.215 2.32 1.215-2.32zm0-5.333c-.153.294-.241.487-.245.496l-.97 1.852 1.215 2.32 1.216-2.32-.966-1.844a12.4 12.4 0 0 0-.25-.504zm-1.186-2.438a13.52 13.52 0 0 1 1.186 1.783 13.506 13.506 0 0 1 1.186-1.783 6.08 6.08 0 0 0-1.186-1.113 6.08 6.08 0 0 0-1.186 1.113zM12.795.98a6.547 6.547 0 0 1 1.102 1.045A6.545 6.545 0 0 1 15 .98a2.29 2.29 0 0 0-1.102-.322 2.29 2.29 0 0 0-1.102.322zM11.35 2.236a12.601 12.601 0 0 1 1.17 1.794 13.47 13.47 0 0 1 1.174-1.762 6.08 6.08 0 0 0-1.185-1.113 6.022 6.022 0 0 0-1.159 1.08zm-.729-.797a7.162 7.162 0 0 1 .525.554A6.487 6.487 0 0 1 12.22.98a2.29 2.29 0 0 0-1.102-.322 2.273 2.273 0 0 0-1.072.306 5.378 5.378 0 0 1 .574.475m-.87-.3a6.037 6.037 0 0 0-1.208 1.129 13.515 13.515 0 0 1 1.186 1.784 13.43 13.43 0 0 1 1.21-1.814A5.752 5.752 0 0 0 9.75 1.139zM7.24.983a6.552 6.552 0 0 1 1.098 1.042A6.508 6.508 0 0 1 9.457.969 2.388 2.388 0 0 0 8.338.658 2.346 2.346 0 0 0 7.24.983zM6.95 4.05a13.498 13.498 0 0 1 1.185-1.783 6.075 6.075 0 0 0-1.189-1.115 5.3 5.3 0 0 0-.444.306 3.915 3.915 0 0 0-.743.802 13.498 13.498 0 0 1 1.19 1.79zm0 5.323l1.215-2.32-.966-1.844c-.005-.011-.095-.207-.25-.504-.152.294-.24.487-.244.496l-.97 1.852zm0 5.305l1.215-2.32-1.215-2.32-1.216 2.32zm0 5.334c.152-.294.24-.487.245-.496l.97-1.852-1.215-2.32-1.216 2.32.966 1.844c.005.011.095.207.25.504zm1.186 2.438a13.517 13.517 0 0 1-1.186-1.783 13.456 13.456 0 0 1-1.199 1.8 3.265 3.265 0 0 0 1.111 1.159 5.915 5.915 0 0 0 1.274-1.176zm1.304 1.287a6.546 6.546 0 0 1-1.1-1.044 6.406 6.406 0 0 1-1.172 1.093 2.967 2.967 0 0 0 1.164.274 2.304 2.304 0 0 0 1.108-.323zm1.475-1.288a13.522 13.522 0 0 1-1.186-1.783 13.498 13.498 0 0 1-1.186 1.784 6.085 6.085 0 0 0 1.185 1.111 6.08 6.08 0 0 0 1.187-1.112zm1.306 1.289a6.543 6.543 0 0 1-1.102-1.045 6.545 6.545 0 0 1-1.102 1.045 2.291 2.291 0 0 0 1.102.322 2.29 2.29 0 0 0 1.102-.322zm1.474-1.288a13.52 13.52 0 0 1-1.186-1.783 13.497 13.497 0 0 1-1.186 1.783 6.083 6.083 0 0 0 1.186 1.113 6.08 6.08 0 0 0 1.186-1.113zm1.305 1.288a6.547 6.547 0 0 1-1.102-1.045 6.545 6.545 0 0 1-1.102 1.045 2.29 2.29 0 0 0 1.102.322A2.29 2.29 0 0 0 15 23.74zm1.474-1.288a13.52 13.52 0 0 1-1.186-1.783 13.507 13.507 0 0 1-1.186 1.783 6.082 6.082 0 0 0 1.186 1.113 6.08 6.08 0 0 0 1.186-1.113z"/><path class="b" d="M5.56 22.204v.49h-.001a6.545 6.545 0 0 1-1.102 1.045 2.29 2.29 0 0 0 1.102.322v.309a2.678 2.678 0 0 1-1.39-.433 2.68 2.68 0 0 1-1.39.433 2.678 2.678 0 0 1-1.39-.433A2.68 2.68 0 0 1 0 24.37a2.68 2.68 0 0 1-1.39-.433 2.68 2.68 0 0 1-1.39.433h-.052a3.227 3.227 0 0 1-1.422-.387 2.627 2.627 0 0 1-1.305.387v-.309a2.222 2.222 0 0 0 .996-.265 3.599 3.599 0 0 1-.996-1.06v-.538a14.106 14.106 0 0 0 1.212-1.854c-.205-.385-.33-.656-.35-.7L-5.559 18v-.668l1.215-2.32-1.215-2.318v-.668l1.215-2.319-1.215-2.32V6.72l.867-1.653c.018-.042.142-.31.345-.692a14.134 14.134 0 0 0-1.212-1.854v-.507a4.13 4.13 0 0 1 .754-.802c.119-.09.23-.164.34-.237A2.285 2.285 0 0 0-5.56.658V.349a2.685 2.685 0 0 1 1.4.44 2.736 2.736 0 0 1 1.393-.44 2.755 2.755 0 0 1 1.402.417A2.663 2.663 0 0 1 0 .349a2.678 2.678 0 0 1 1.39.433A2.68 2.68 0 0 1 2.78.35a2.678 2.678 0 0 1 1.389.433A2.68 2.68 0 0 1 5.559.35v.309A2.29 2.29 0 0 0 4.457.98a6.546 6.546 0 0 1 1.102 1.045v.49a13.989 13.989 0 0 0-1.212 1.86c.204.384.33.656.35.7l.862 1.646v.666l-1.216 2.32 1.216 2.32v-.002.667l-1.216 2.32 1.216 2.32v.667-.001l-.867 1.654c-.019.041-.143.31-.345.692a14.007 14.007 0 0 0 1.212 1.86zm-1.391-6.86l-1.216 2.321.966 1.844c.005.011.095.207.25.504.153-.294.241-.487.245-.496l.97-1.852zM-1.39 10.04l-1.215 2.32 1.215 2.32 1.216-2.32zM0 12.026l1.215-2.32L0 7.386l-1.216 2.32zm-1.216 2.986L0 17.332l1.215-2.32L0 12.692zm2.606-.333l1.215-2.32-1.215-2.32-1.216 2.32zm.174.333l1.215 2.32 1.216-2.32-1.216-2.32zm1.215-2.986l1.216-2.32-1.216-2.32-1.215 2.32zm.867-6.959c.019-.042.143-.31.345-.692a14.006 14.006 0 0 0-1.212-1.86A13.95 13.95 0 0 0 1.576 4.36c.202.394.323.673.342.718l.861 1.643zm-2.25-.372c-.157.3-.247.497-.251.507l-.97 1.852 1.215 2.32 1.215-2.32L1.64 5.21c-.005-.012-.092-.212-.243-.515zm-.175-.337A12.977 12.977 0 0 0 .024 2.484a13.907 13.907 0 0 0-1.236 1.891c.204.385.33.656.35.7L0 6.72l.867-1.654c.019-.042.146-.318.354-.709zm-2.61.349c-.153.293-.242.486-.246.495l-.97 1.852 1.215 2.32 1.216-2.32-.967-1.844c-.004-.011-.094-.206-.249-.503zm-.179-.331A14.004 14.004 0 0 0-2.78 2.514a13.963 13.963 0 0 0-1.212 1.86c.205.385.33.657.35.7l.863 1.647.866-1.654c.019-.042.143-.31.345-.692zm-1.211 3.01l-1.216 2.32 1.215 2.32 1.216-2.32zm0 5.306l-1.216 2.32 1.215 2.32 1.216-2.32zm0 5.305l-.867 1.655c-.019.041-.143.31-.346.692a13.998 13.998 0 0 0 1.212 1.86 13.982 13.982 0 0 0 1.212-1.86c-.204-.385-.33-.656-.349-.7zm1.39 2.015c.152-.294.24-.486.244-.495l.97-1.852-1.215-2.32-1.215 2.32.966 1.844c.005.011.095.206.25.503zm.177.331A14.012 14.012 0 0 0 0 22.204a13.938 13.938 0 0 0 1.212-1.86c-.205-.385-.33-.656-.35-.7L0 17.997l-.867 1.655c-.019.041-.143.31-.345.691zm2.602-.33c.152-.294.24-.487.245-.496l.97-1.852-1.215-2.32-1.216 2.32.966 1.844c.005.011.095.207.25.504zm.177.33a14.007 14.007 0 0 0 1.212 1.862 13.986 13.986 0 0 0 1.212-1.861 13.48 13.48 0 0 1-.35-.7l-.862-1.646-.866 1.654a13.2 13.2 0 0 1-.346.692zM4.17 10.04l-1.215 2.32 1.215 2.32 1.215-2.32zm0-5.333c-.153.294-.241.487-.245.496l-.97 1.852 1.215 2.32 1.216-2.32-.966-1.844c-.005-.011-.095-.207-.25-.504zM2.983 2.268A13.52 13.52 0 0 1 4.17 4.051a13.507 13.507 0 0 1 1.186-1.783 6.08 6.08 0 0 0-1.186-1.113 6.08 6.08 0 0 0-1.186 1.113zM1.677.98A6.547 6.547 0 0 1 2.78 2.025 6.545 6.545 0 0 1 3.881.98 2.29 2.29 0 0 0 2.78.658 2.29 2.29 0 0 0 1.677.98zM.231 2.236a12.6 12.6 0 0 1 1.17 1.794 13.471 13.471 0 0 1 1.174-1.762A6.08 6.08 0 0 0 1.39 1.155 6.021 6.021 0 0 0 .23 2.235zm-.729-.797a7.16 7.16 0 0 1 .525.554A6.487 6.487 0 0 1 1.102.98 2.29 2.29 0 0 0 0 .658a2.273 2.273 0 0 0-1.072.306 5.377 5.377 0 0 1 .574.475m-.87-.3a6.037 6.037 0 0 0-1.208 1.129A13.515 13.515 0 0 1-1.39 4.052 13.43 13.43 0 0 1-.18 2.238a5.752 5.752 0 0 0-1.188-1.099zm-2.51-.156A6.552 6.552 0 0 1-2.78 2.025 6.508 6.508 0 0 1-1.66.969 2.388 2.388 0 0 0-2.78.658a2.346 2.346 0 0 0-1.098.325zm-.291 3.068a13.497 13.497 0 0 1 1.185-1.783 6.075 6.075 0 0 0-1.189-1.115 5.302 5.302 0 0 0-.444.306 3.916 3.916 0 0 0-.744.802 13.497 13.497 0 0 1 1.192 1.79zm0 5.323l1.215-2.32-.966-1.844c-.005-.011-.095-.207-.25-.504-.152.294-.24.487-.244.496l-.97 1.852zm0 5.305l1.215-2.32-1.215-2.32-1.216 2.32zm0 5.334c.152-.294.24-.487.245-.496l.97-1.852-1.215-2.32-1.216 2.32.966 1.844c.005.011.095.207.25.504zm1.185 2.438a13.516 13.516 0 0 1-1.185-1.783 13.456 13.456 0 0 1-1.199 1.8 3.265 3.265 0 0 0 1.111 1.159 5.915 5.915 0 0 0 1.273-1.176zm1.305 1.287a6.546 6.546 0 0 1-1.1-1.044 6.406 6.406 0 0 1-1.172 1.093 2.967 2.967 0 0 0 1.164.274 2.304 2.304 0 0 0 1.108-.323zm1.475-1.288a13.522 13.522 0 0 1-1.186-1.783 13.499 13.499 0 0 1-1.186 1.784 6.084 6.084 0 0 0 1.185 1.111A6.08 6.08 0 0 0-.204 22.45zm1.306 1.289A6.543 6.543 0 0 1 0 22.694a6.545 6.545 0 0 1-1.102 1.045A2.291 2.291 0 0 0 0 24.06a2.29 2.29 0 0 0 1.102-.322zm1.473-1.288a13.52 13.52 0 0 1-1.185-1.783A13.498 13.498 0 0 1 .204 22.45a6.083 6.083 0 0 0 1.186 1.113 6.08 6.08 0 0 0 1.185-1.113zm1.306 1.288a6.547 6.547 0 0 1-1.102-1.045 6.546 6.546 0 0 1-1.102 1.045 2.29 2.29 0 0 0 1.102.322 2.29 2.29 0 0 0 1.102-.322zm1.474-1.288a13.519 13.519 0 0 1-1.186-1.783 13.508 13.508 0 0 1-1.186 1.783 6.082 6.082 0 0 0 1.186 1.113 6.08 6.08 0 0 0 1.186-1.113z"/></pattern></defs><path d="M236 101.977c0 58.715-113.588 165.02-112.652 106.312C124.058 163.701 0 149.283 0 93.283c0-58.715 51-35 105-82 45.115-39.267 131 31.98 131 90.694z" opacity=".7" fill="url(#a)"/></svg>