<?xml version="1.0" encoding="utf-8"?>
<!-- Generator: Adobe Illustrator 22.1.0, SVG Export Plug-In . SVG Version: 6.00 Build 0)  -->
<svg version="1.1" id="Layer_1" xmlns="http://www.w3.org/2000/svg" xmlns:xlink="http://www.w3.org/1999/xlink" x="0px" y="0px"
	 viewBox="0 0 926 1006" style="enable-background:new 0 0 926 1006;" xml:space="preserve">
<style type="text/css">
	.st0{fill:none;}
	.st1{fill:#CDF2FC;}
	.st2{fill:#FCE0C0;}
	.st3{fill:#E8E8E8;}
	.st4{clip-path:url(#SVGID_2_);}
	.st5{opacity:0.6;fill:url(#SVGID_3_);enable-background:new    ;}
	.st6{opacity:0.6;fill:url(#SVGID_4_);enable-background:new    ;}
	.st7{opacity:0.6;fill:url(#SVGID_5_);enable-background:new    ;}
</style>
<pattern  y="1006" width="22.2" height="24.7" patternUnits="userSpaceOnUse" id="c" viewBox="5.6 -24.7 22.2 24.7" style="overflow:visible;">
	<g>
		<rect x="5.6" y="-24.7" class="st0" width="22.2" height="24.7"/>
		<rect x="5.6" y="-24.7" class="st0" width="22.2" height="24.7"/>
		<rect x="5.6" y="-24.7" class="st0" width="22.2" height="24.7"/>
		<rect x="5.6" y="-24.7" class="st0" width="22.2" height="24.7"/>
		<rect x="5.6" y="-24.7" class="st0" width="22.2" height="24.7"/>
		<rect x="5.6" y="-24.7" class="st0" width="22.2" height="24.7"/>
		<polygon class="st1" points="22.2,-0.3 22.2,-0.6 22.2,-0.6 		"/>
		<polygon class="st1" points="22.2,-24 22.2,-24.4 22.2,-24.4 		"/>
		<path class="st1" d="M33.4-22.2v-0.5c-0.3-0.4-0.7-0.7-1.1-1c0.3-0.2,0.7-0.3,1.1-0.3v-0.3c-0.5,0-1,0.2-1.4,0.4
			c-0.4-0.3-0.9-0.4-1.4-0.4c-0.5,0-1,0.2-1.4,0.4c-0.4-0.3-0.9-0.4-1.4-0.4c-0.5,0-1,0.2-1.4,0.4c-0.4-0.2-0.9-0.4-1.4-0.4
			c-0.5,0-1,0.1-1.4,0.3c-0.4-0.2-0.8-0.4-1.3-0.4v0.3c0.4,0,0.7,0.1,1,0.3c-0.4,0.3-0.7,0.7-1,1.1v0.5c0.5,0.6,0.9,1.2,1.2,1.9
			c-0.2,0.4-0.3,0.7-0.4,0.7L22.2-18v0.7l1.2,2.3l-1.2,2.3v0.7l1.2,2.3l-1.2,2.3v0.7l0.9,1.6c0.1,0.2,0.2,0.5,0.3,0.7
			c-0.4,0.6-0.8,1.3-1.2,1.9V-2c0.2,0.3,0.5,0.6,0.8,0.8L23.3-1c-0.3,0.2-0.7,0.3-1.1,0.3v0.3c0.5,0,1-0.2,1.4-0.4
			C24-0.5,24.5-0.4,25-0.4c0.5,0,1-0.2,1.4-0.4c0.8,0.6,2,0.6,2.8,0c0.8,0.6,2,0.6,2.8,0c0.4,0.3,0.9,0.4,1.4,0.4v-0.3
			c-0.4,0-0.8-0.1-1.1-0.3c0.4-0.3,0.8-0.6,1.1-1v-0.5c-0.5-0.6-0.9-1.2-1.2-1.9c0.1-0.2,0.2-0.5,0.3-0.7l0.9-1.7v-0.7l-1.3-2.2
			l1.2-2.3v-0.7L32.1-15l1.2-2.3V-18l-0.9-1.7c-0.1-0.3-0.2-0.5-0.4-0.7C32.5-21,32.9-21.6,33.4-22.2z M32-15.3l-1.2-2.3l1-1.8
			c0-0.2,0.1-0.4,0.2-0.6c0.1,0.1,0.2,0.3,0.2,0.5l1,1.9L32-15.3z M26.4-10l-1.2-2.3l1.2-2.3l1.2,2.3L26.4-10z M27.8-12L29-9.7
			l-1.2,2.3l-1.2-2.3L27.8-12z M26.6-15l1.2-2.3L29-15l-1.2,2.3L26.6-15z M29.2-14.6l1.2,2.3L29.2-10L28-12.3L29.2-14.6z M29.3-15
			l1.2-2.3l1.2,2.3l-1.1,2.3L29.3-15z M30.6-12l1.2,2.3l-1.2,2.3l-1.2-2.3L30.6-12z M31.4-5c0.1,0.2,0.2,0.5,0.3,0.7l-1.2,1.8
			c-0.5-0.6-0.9-1.2-1.2-1.9c0.1-0.2,0.2-0.5,0.3-0.7l0.9-1.6L31.4-5z M29.2-4.6L29-5.1L28-7l1.2-2.3L30.4-7l-1,1.8
			C29.3-5,29.3-4.8,29.2-4.6z M29-4.3c-0.3,0.7-0.7,1.3-1.2,1.9c-0.5-0.6-0.9-1.3-1.2-2c0.1-0.2,0.2-0.5,0.3-0.7l0.9-1.6l0.9,1.6
			L29-4.3z M26.4-4.6c-0.1-0.1-0.2-0.3-0.2-0.5l-1-1.9l1.2-2.3L27.6-7l-1,1.8C26.5-5,26.5-4.8,26.4-4.6z M26.2-4.3
			C25.8-3.6,25.4-3,25-2.4c-0.5-0.6-0.9-1.2-1.2-1.9C24-4.7,24.1-5,24.2-5l0.9-1.6L26-5C26-4.8,26.1-4.5,26.2-4.3z M25-7.3l-1.2-2.4
			L25-12l1.2,2.3L25-7.3z M25-12.6L23.8-15l1.2-2.3l1.2,2.3L25-12.6z M25-17.9l-0.9-1.7c-0.1-0.2-0.2-0.5-0.3-0.7
			c0.4-0.7,0.8-1.3,1.2-1.9c0.5,0.6,0.9,1.2,1.2,1.9c-0.2,0.4-0.3,0.7-0.4,0.7L25-17.9z M26.4-19.9c0.1,0.2,0.1,0.3,0.2,0.5l1,1.9
			l-1.2,2.3l-1.2-2.3l1-1.8C26.2-19.5,26.3-19.7,26.4-19.9z M26.6-20.2c0.4-0.7,0.8-1.3,1.2-1.9c0.5,0.6,0.9,1.2,1.2,1.9
			c-0.2,0.4-0.3,0.7-0.4,0.7L27.8-18l-0.9-1.7C26.8-19.9,26.7-20,26.6-20.2z M29.2-20c0.1,0.2,0.1,0.3,0.2,0.5l1,1.9l-1.2,2.3
			L28-17.6l1-1.8C29.1-19.6,29.1-19.8,29.2-20z M29.4-20.3c0.3-0.7,0.7-1.3,1.2-1.9c0.5,0.6,0.9,1.2,1.2,1.9
			c-0.2,0.4-0.3,0.7-0.4,0.7L30.5-18l-0.9-1.7C29.6-19.9,29.5-20.1,29.4-20.3z M32-10l-1.2-2.3l1.2-2.3l1.2,2.3L32-10z M32-4.7
			c-0.1-0.2-0.2-0.3-0.2-0.5l-1-1.9L32-9.4l1.2,2.3l-1,1.8C32.1-5,32.1-4.8,32-4.7z M30.8-2.3L32-4.1c0.3,0.6,0.7,1.2,1.2,1.8
			c-0.3,0.4-0.7,0.8-1.2,1.1C31.5-1.5,31.1-1.8,30.8-2.3z M29.5-1c0.4-0.3,0.8-0.6,1.1-1c0.3,0.4,0.7,0.7,1.1,1
			C31.1-0.5,30.1-0.5,29.5-1z M28-2.2c0.4-0.6,0.8-1.1,1.2-1.8c0.3,0.6,0.7,1.2,1.2,1.8c-0.3,0.4-0.7,0.8-1.2,1.1
			C28.8-1.4,28.4-1.8,28-2.2z M27.3-1.4l0.5-0.5c0.3,0.4,0.7,0.7,1.1,1c-0.3,0.2-0.7,0.3-1.1,0.3c-0.4,0-0.8-0.1-1.1-0.3
			C26.9-1.1,27.1-1.3,27.3-1.4 M26.4-1.1c-0.5-0.3-0.9-0.7-1.2-1.1L26.4-4l1.2,1.8C27.3-1.8,26.9-1.4,26.4-1.1z M23.9-1
			c0.4-0.3,0.8-0.6,1.1-1c0.3,0.4,0.7,0.7,1.1,1c-0.3,0.2-0.7,0.3-1.1,0.3C24.6-0.7,24.2-0.8,23.9-1z M23.6-4.1
			c0.3,0.6,0.7,1.2,1.2,1.8c-0.3,0.4-0.7,0.8-1.2,1.1l-0.4-0.3c-0.3-0.2-0.5-0.5-0.7-0.8C22.9-2.8,23.3-3.5,23.6-4.1z M23.6-9.4
			l1.2,2.3l-1,1.8l-0.2,0.6c-0.1-0.1-0.2-0.3-0.2-0.5l-1-1.9L23.6-9.4z M23.6-14.7l1.2,2.3L23.6-10l-1.2-2.3L23.6-14.7z M23.6-20
			c0.1,0.2,0.1,0.3,0.2,0.5l1,1.9l-1.2,2.3l-1.2-2.4l1-1.8C23.5-19.7,23.6-19.8,23.6-20z M24.8-22.4c-0.4,0.5-0.8,1.1-1.2,1.7
			l-1.2-1.8c0.3-0.4,0.7-0.8,1.1-1.1C24-23.3,24.5-22.9,24.8-22.4z M26.1-23.7c-0.4,0.3-0.8,0.6-1.1,1c-0.3-0.4-0.7-0.8-1.2-1.1
			c0.4-0.2,0.8-0.3,1.2-0.3C25.4-24.1,25.8-23.9,26.1-23.7z M27.6-22.4l-1.2,1.8c-0.4-0.6-0.8-1.2-1.2-1.8c0.3-0.4,0.7-0.8,1.2-1.1
			C26.8-23.2,27.3-22.8,27.6-22.4z M28.9-23.7c-0.4,0.3-0.8,0.6-1.1,1c-0.3-0.4-0.7-0.7-1.1-1C27.4-24.1,28.2-24.1,28.9-23.7z
			 M30.3-22.4c-0.4,0.6-0.8,1.1-1.2,1.8c-0.4-0.6-0.8-1.2-1.2-1.8c0.3-0.4,0.7-0.8,1.2-1.1C29.6-23.2,30-22.9,30.3-22.4z M31.7-23.7
			c-0.4,0.3-0.8,0.6-1.1,1c-0.3-0.4-0.7-0.7-1.1-1C30.2-24.1,31-24.1,31.7-23.7z M33.1-22.4l-1.2,1.8c-0.4-0.6-0.8-1.2-1.2-1.8
			c0.3-0.4,0.7-0.8,1.2-1.1C32.4-23.2,32.8-22.8,33.1-22.4z"/>
		<polygon class="st1" points="11.1,-0.3 11.1,-0.6 11.1,-0.6 		"/>
		<polygon class="st1" points="11.1,-24 11.1,-24.4 11.1,-24.4 		"/>
		<path class="st1" d="M22.2-22.2v-0.5c-0.3-0.4-0.7-0.7-1.1-1c0.3-0.2,0.7-0.3,1.1-0.3v-0.3c-0.5,0-1,0.2-1.4,0.4
			c-0.4-0.3-0.9-0.4-1.4-0.4c-0.5,0-1,0.2-1.4,0.4c-0.4-0.3-0.9-0.4-1.4-0.4c-0.5,0-1,0.2-1.4,0.4c-0.4-0.3-0.9-0.4-1.4-0.4h-0.1
			c-0.5,0-1,0.1-1.4,0.3c-0.4-0.2-0.8-0.4-1.3-0.4v0.3c0.4,0,0.7,0.1,1,0.3c-0.4,0.3-0.7,0.7-1,1.1v0.5c0.5,0.6,0.9,1.2,1.2,1.8
			c-0.1,0.5-0.2,0.7-0.2,0.8L11.1-18v0.7l1.2,2.3l-1.2,2.3v0.7l1.2,2.3l-1.2,2.3v0.7L12-5.1c0.1,0.2,0.2,0.5,0.3,0.7
			c-0.4,0.6-0.8,1.3-1.2,1.9V-2c0.2,0.3,0.5,0.6,0.8,0.8L12.2-1c-0.3,0.2-0.7,0.3-1.1,0.3v0.3c0.5,0,1-0.2,1.4-0.4
			c0.4,0.3,0.9,0.4,1.4,0.4c0.5,0,1-0.1,1.4-0.4c0.4,0.3,0.9,0.4,1.4,0.4c0.5,0,1-0.2,1.4-0.4c0.8,0.6,2,0.6,2.8,0
			c0.4,0.3,0.9,0.4,1.4,0.4v-0.3c-0.4,0-0.8-0.1-1.1-0.3c0.4-0.3,0.8-0.6,1.1-1v-0.5c-0.5-0.6-0.9-1.2-1.2-1.9
			c0.2-0.4,0.3-0.7,0.4-0.7l0.9-1.7v-0.7L21-9.7l1.2-2.3v-0.7L21-15l1.2-2.3V-18l-0.9-1.7c-0.1-0.3-0.2-0.5-0.4-0.7
			C21.4-21,21.8-21.6,22.2-22.2z M20.9-15.3l-1.2-2.3l1-1.8c0.1-0.2,0.2-0.3,0.2-0.5l0.2,0.4l1,1.9L20.9-15.3z M15.3-10l-1.2-2.4
			l1.2-2.4l1.2,2.3L15.3-10z M16.7-12l1.2,2.3l-1.2,2.3l-1.2-2.3L16.7-12z M15.5-15l1.2-2.3l1.2,2.3l-1.2,2.3L15.5-15z M18.1-14.6
			l1.2,2.3L18.1-10l-1.2-2.3L18.1-14.6z M18.2-15l1.2-2.3l1.2,2.3l-1.1,2.3L18.2-15z M19.5-12l1.2,2.3l-1.2,2.3l-1.3-2.3L19.5-12z
			 M20.3-5c0.1,0.3,0.2,0.5,0.4,0.7l-1.2,1.8c-0.5-0.6-0.9-1.2-1.2-1.9c0.2-0.4,0.3-0.7,0.4-0.7l0.9-1.6L20.3-5z M18.1-4.6
			C18-4.8,18-4.9,17.9-5.1l-1-1.9l1.2-2.3L19.3-7l-1,1.8C18.2-5,18.1-4.8,18.1-4.6z M17.9-4.3c-0.3,0.7-0.7,1.3-1.2,1.9
			c-0.5-0.6-0.9-1.3-1.2-2l0.4-0.7l0.9-1.6l0.9,1.6C17.6-4.8,17.8-4.6,17.9-4.3z M15.3-4.6L15-5.1L14-7l1.2-2.4l1.2,2.3l-0.9,1.8
			C15.6-5.2,15.4-5,15.3-4.6z M15.1-4.3l-1.2,1.8c-0.5-0.6-0.9-1.2-1.2-1.9L13-5.1l0.9-1.6l0.9,1.6C14.9-4.8,15-4.6,15.1-4.3z
			 M13.9-7.3l-1.2-2.4l1.2-2.3l1.2,2.3L13.9-7.3z M13.9-12.6L12.7-15l1.2-2.3l1.2,2.3L13.9-12.6z M13.9-17.9L13-19.5
			c-0.1-0.2-0.2-0.5-0.3-0.7c0.3-0.7,0.7-1.3,1.2-1.9c0.5,0.6,0.9,1.2,1.2,1.9c-0.2,0.4-0.3,0.7-0.4,0.7L13.9-17.9z M15.3-19.9
			c0.1,0.2,0.1,0.3,0.2,0.5l1,1.9l-1.2,2.2l-1.2-2.3l1-1.8C15.1-19.6,15.2-19.8,15.3-19.9z M15.5-20.2c0.3-0.7,0.7-1.3,1.2-1.9
			c0.5,0.6,0.9,1.2,1.2,1.9c-0.1,0.2-0.2,0.5-0.3,0.7L16.7-18l-0.9-1.7C15.7-19.9,15.6-20,15.5-20.2z M18.1-19.9
			c0.1,0.1,0.2,0.3,0.2,0.5l1,1.9l-1.2,2.3l-1.2-2.3l1-1.8C17.9-19.5,18-19.7,18.1-19.9z M18.2-20.2c0.3-0.7,0.7-1.3,1.2-1.9
			c0.5,0.6,0.9,1.2,1.2,1.9c-0.2,0.4-0.3,0.7-0.4,0.7l-0.9,1.6l-0.9-1.6C18.5-19.9,18.4-20.1,18.2-20.2z M20.9-10l-1.2-2.3l1.2-2.3
			l1.2,2.3L20.9-10z M20.9-4.7c-0.1-0.1-0.2-0.3-0.2-0.5l-1-1.9l1.2-2.3l1.2,2.3l-1,1.8C21-5.1,21-4.9,20.9-4.7z M19.7-2.3l1.2-1.8
			c0.3,0.6,0.7,1.2,1.2,1.8c-0.3,0.4-0.7,0.8-1.2,1.1C20.4-1.5,20-1.8,19.7-2.3z M18.4-1c0.4-0.3,0.8-0.6,1.1-1
			c0.3,0.4,0.7,0.7,1.1,1C19.9-0.6,19.1-0.6,18.4-1z M16.9-2.2c0.4-0.6,0.8-1.1,1.2-1.8c0.3,0.6,0.7,1.2,1.2,1.8
			c-0.3,0.4-0.7,0.8-1.2,1.1C17.6-1.4,17.2-1.8,16.9-2.2z M16.2-1.4l0.5-0.5c0.3,0.4,0.7,0.7,1.1,1c-0.7,0.4-1.5,0.4-2.2,0
			C15.8-1.1,16-1.3,16.2-1.4 M15.3-1.2c-0.5-0.3-0.9-0.7-1.2-1.1l1.2-1.8l1.2,1.8C16.2-1.8,15.8-1.4,15.3-1.2z M12.8-1
			c0.4-0.3,0.8-0.6,1.1-1c0.3,0.4,0.7,0.7,1.1,1C14.3-0.6,13.5-0.6,12.8-1z M12.6-4c0.3,0.6,0.7,1.2,1.1,1.8
			c-0.3,0.4-0.7,0.8-1.1,1.1c-0.2-0.1-0.3-0.2-0.4-0.3c-0.3-0.2-0.5-0.5-0.7-0.8C11.8-2.8,12.2-3.4,12.6-4z M12.6-9.3L13.8-7l-1,1.8
			l-0.2,0.5l-0.3-0.5l-1-1.9L12.6-9.3z M12.6-14.7l1.2,2.3L12.6-10l-1.3-2.4L12.6-14.7z M12.6-20c0.1,0.1,0.2,0.3,0.2,0.5l1,1.9
			l-1.2,2.3l-1.3-2.3l1-1.8C12.4-19.6,12.5-19.8,12.6-20z M13.7-22.4l-1.2,1.8l-1.2-1.8c0.3-0.5,0.7-0.9,1.1-1.2
			C12.9-23.3,13.3-22.9,13.7-22.4z M15.1-23.7c-0.4,0.3-0.8,0.6-1.1,1c-0.3-0.4-0.7-0.8-1.2-1.1c0.4-0.2,0.8-0.3,1.2-0.3
			C14.4-24,14.7-23.9,15.1-23.7z M16.6-22.4c-0.5,0.6-0.9,1.2-1.2,1.8c-0.4-0.6-0.8-1.2-1.2-1.8c0.3-0.4,0.7-0.8,1.2-1.1
			C15.8-23.2,16.1-22.8,16.6-22.4z M17.8-23.7c-0.4,0.3-0.8,0.6-1.1,1c-0.3-0.4-0.7-0.7-1.1-1C16.3-24.1,17.1-24.1,17.8-23.7z
			 M19.3-22.4l-1.2,1.8c-0.4-0.6-0.8-1.2-1.2-1.8c0.3-0.4,0.7-0.8,1.2-1.1C18.5-23.2,18.9-22.8,19.3-22.4z M20.6-23.7
			c-0.4,0.3-0.8,0.6-1.1,1c-0.3-0.4-0.7-0.7-1.1-1C19.1-24.1,19.9-24.1,20.6-23.7z M22-22.4l-1.2,1.8c-0.4-0.6-0.8-1.2-1.2-1.8
			c0.3-0.4,0.7-0.8,1.2-1.1C21.3-23.2,21.7-22.8,22-22.4z"/>
		<path class="st1" d="M11.1-22.2v-0.5c-0.3-0.4-0.7-0.7-1.1-1c0.3-0.2,0.7-0.3,1.1-0.3v-0.3c-0.5,0-1,0.2-1.4,0.4
			c-0.4-0.2-0.9-0.4-1.4-0.4c-0.5,0-1,0.2-1.4,0.4c-0.4-0.3-0.8-0.4-1.3-0.5c-0.5,0-1,0.2-1.4,0.4c-0.4-0.2-0.9-0.3-1.4-0.4
			c-0.5,0-1,0.1-1.4,0.4C1-24.2,0.5-24.4,0-24.4v0.3c0.4,0,0.7,0.1,1,0.3c-0.4,0.3-0.7,0.7-1,1.1v0.5c0.5,0.6,0.9,1.2,1.2,1.8
			c-0.1,0.3-0.2,0.5-0.3,0.8L0-18v0.7L1.2-15L0-12.7v0.7l1.2,2.3L0-7.4v0.7l0.9,1.6C1-4.9,1.1-4.6,1.2-4.4C0.9-3.7,0.5-3.1,0-2.5V-2
			c0.2,0.3,0.5,0.6,0.8,0.8L1.1-1C0.8-0.8,0.4-0.7,0-0.7v0.3c0.5,0,1-0.2,1.4-0.4c0.4,0.3,0.9,0.4,1.4,0.4c0.5,0,1-0.1,1.4-0.4
			c0.4,0.2,0.9,0.4,1.4,0.4c0.5,0,1-0.2,1.4-0.4c0.4,0.3,0.9,0.4,1.4,0.4c0.5,0,1-0.2,1.4-0.4c0.4,0.3,0.9,0.4,1.4,0.4v-0.3
			c-0.4,0-0.8-0.1-1.1-0.3c0.4-0.3,0.8-0.6,1.1-1v-0.5c-0.5-0.6-0.9-1.2-1.2-1.9l0.4-0.7l0.9-1.7v-0.7L9.9-9.7l1.2-2.3v-0.7L9.9-15
			l1.2-2.3V-18l-0.9-1.6c-0.1-0.2-0.2-0.5-0.3-0.7C10.3-21,10.7-21.6,11.1-22.2z M9.7-15.3l-1.1-2.3l1-1.8c0-0.2,0.1-0.4,0.2-0.6
			c0.1,0.2,0.2,0.3,0.3,0.5l1,1.9L9.7-15.3z M4.2-10L3-12.3l1.2-2.3l1.2,2.3L4.2-10z M5.6-12l1.2,2.3L5.6-7.4L4.3-9.7L5.6-12z
			 M4.3-15l1.2-2.3L6.7-15l-1.1,2.3L4.3-15z M7-14.6l1.2,2.3L7-10l-1.2-2.4L7-14.6z M7.1-15l1.2-2.3L9.5-15l-1.2,2.3L7.1-15z
			 M8.3-12l1.3,2.3L8.4-7.4L7.1-9.7L8.3-12z M9.2-5l0.3,0.6C9.1-3.8,8.7-3.1,8.3-2.5C7.8-3.1,7.4-3.7,7.1-4.4
			c0.1-0.2,0.2-0.5,0.3-0.7l0.9-1.6L9.2-5z M7-4.7C6.8-5,6.8-5.2,6.7-5.2l-1-1.9L7-9.4l1.2,2.3l-1,1.8C7.1-5,7-4.9,7-4.7z M6.8-4.4
			C6.4-3.7,6-3.1,5.6-2.5C5.1-3.1,4.7-3.7,4.4-4.4c0.1-0.2,0.2-0.5,0.3-0.7l0.9-1.6l0.9,1.6C6.5-4.8,6.6-4.6,6.8-4.4z M4.2-4.7
			C4.1-4.8,4-5,4-5.2L3-7.1l1.2-2.3l1.2,2.3l-1,1.8C4.3-5.1,4.3-4.9,4.2-4.7z M4-4.4C3.7-3.7,3.3-3.1,2.8-2.5
			C2.3-3.1,1.9-3.7,1.6-4.4c0.1-0.2,0.2-0.5,0.3-0.7l0.9-1.6l0.9,1.6C3.7-4.8,3.9-4.6,4-4.4z M2.8-7.4L1.6-9.7L2.8-12L4-9.7L2.8-7.4
			z M2.8-12.7L1.6-15l1.2-2.3L4-15L2.8-12.7z M2.8-18l-0.9-1.6c-0.1-0.2-0.2-0.5-0.3-0.7c0.3-0.7,0.7-1.3,1.2-1.9
			C3.2-21.6,3.6-21,4-20.3c-0.1,0.2-0.2,0.5-0.4,0.7L2.8-18z M4.2-20l0.2,0.5l1,1.9l-1.2,2.3L3-17.6l1-1.8C4-19.6,4.1-19.8,4.2-20z
			 M4.4-20.3c0.3-0.7,0.7-1.3,1.2-1.9C6-21.6,6.4-21,6.8-20.3c-0.1,0.2-0.3,0.5-0.4,0.7L5.6-18l-0.9-1.6C4.6-19.8,4.5-20.1,4.4-20.3
			z M7-20c0.1,0.2,0.1,0.3,0.2,0.5l1,1.9L7-15.3l-1.3-2.3l1-1.8C6.8-19.6,6.9-19.8,7-20z M7.1-20.3c0.3-0.7,0.7-1.3,1.2-1.9
			c0.5,0.6,0.9,1.2,1.2,1.9c-0.1,0.2-0.2,0.5-0.3,0.7L8.3-18l-0.8-1.6C7.4-19.9,7.3-20.1,7.1-20.3z M9.7-10l-1.2-2.4l1.3-2.3
			l1.2,2.3L9.7-10z M9.7-4.7L9.5-5.2L8.6-7.1l1.2-2.3L11-7.1l-1,1.8C9.9-5.1,9.8-4.9,9.7-4.7z M8.6-2.2L9.8-4
			c0.3,0.6,0.7,1.2,1.2,1.8c-0.3,0.4-0.7,0.8-1.2,1.1C9.4-1.4,9-1.8,8.6-2.2z M7.2-1C7.6-1.3,8-1.6,8.3-2C8.6-1.6,9-1.3,9.4-1
			C9.1-0.8,8.7-0.7,8.3-0.7C7.9-0.7,7.5-0.8,7.2-1z M5.8-2.2C6.2-2.8,6.6-3.3,7-4c0.3,0.6,0.7,1.2,1.2,1.7C7.9-1.9,7.5-1.5,7-1.2
			C6.5-1.4,6.1-1.8,5.8-2.2z M5.1-1.4C5.3-1.6,5.4-1.8,5.6-2c0.3,0.4,0.7,0.7,1.1,1C6.4-0.8,6-0.7,5.6-0.6c-0.4,0-0.8-0.1-1.1-0.3
			C4.7-1.1,4.9-1.3,5.1-1.4 M4.2-1.2C3.7-1.5,3.3-1.9,3-2.3l1.2-1.8l1.2,1.8C5.1-1.9,4.7-1.5,4.2-1.2z M1.7-1c0.4-0.3,0.8-0.6,1.1-1
			c0.3,0.4,0.7,0.7,1.1,1C3.6-0.8,3.2-0.7,2.8-0.7C2.4-0.7,2-0.8,1.7-1z M1.4-4.1c0.3,0.6,0.7,1.2,1.2,1.8C2.3-1.9,1.9-1.5,1.4-1.2
			L1-1.5C0.7-1.7,0.5-2,0.3-2.3C0.6-2.8,1-3.4,1.4-4.1z M1.4-9.4l1.2,2.3l-1,1.8C1.5-5.1,1.4-5,1.4-4.8C1.3-4.9,1.2-5.1,1.2-5.3
			l-1-1.9L1.4-9.4z M1.4-14.7l1.2,2.3L1.4-10l-1.2-2.3L1.4-14.7z M1.4-20l0.2,0.5l1,1.9l-1.2,2.3l-1.2-2.4l1-1.8
			C1.2-19.7,1.3-19.9,1.4-20z M2.6-22.4c-0.5,0.5-0.9,1.1-1.2,1.8c-0.4-0.6-0.8-1.2-1.2-1.8c0.3-0.5,0.7-0.9,1.1-1.2
			C1.8-23.3,2.2-22.9,2.6-22.4z M3.9-23.7c-0.4,0.3-0.8,0.6-1.1,1c-0.4-0.4-0.8-0.8-1.2-1.1C2-24,2.4-24.1,2.8-24.1
			C3.2-24.1,3.6-23.9,3.9-23.7z M5.4-22.4c-0.5,0.5-0.9,1.1-1.2,1.8c-0.4-0.6-0.8-1.2-1.2-1.8c0.3-0.4,0.7-0.8,1.2-1.1
			C4.6-23.2,5-22.8,5.4-22.4z M6.7-23.7c-0.4,0.3-0.8,0.6-1.1,1c-0.3-0.4-0.7-0.7-1.1-1C4.8-23.9,5.2-24,5.6-24
			C6-24,6.4-23.9,6.7-23.7z M8.1-22.4c-0.4,0.5-0.8,1.2-1.1,1.8c-0.4-0.6-0.8-1.2-1.2-1.8c0.3-0.4,0.7-0.8,1.2-1.1
			C7.4-23.2,7.8-22.8,8.1-22.4z M9.4-23.7c-0.4,0.3-0.8,0.6-1.1,1c-0.3-0.4-0.7-0.7-1.1-1C7.5-23.9,7.9-24,8.3-24
			C8.7-24,9.1-23.9,9.4-23.7z M10.9-22.4l-1.2,1.8c-0.3-0.6-0.7-1.3-1.1-1.8c0.3-0.4,0.7-0.8,1.2-1.1C10.2-23.2,10.6-22.8,10.9-22.4
			z"/>
	</g>
</pattern>
<pattern  y="1006" width="36.9" height="21.3" patternUnits="userSpaceOnUse" id="d" viewBox="0 -21.3 36.9 21.3" style="overflow:visible;">
	<g>
		<rect y="-21.3" class="st0" width="36.9" height="21.3"/>
		<rect y="-21.3" class="st0" width="36.9" height="21.3"/>
		<rect y="-21.3" class="st0" width="36.9" height="21.3"/>
		<rect y="-21.3" class="st0" width="36.9" height="21.3"/>
		<rect y="-21.3" class="st0" width="36.9" height="21.3"/>
		<rect y="-21.3" class="st0" width="36.9" height="21.3"/>
		<polygon class="st2" points="36.9,0 36.4,0 36.9,-0.3 		"/>
		<polygon class="st2" points="32.3,0 36.9,-2.7 36.9,-2.1 33.3,0 		"/>
		<polygon class="st2" points="28.2,0 36.9,-5 36.9,-4.4 29.2,0 		"/>
		<polygon class="st2" points="24.1,0 36.9,-7.4 36.9,-6.8 25.1,0 		"/>
		<polygon class="st2" points="20,0 36.9,-9.8 36.9,-9.2 21,0 		"/>
		<polygon class="st2" points="15.9,0 36.9,-12.1 36.9,-11.5 16.9,0 		"/>
		<polygon class="st2" points="11.8,0 36.9,-14.5 36.9,-13.9 12.8,0 		"/>
		<polygon class="st2" points="7.7,0 36.9,-16.9 36.9,-16.3 8.7,0 		"/>
		<polygon class="st2" points="3.6,0 36.9,-19.2 36.9,-18.6 4.6,0 		"/>
		<polygon class="st2" points="0,0 0,-0.3 36.4,-21.3 36.9,-21.3 36.9,-21 0.5,0 		"/>
		<polygon class="st2" points="0,-2.7 32.3,-21.3 33.3,-21.3 0,-2.1 		"/>
		<polygon class="st2" points="0,-5 28.2,-21.3 29.2,-21.3 0,-4.4 		"/>
		<polygon class="st2" points="0,-7.4 24.1,-21.3 25.1,-21.3 0,-6.8 		"/>
		<polygon class="st2" points="0,-9.8 20,-21.3 21,-21.3 0,-9.2 		"/>
		<polygon class="st2" points="0,-12.1 15.9,-21.3 16.9,-21.3 0,-11.5 		"/>
		<polygon class="st2" points="0,-14.5 11.8,-21.3 12.8,-21.3 0,-13.9 		"/>
		<polygon class="st2" points="0,-16.9 7.7,-21.3 8.7,-21.3 0,-16.3 		"/>
		<polygon class="st2" points="0,-19.2 3.6,-21.3 4.6,-21.3 0,-18.6 		"/>
		<polygon class="st2" points="0,-21.3 0.5,-21.3 0,-21 		"/>
	</g>
</pattern>
<pattern  y="1006" width="36.9" height="21.3" patternUnits="userSpaceOnUse" id="e" viewBox="0 -21.3 36.9 21.3" style="overflow:visible;">
	<g>
		<rect y="-21.3" class="st0" width="36.9" height="21.3"/>
		<rect y="-21.3" class="st0" width="36.9" height="21.3"/>
		<rect y="-21.3" class="st0" width="36.9" height="21.3"/>
		<rect y="-21.3" class="st0" width="36.9" height="21.3"/>
		<rect y="-21.3" class="st0" width="36.9" height="21.3"/>
		<rect y="-21.3" class="st0" width="36.9" height="21.3"/>
		<polygon class="st3" points="0,0 0.8,0 0,-0.4 		"/>
		<polygon class="st3" points="4.8,0 0,-2.8 0,-1.9 3.3,0 		"/>
		<polygon class="st3" points="8.9,0 0,-5.2 0,-4.3 7.4,0 		"/>
		<polygon class="st3" points="13,0 0,-7.5 0,-6.7 11.5,0 		"/>
		<polygon class="st3" points="17.1,0 0,-9.9 0,-9 15.6,0 		"/>
		<polygon class="st3" points="21.2,0 0,-12.3 0,-11.4 19.7,0 		"/>
		<polygon class="st3" points="25.3,0 0,-14.6 0,-13.8 23.8,0 		"/>
		<polygon class="st3" points="29.4,0 0,-17 0,-16.1 27.9,0 		"/>
		<polygon class="st3" points="33.5,0 0,-19.4 0,-18.5 32,0 		"/>
		<polygon class="st3" points="36.9,0 36.9,-0.4 0.8,-21.3 0,-21.3 0,-20.9 36.1,0 		"/>
		<polygon class="st3" points="36.9,-2.8 4.8,-21.3 3.3,-21.3 36.9,-1.9 		"/>
		<polygon class="st3" points="36.9,-5.2 8.9,-21.3 7.4,-21.3 36.9,-4.3 		"/>
		<polygon class="st3" points="36.9,-7.5 13,-21.3 11.5,-21.3 36.9,-6.7 		"/>
		<polygon class="st3" points="36.9,-9.9 17.1,-21.3 15.6,-21.3 36.9,-9 		"/>
		<polygon class="st3" points="36.9,-12.3 21.2,-21.3 19.7,-21.3 36.9,-11.4 		"/>
		<polygon class="st3" points="36.9,-14.6 25.3,-21.3 23.8,-21.3 36.9,-13.8 		"/>
		<polygon class="st3" points="36.9,-17 29.4,-21.3 27.9,-21.3 36.9,-16.1 		"/>
		<polygon class="st3" points="36.9,-19.4 33.5,-21.3 32,-21.3 36.9,-18.5 		"/>
		<polygon class="st3" points="36.9,-21.3 36.1,-21.3 36.9,-20.9 		"/>
	</g>
</pattern>
<title>cw-v4 practice</title>
<g>
	<defs>
		<rect id="SVGID_1_" width="926" height="1006"/>
	</defs>
	<clipPath id="SVGID_2_">
		<use xlink:href="#SVGID_1_"  style="overflow:visible;"/>
	</clipPath>
	<g class="st4">
		<pattern  id="SVGID_3_" xlink:href="#d" patternTransform="matrix(1.1948 0 0 -1.1235 6866.3359 -23682.75)">
		</pattern>
		<polygon class="st5" points="925.5,345 925.5,1006 277.5,1006 661.5,345 		"/>
		<pattern  id="SVGID_4_" xlink:href="#e" patternTransform="matrix(1.1948 0 0 -1.1235 6801.98 -23787.8516)">
		</pattern>
		<polygon class="st6" points="165.5,-0.5 925.5,-0.5 925.5,736.5 165.5,299.5 		"/>
		<pattern  id="SVGID_5_" xlink:href="#c" patternTransform="matrix(1.118 0 0 -1.0468 5531.2119 -22403.8926)">
		</pattern>
		<polygon class="st7" points="925.5,641 925.5,1006 -0.5,1006 204.5,641 		"/>
	</g>
</g>
</svg>
